M48
;DRILL file {Pcbnew (2013-03-31 BZR 4008)-stable} date 16/06/2013 11:35:57 PM
;FORMAT={2:4/ absolute / inch / keep zeros}
FMAT,2
INCH,TZ
T1C0.013
T2C0.024
T3C0.040
T4C0.047
T5C0.069
T6C0.079
%
G90
G05
M72
T1
X069488Y-053346
X069488Y-059252
X069488Y-059843
X069488Y-065748
X069685Y-050197
X069685Y-051378
X069685Y-052559
X069685Y-066339
X070472Y-053346
X070472Y-059252
X070472Y-059843
X070472Y-065748
X070866Y-050197
X070866Y-066339
X071260Y-051772
X071457Y-053346
X071457Y-059252
X071457Y-059843
X071457Y-065748
X072047Y-050197
X072047Y-066339
X072146Y-053740
X072146Y-054724
X072146Y-057972
X072146Y-058760
X072146Y-060236
X072146Y-061220
X072146Y-064567
X072146Y-065354
X072441Y-059449
X072539Y-065748
X072835Y-050591
X072835Y-051772
X072835Y-052953
X072835Y-054134
X072835Y-055118
X072835Y-061811
X073228Y-066339
X073425Y-059449
X073524Y-065748
X073642Y-060276
X073819Y-055118
X073819Y-061811
X074409Y-059449
X074409Y-066339
X074508Y-065748
X074803Y-055118
X074803Y-061811
X074882Y-061004
X075394Y-059449
X075492Y-065748
X075591Y-050591
X075591Y-051772
X075591Y-052953
X075591Y-054134
X075591Y-066339
X075787Y-055118
X075787Y-061811
X076378Y-059449
X076476Y-065748
X076673Y-060276
X076772Y-050591
X076772Y-051772
X076772Y-052953
X076772Y-054134
X076772Y-055118
X076772Y-061811
X076772Y-066339
X077362Y-059449
X077461Y-065748
X077756Y-055118
X077756Y-061811
X077953Y-050591
X077953Y-051181
X077953Y-051772
X077953Y-052362
X077953Y-052953
X077953Y-054134
X077953Y-066339
X078268Y-061043
X078346Y-059449
X078445Y-065748
X078740Y-055118
X078740Y-061811
X078839Y-065354
X079134Y-066339
X079331Y-059449
X079724Y-055118
X079724Y-061811
X079823Y-065354
X080098Y-060157
X080118Y-050000
X080315Y-059449
X080315Y-066339
X080610Y-050492
X080610Y-054232
X080709Y-055118
X080709Y-061811
X080807Y-064862
X080807Y-065354
X081102Y-064469
X081201Y-051083
X081201Y-055118
X081299Y-053543
X081299Y-059449
X081496Y-050000
X081496Y-061811
X081555Y-057264
X081673Y-061181
X081693Y-054134
X081791Y-052953
X081791Y-064469
X082185Y-055118
X082283Y-059449
X082480Y-052461
X082480Y-052953
X082480Y-064469
X082598Y-061181
X082736Y-057264
X082776Y-051142
X082815Y-060433
X082972Y-055118
X083169Y-064469
X083268Y-059449
X083346Y-061929
X083366Y-051142
X083366Y-052165
X083366Y-061181
X083622Y-053878
X083760Y-064665
X083917Y-061339
X083957Y-051772
X084252Y-059154
X084252Y-064961
X084291Y-061850
X084331Y-051142
X084331Y-052441
X084350Y-051772
X084449Y-059646
X084449Y-060236
X084449Y-060925
X084508Y-058839
X084606Y-053445
X084646Y-054665
X084646Y-055118
X084646Y-055610
X084646Y-064272
X084685Y-061476
X084744Y-051772
X084862Y-058445
X084882Y-057697
X084902Y-056850
X085098Y-061909
X085138Y-054232
X085138Y-060433
X085138Y-065059
X085157Y-055866
X085315Y-052126
X085335Y-061024
X085354Y-057697
X085433Y-058799
X085453Y-062165
X085630Y-051181
X085728Y-052953
X085827Y-060394
X085827Y-061319
X086024Y-055512
X086122Y-054626
X086142Y-055118
X086181Y-059252
X086181Y-059961
X086201Y-060846
X086220Y-051181
X086220Y-064173
X086260Y-062165
X086319Y-063484
X086319Y-065256
X086339Y-064685
X086575Y-061280
X086713Y-050098
X086713Y-065650
X086772Y-064803
X086890Y-062913
X087126Y-062165
X087165Y-061339
X087205Y-065236
X087500Y-053858
X087579Y-061614
X087638Y-062677
X087697Y-066339
X087854Y-063484
X088071Y-062106
X088071Y-063110
X088228Y-065492
X088406Y-052815
X088445Y-063878
X088504Y-062539
X088583Y-064724
X088917Y-062874
X089075Y-065256
X089232Y-063327
X089232Y-064252
X089429Y-066220
X089646Y-052539
X089646Y-064685
X090157Y-053957
X090177Y-060610
X090413Y-065374
X090413Y-066220
X090945Y-052539
X091161Y-053957
X091161Y-054567
X091161Y-059114
X091161Y-060020
X091161Y-060610
X091398Y-055433
X091417Y-066220
X091535Y-064665
X091654Y-065374
X092028Y-055394
X092047Y-054055
X092087Y-064094
X092165Y-065020
X092323Y-052539
X092362Y-066220
X092421Y-059075
X092421Y-060433
X092441Y-063760
X092520Y-065354
X092539Y-055276
X092835Y-064449
X092913Y-062421
X093012Y-057106
X093228Y-063701
X093248Y-054685
X093386Y-059724
X093425Y-057106
X093425Y-057776
X093681Y-065453
X093681Y-066220
X093720Y-064449
X093740Y-054764
X093799Y-052480
X093839Y-057106
X093839Y-057776
X093917Y-054134
X093917Y-063701
X093957Y-061693
X094035Y-060925
X094173Y-051673
X094252Y-057894
X094311Y-054134
X094429Y-059803
X094429Y-061319
X094488Y-063701
X094508Y-056063
X094508Y-056417
X094547Y-060492
X094685Y-064508
X094921Y-063976
X095157Y-066220
X095295Y-063917
X095374Y-052854
X095492Y-065453
X096024Y-063996
X097028Y-063819
T2
X095079Y-053189
X095079Y-053819
X095079Y-054449
X095079Y-055079
X095079Y-055709
X095079Y-056339
X095079Y-056969
X095079Y-057598
X095079Y-058228
X095079Y-058858
X095079Y-059488
X095079Y-060118
X095079Y-060748
X095079Y-061378
X095079Y-062008
X095079Y-062638
X095079Y-063268
X095531Y-053504
X095531Y-054134
X095531Y-054764
X095531Y-055394
X095531Y-056024
X095531Y-056654
X095531Y-057283
X095531Y-057913
X095531Y-058543
X095531Y-059173
X095531Y-059803
X095531Y-060433
X095531Y-061063
X095531Y-061693
X095531Y-062323
X095531Y-062953
X095531Y-063583
X096004Y-053031
X096004Y-053661
X096004Y-054291
X096004Y-054921
X096004Y-055551
X096004Y-056181
X096004Y-056811
X096004Y-057441
X096004Y-058071
X096004Y-058701
X096004Y-059331
X096004Y-059961
X096004Y-060591
X096004Y-061220
X096004Y-061850
X096004Y-062480
X096004Y-063110
X096457Y-053346
X096457Y-053976
X096457Y-054606
X096457Y-055236
X096457Y-055866
X096457Y-056496
X096457Y-057126
X096457Y-057756
X096457Y-058386
X096457Y-059016
X096457Y-059646
X096457Y-060276
X096457Y-060906
X096457Y-061535
X096457Y-062165
X096457Y-062795
X096457Y-063425
T3
X081571Y-065445
X081571Y-066445
X082571Y-065445
X082571Y-066445
X083571Y-065445
X083571Y-066445
X084571Y-065445
X084571Y-066445
X087295Y-050878
X087295Y-051878
X088295Y-050878
X088295Y-051878
X089839Y-050878
X089839Y-051878
X090051Y-063083
X090051Y-064083
X090839Y-050878
X090839Y-051878
X091051Y-063083
X091051Y-064083
X091839Y-050878
X091839Y-051878
X092839Y-050878
X092839Y-051878
T4
X096004Y-051939
X096004Y-064675
T5
X097047Y-050010
X097047Y-066604
T6
X088583Y-057283
T0
M30
