G04 (created by PCBNEW (2013-03-31 BZR 4008)-stable) date 16/06/2013 11:35:49 PM*
%MOIN*%
G04 Gerber Fmt 3.4, Leading zero omitted, Abs format*
%FSLAX34Y34*%
G01*
G70*
G90*
G04 APERTURE LIST*
%ADD10C,0.005*%
%ADD11R,0.06X0.06*%
%ADD12C,0.06*%
%ADD13R,0.11811X0.11811*%
%ADD14C,0.0374016*%
%ADD15C,0.0787402*%
%ADD16C,0.0984252*%
%ADD17C,0.03*%
%ADD18C,0.035*%
%ADD19C,0.02*%
%ADD20C,0.03*%
%ADD21C,0.04*%
G04 APERTURE END LIST*
G54D10*
G54D11*
X87295Y-51877D03*
G54D12*
X87295Y-50877D03*
X88295Y-51877D03*
X88295Y-50877D03*
G54D11*
X81570Y-66444D03*
G54D12*
X81570Y-65444D03*
X82570Y-66444D03*
X82570Y-65444D03*
X83570Y-66444D03*
X83570Y-65444D03*
X84570Y-66444D03*
X84570Y-65444D03*
G54D11*
X89838Y-51877D03*
G54D12*
X89838Y-50877D03*
X90838Y-51877D03*
X90838Y-50877D03*
X91838Y-51877D03*
X91838Y-50877D03*
X92838Y-51877D03*
X92838Y-50877D03*
G54D11*
X90051Y-63082D03*
G54D12*
X91051Y-63082D03*
X90051Y-64082D03*
X91051Y-64082D03*
G54D13*
X88582Y-57283D03*
G54D14*
X95531Y-63582D03*
X95531Y-62952D03*
X95531Y-62322D03*
X95531Y-61692D03*
X95531Y-61062D03*
X95531Y-60433D03*
X95531Y-59803D03*
X95531Y-59173D03*
X95531Y-58543D03*
X95531Y-57913D03*
X95531Y-57283D03*
X95531Y-56653D03*
X95531Y-56023D03*
X95531Y-55393D03*
X95531Y-54763D03*
X95531Y-54133D03*
X95531Y-53503D03*
X95078Y-53188D03*
X95078Y-53818D03*
X95078Y-54448D03*
X95078Y-55078D03*
X95078Y-55708D03*
X95078Y-56338D03*
X95078Y-56968D03*
X95078Y-57598D03*
X95078Y-58228D03*
X95078Y-58858D03*
X95078Y-59488D03*
X95078Y-60118D03*
X95078Y-60748D03*
X95078Y-61377D03*
X95078Y-62007D03*
X95078Y-62637D03*
X95078Y-63267D03*
X96003Y-63110D03*
X96003Y-62480D03*
X96003Y-61850D03*
X96003Y-61220D03*
X96003Y-60590D03*
X96003Y-59960D03*
X96003Y-59330D03*
X96003Y-58700D03*
X96003Y-58070D03*
X96003Y-57440D03*
X96003Y-56811D03*
X96003Y-56181D03*
X96003Y-55551D03*
X96003Y-54921D03*
X96003Y-54291D03*
X96003Y-53661D03*
X96003Y-53031D03*
X96456Y-53346D03*
X96456Y-53976D03*
X96456Y-54606D03*
X96456Y-55236D03*
X96456Y-55866D03*
X96456Y-56496D03*
X96456Y-57125D03*
X96456Y-57755D03*
X96456Y-58385D03*
X96456Y-59015D03*
X96456Y-59645D03*
X96456Y-60275D03*
X96456Y-60905D03*
X96456Y-61535D03*
X96456Y-62165D03*
X96456Y-62795D03*
X96456Y-63425D03*
G54D15*
X96003Y-64675D03*
X96003Y-51938D03*
G54D16*
X97047Y-66604D03*
X97047Y-50009D03*
G54D17*
X92421Y-59074D03*
X91161Y-60019D03*
X92027Y-55393D03*
X91161Y-54566D03*
X87500Y-53858D03*
X86141Y-55118D03*
X83956Y-51771D03*
X84350Y-51771D03*
X84744Y-51771D03*
X77952Y-51181D03*
X77952Y-50590D03*
X77952Y-52362D03*
X75590Y-52952D03*
X75590Y-50590D03*
X76771Y-50590D03*
X75590Y-51771D03*
X75590Y-54133D03*
X77952Y-54133D03*
X77952Y-51771D03*
X77952Y-52952D03*
X76771Y-54133D03*
X76771Y-51771D03*
X76771Y-52952D03*
X86181Y-59251D03*
X85826Y-60393D03*
X86181Y-59960D03*
X86574Y-61279D03*
X86200Y-60846D03*
X85157Y-55866D03*
X85137Y-54232D03*
X87696Y-66338D03*
X86712Y-50098D03*
X94311Y-54133D03*
X93425Y-57775D03*
X93425Y-57106D03*
X94507Y-56062D03*
X86338Y-64685D03*
X81692Y-54133D03*
G54D18*
X81555Y-57263D03*
G54D17*
X93740Y-54763D03*
X93917Y-54133D03*
X93956Y-61692D03*
X94429Y-61318D03*
X94035Y-60925D03*
X94429Y-59803D03*
X93838Y-57775D03*
X93838Y-57106D03*
X93011Y-57106D03*
X94507Y-56417D03*
X94921Y-63976D03*
X85314Y-52125D03*
X83366Y-52165D03*
X84330Y-52440D03*
X83366Y-51141D03*
X84330Y-51141D03*
X80610Y-50492D03*
X82775Y-51141D03*
X81200Y-51082D03*
X80118Y-50000D03*
X81496Y-50000D03*
X86220Y-51181D03*
X85629Y-51181D03*
X93681Y-66220D03*
X89429Y-66220D03*
X89074Y-65255D03*
X92362Y-66220D03*
X91417Y-66220D03*
X90413Y-66220D03*
X95157Y-66220D03*
X91653Y-65374D03*
X88444Y-63877D03*
X87637Y-62677D03*
X86259Y-62165D03*
X87125Y-62165D03*
X88070Y-63110D03*
X88582Y-64724D03*
X90413Y-65374D03*
X92165Y-65019D03*
X85452Y-62165D03*
X84291Y-61850D03*
X83366Y-61181D03*
X81673Y-61181D03*
X80708Y-61811D03*
X81496Y-61811D03*
X82598Y-61181D03*
X83917Y-61338D03*
X85098Y-61909D03*
X86889Y-62913D03*
X79724Y-61811D03*
X78740Y-61811D03*
X77755Y-61811D03*
X76771Y-61811D03*
X75787Y-61811D03*
X74803Y-61811D03*
X73818Y-61811D03*
X72834Y-61811D03*
X72145Y-61220D03*
X72145Y-60236D03*
X71456Y-59842D03*
X70472Y-59842D03*
X69488Y-59842D03*
X84448Y-60925D03*
X84448Y-59645D03*
X84448Y-60236D03*
X84685Y-61476D03*
X69685Y-51377D03*
X71259Y-51771D03*
X69685Y-52559D03*
X80098Y-60157D03*
X76673Y-60275D03*
X73641Y-60275D03*
X73425Y-59448D03*
X74881Y-61003D03*
X78267Y-61043D03*
X82814Y-60433D03*
X72834Y-52952D03*
X72834Y-50590D03*
X70866Y-50196D03*
X69488Y-53346D03*
X69685Y-50196D03*
X72047Y-50196D03*
X72834Y-51771D03*
X72834Y-54133D03*
X84862Y-58444D03*
X84251Y-59153D03*
X83267Y-59448D03*
X82283Y-59448D03*
X81299Y-59448D03*
X80314Y-59448D03*
X79330Y-59448D03*
X78346Y-59448D03*
X77362Y-59448D03*
X76377Y-59448D03*
X75393Y-59448D03*
X74409Y-59448D03*
X72440Y-59448D03*
X84507Y-58838D03*
X84881Y-57696D03*
X72145Y-58759D03*
X72145Y-57972D03*
X69488Y-59251D03*
X70472Y-59251D03*
X71456Y-59251D03*
X80610Y-54232D03*
X79724Y-55118D03*
X81299Y-53543D03*
X80708Y-55118D03*
X78740Y-55118D03*
X77755Y-55118D03*
X76771Y-55118D03*
X75787Y-55118D03*
X74803Y-55118D03*
X73818Y-55118D03*
X72834Y-55118D03*
X72145Y-54724D03*
X72145Y-53740D03*
X71456Y-53346D03*
X70472Y-53346D03*
X81200Y-55118D03*
X93681Y-65452D03*
X92519Y-65354D03*
X95492Y-65452D03*
X88228Y-65492D03*
X86771Y-64803D03*
X87204Y-65236D03*
X86318Y-65255D03*
X86712Y-65649D03*
X87854Y-63484D03*
X83346Y-61929D03*
X84251Y-64960D03*
X83759Y-64665D03*
X85137Y-65059D03*
X94173Y-51673D03*
X92047Y-54055D03*
X91397Y-55433D03*
X83622Y-53877D03*
X82480Y-52952D03*
X84606Y-53444D03*
X89645Y-52539D03*
X92322Y-52539D03*
X95374Y-52854D03*
X93799Y-52480D03*
X90944Y-52539D03*
X88405Y-52814D03*
X92421Y-60433D03*
X93385Y-59724D03*
X94488Y-63700D03*
X93228Y-63700D03*
X92086Y-64094D03*
X89645Y-64685D03*
X89232Y-63326D03*
X88917Y-62874D03*
X89232Y-64251D03*
X91535Y-64665D03*
X92440Y-63759D03*
X93917Y-63700D03*
X95295Y-63917D03*
X88070Y-62106D03*
X87578Y-61614D03*
X88503Y-62539D03*
X79133Y-66338D03*
X76771Y-66338D03*
X74409Y-66338D03*
X72047Y-66338D03*
X69685Y-66338D03*
X70866Y-66338D03*
X73228Y-66338D03*
X75590Y-66338D03*
X77952Y-66338D03*
X80314Y-66338D03*
X96023Y-63996D03*
X94685Y-64507D03*
X92834Y-64448D03*
X93720Y-64448D03*
X97027Y-63818D03*
X87165Y-61338D03*
X91161Y-53956D03*
X93248Y-54685D03*
X92539Y-55275D03*
X94251Y-57893D03*
X94547Y-60492D03*
X86220Y-64173D03*
X86318Y-63484D03*
X82480Y-64468D03*
X81102Y-64468D03*
X80807Y-65354D03*
X79822Y-65354D03*
X78838Y-65354D03*
X72539Y-65748D03*
X73523Y-65748D03*
X74507Y-65748D03*
X75492Y-65748D03*
X76476Y-65748D03*
X77460Y-65748D03*
X78444Y-65748D03*
X80807Y-64862D03*
X81791Y-64468D03*
X83169Y-64468D03*
X84645Y-55118D03*
X84645Y-54665D03*
X84645Y-55610D03*
X84901Y-56850D03*
X84645Y-64271D03*
X72145Y-65354D03*
X71456Y-65748D03*
X70472Y-65748D03*
X69488Y-65748D03*
X72145Y-64566D03*
X85334Y-61023D03*
X85137Y-60433D03*
X85826Y-61318D03*
X91161Y-59114D03*
X90157Y-53956D03*
X90177Y-60610D03*
X85354Y-57696D03*
X85433Y-58799D03*
X81791Y-52952D03*
X82480Y-52460D03*
X85728Y-52952D03*
X86023Y-55511D03*
X86122Y-54625D03*
X82972Y-55118D03*
X82185Y-55118D03*
X92913Y-62421D03*
X91161Y-60610D03*
G54D18*
X82736Y-57263D03*
G54D19*
X85551Y-65866D02*
X85649Y-65964D01*
X85649Y-65964D02*
X88779Y-65964D01*
X84570Y-65444D02*
X85129Y-65444D01*
X85129Y-65444D02*
X85551Y-65866D01*
X85551Y-65866D02*
X85531Y-65846D01*
G54D20*
X95570Y-66338D02*
X95334Y-66574D01*
X95570Y-66338D02*
X97637Y-64271D01*
X97637Y-64271D02*
X97637Y-58759D01*
X97263Y-58385D02*
X97637Y-58759D01*
X87933Y-66574D02*
X87696Y-66338D01*
X95334Y-66574D02*
X87933Y-66574D01*
G54D19*
X81570Y-65444D02*
X82570Y-65444D01*
X87696Y-66338D02*
X85433Y-66338D01*
X85433Y-66338D02*
X85039Y-65944D01*
X85039Y-65944D02*
X83070Y-65944D01*
X83070Y-65944D02*
X82570Y-65444D01*
G54D21*
X97637Y-51870D02*
X95866Y-50098D01*
X96456Y-58385D02*
X97263Y-58385D01*
X97263Y-58385D02*
X97322Y-58385D01*
X97322Y-58385D02*
X97637Y-58070D01*
X97637Y-51870D02*
X97637Y-58070D01*
X95866Y-50098D02*
X86712Y-50098D01*
X95078Y-58228D02*
X95393Y-58543D01*
X95393Y-58543D02*
X95531Y-58543D01*
X95531Y-58543D02*
X96003Y-58070D01*
X96003Y-58070D02*
X96141Y-58070D01*
X96141Y-58070D02*
X96456Y-58385D01*
X81692Y-54133D02*
X81692Y-57125D01*
X81692Y-57125D02*
X81555Y-57263D01*
G54D10*
X93917Y-54133D02*
X94114Y-54330D01*
X95846Y-53976D02*
X96456Y-53976D01*
X95688Y-53818D02*
X95846Y-53976D01*
X95452Y-53818D02*
X95688Y-53818D01*
X95137Y-54133D02*
X95452Y-53818D01*
X94783Y-54133D02*
X95137Y-54133D01*
X94527Y-54389D02*
X94783Y-54133D01*
X94173Y-54389D02*
X94527Y-54389D01*
X94114Y-54330D02*
X94173Y-54389D01*
X94035Y-60925D02*
X94448Y-60925D01*
X95846Y-60748D02*
X96003Y-60590D01*
X95452Y-60748D02*
X95846Y-60748D01*
X95137Y-60433D02*
X95452Y-60748D01*
X94940Y-60433D02*
X95137Y-60433D01*
X94448Y-60925D02*
X94940Y-60433D01*
X94507Y-56417D02*
X94901Y-56023D01*
X95846Y-55866D02*
X96456Y-55866D01*
X95688Y-55708D02*
X95846Y-55866D01*
X95452Y-55708D02*
X95688Y-55708D01*
X95137Y-56023D02*
X95452Y-55708D01*
X94901Y-56023D02*
X95137Y-56023D01*
G36*
X97382Y-64166D02*
X97282Y-64266D01*
X97282Y-63768D01*
X97243Y-63674D01*
X97172Y-63602D01*
X97078Y-63563D01*
X96977Y-63563D01*
X96883Y-63602D01*
X96811Y-63674D01*
X96772Y-63767D01*
X96772Y-63869D01*
X96811Y-63963D01*
X96882Y-64034D01*
X96976Y-64073D01*
X97078Y-64073D01*
X97171Y-64035D01*
X97243Y-63963D01*
X97282Y-63869D01*
X97282Y-63768D01*
X97282Y-64266D01*
X96748Y-64800D01*
X96748Y-63367D01*
X96704Y-63260D01*
X96622Y-63177D01*
X96515Y-63133D01*
X96398Y-63133D01*
X96292Y-63177D01*
X96295Y-63168D01*
X96295Y-63052D01*
X96292Y-63043D01*
X96398Y-63087D01*
X96514Y-63087D01*
X96621Y-63042D01*
X96704Y-62960D01*
X96748Y-62853D01*
X96748Y-62737D01*
X96704Y-62630D01*
X96622Y-62547D01*
X96515Y-62503D01*
X96398Y-62503D01*
X96292Y-62547D01*
X96295Y-62538D01*
X96295Y-62422D01*
X96292Y-62413D01*
X96398Y-62457D01*
X96514Y-62457D01*
X96621Y-62413D01*
X96704Y-62330D01*
X96748Y-62223D01*
X96748Y-62107D01*
X96704Y-62000D01*
X96622Y-61917D01*
X96515Y-61873D01*
X96398Y-61873D01*
X96292Y-61917D01*
X96295Y-61908D01*
X96295Y-61792D01*
X96292Y-61783D01*
X96398Y-61827D01*
X96514Y-61827D01*
X96621Y-61783D01*
X96704Y-61701D01*
X96748Y-61593D01*
X96748Y-61477D01*
X96704Y-61370D01*
X96622Y-61288D01*
X96515Y-61243D01*
X96398Y-61243D01*
X96292Y-61287D01*
X96295Y-61278D01*
X96295Y-61162D01*
X96292Y-61153D01*
X96398Y-61197D01*
X96514Y-61197D01*
X96621Y-61153D01*
X96704Y-61071D01*
X96748Y-60963D01*
X96748Y-60847D01*
X96704Y-60740D01*
X96622Y-60658D01*
X96515Y-60613D01*
X96398Y-60613D01*
X96292Y-60657D01*
X96295Y-60648D01*
X96295Y-60532D01*
X96292Y-60523D01*
X96398Y-60567D01*
X96514Y-60567D01*
X96621Y-60523D01*
X96704Y-60441D01*
X96748Y-60333D01*
X96748Y-60217D01*
X96704Y-60110D01*
X96622Y-60028D01*
X96515Y-59983D01*
X96398Y-59983D01*
X96292Y-60027D01*
X96295Y-60018D01*
X96295Y-59902D01*
X96292Y-59893D01*
X96398Y-59937D01*
X96514Y-59937D01*
X96621Y-59893D01*
X96704Y-59811D01*
X96748Y-59704D01*
X96748Y-59587D01*
X96704Y-59480D01*
X96622Y-59398D01*
X96515Y-59353D01*
X96398Y-59353D01*
X96292Y-59397D01*
X96295Y-59389D01*
X96295Y-59272D01*
X96292Y-59263D01*
X96398Y-59307D01*
X96514Y-59307D01*
X96621Y-59263D01*
X96704Y-59181D01*
X96748Y-59074D01*
X96748Y-58957D01*
X96704Y-58850D01*
X96622Y-58768D01*
X96515Y-58723D01*
X96398Y-58723D01*
X96291Y-58768D01*
X96209Y-58850D01*
X96164Y-58957D01*
X96164Y-59073D01*
X96168Y-59082D01*
X96062Y-59038D01*
X95946Y-59038D01*
X95838Y-59083D01*
X95818Y-59103D01*
X95779Y-59008D01*
X95697Y-58925D01*
X95589Y-58881D01*
X95473Y-58881D01*
X95366Y-58925D01*
X95284Y-59007D01*
X95239Y-59114D01*
X95239Y-59231D01*
X95243Y-59240D01*
X95137Y-59196D01*
X95020Y-59196D01*
X94913Y-59240D01*
X94831Y-59322D01*
X94786Y-59429D01*
X94786Y-59546D01*
X94831Y-59653D01*
X94913Y-59735D01*
X95020Y-59780D01*
X95136Y-59780D01*
X95243Y-59736D01*
X95239Y-59744D01*
X95239Y-59860D01*
X95243Y-59870D01*
X95137Y-59826D01*
X95020Y-59826D01*
X94913Y-59870D01*
X94831Y-59952D01*
X94786Y-60059D01*
X94786Y-60175D01*
X94831Y-60283D01*
X94872Y-60325D01*
X94849Y-60341D01*
X94849Y-60341D01*
X94786Y-60403D01*
X94763Y-60347D01*
X94691Y-60276D01*
X94684Y-60272D01*
X94684Y-59752D01*
X94645Y-59658D01*
X94573Y-59587D01*
X94507Y-59559D01*
X94507Y-57843D01*
X94468Y-57749D01*
X94396Y-57677D01*
X94302Y-57638D01*
X94201Y-57638D01*
X94107Y-57677D01*
X94093Y-57691D01*
X94093Y-57055D01*
X94054Y-56962D01*
X93995Y-56902D01*
X93995Y-54713D01*
X93956Y-54619D01*
X93884Y-54547D01*
X93791Y-54508D01*
X93689Y-54508D01*
X93595Y-54547D01*
X93524Y-54619D01*
X93503Y-54669D01*
X93503Y-54634D01*
X93464Y-54540D01*
X93392Y-54468D01*
X93298Y-54430D01*
X93243Y-54430D01*
X93243Y-51797D01*
X93243Y-50797D01*
X93182Y-50648D01*
X93068Y-50534D01*
X92919Y-50473D01*
X92758Y-50472D01*
X92609Y-50534D01*
X92495Y-50648D01*
X92433Y-50797D01*
X92433Y-50958D01*
X92495Y-51107D01*
X92608Y-51221D01*
X92757Y-51282D01*
X92918Y-51283D01*
X93067Y-51221D01*
X93181Y-51107D01*
X93243Y-50958D01*
X93243Y-50797D01*
X93243Y-51797D01*
X93182Y-51648D01*
X93068Y-51534D01*
X92919Y-51473D01*
X92758Y-51472D01*
X92609Y-51534D01*
X92495Y-51648D01*
X92433Y-51797D01*
X92433Y-51958D01*
X92495Y-52107D01*
X92608Y-52221D01*
X92757Y-52282D01*
X92918Y-52283D01*
X93067Y-52221D01*
X93181Y-52107D01*
X93243Y-51958D01*
X93243Y-51797D01*
X93243Y-54430D01*
X93197Y-54429D01*
X93103Y-54468D01*
X93031Y-54540D01*
X92993Y-54634D01*
X92992Y-54735D01*
X93031Y-54829D01*
X93103Y-54901D01*
X93197Y-54939D01*
X93298Y-54940D01*
X93392Y-54901D01*
X93464Y-54829D01*
X93485Y-54778D01*
X93485Y-54814D01*
X93523Y-54908D01*
X93595Y-54979D01*
X93689Y-55018D01*
X93790Y-55018D01*
X93884Y-54980D01*
X93956Y-54908D01*
X93995Y-54814D01*
X93995Y-54713D01*
X93995Y-56902D01*
X93983Y-56890D01*
X93889Y-56851D01*
X93788Y-56851D01*
X93694Y-56889D01*
X93631Y-56952D01*
X93569Y-56890D01*
X93476Y-56851D01*
X93374Y-56851D01*
X93280Y-56889D01*
X93218Y-56952D01*
X93156Y-56890D01*
X93062Y-56851D01*
X92961Y-56851D01*
X92867Y-56889D01*
X92795Y-56961D01*
X92794Y-56964D01*
X92794Y-55225D01*
X92755Y-55131D01*
X92684Y-55059D01*
X92590Y-55020D01*
X92577Y-55020D01*
X92577Y-52488D01*
X92539Y-52395D01*
X92467Y-52323D01*
X92373Y-52284D01*
X92272Y-52284D01*
X92243Y-52296D01*
X92243Y-51797D01*
X92243Y-50797D01*
X92182Y-50648D01*
X92068Y-50534D01*
X91919Y-50473D01*
X91758Y-50472D01*
X91609Y-50534D01*
X91495Y-50648D01*
X91433Y-50797D01*
X91433Y-50958D01*
X91495Y-51107D01*
X91608Y-51221D01*
X91757Y-51282D01*
X91918Y-51283D01*
X92067Y-51221D01*
X92181Y-51107D01*
X92243Y-50958D01*
X92243Y-50797D01*
X92243Y-51797D01*
X92182Y-51648D01*
X92068Y-51534D01*
X91919Y-51473D01*
X91758Y-51472D01*
X91609Y-51534D01*
X91495Y-51648D01*
X91433Y-51797D01*
X91433Y-51958D01*
X91495Y-52107D01*
X91608Y-52221D01*
X91757Y-52282D01*
X91918Y-52283D01*
X92067Y-52221D01*
X92181Y-52107D01*
X92243Y-51958D01*
X92243Y-51797D01*
X92243Y-52296D01*
X92178Y-52323D01*
X92106Y-52394D01*
X92067Y-52488D01*
X92067Y-52589D01*
X92106Y-52683D01*
X92178Y-52755D01*
X92271Y-52794D01*
X92373Y-52794D01*
X92467Y-52755D01*
X92538Y-52684D01*
X92577Y-52590D01*
X92577Y-52488D01*
X92577Y-55020D01*
X92488Y-55020D01*
X92395Y-55059D01*
X92323Y-55130D01*
X92302Y-55181D01*
X92302Y-54004D01*
X92263Y-53910D01*
X92191Y-53839D01*
X92098Y-53800D01*
X91996Y-53800D01*
X91902Y-53838D01*
X91831Y-53910D01*
X91792Y-54004D01*
X91792Y-54105D01*
X91830Y-54199D01*
X91902Y-54271D01*
X91996Y-54310D01*
X92097Y-54310D01*
X92191Y-54271D01*
X92263Y-54199D01*
X92302Y-54106D01*
X92302Y-54004D01*
X92302Y-55181D01*
X92284Y-55224D01*
X92284Y-55326D01*
X92323Y-55419D01*
X92394Y-55491D01*
X92488Y-55530D01*
X92589Y-55530D01*
X92683Y-55491D01*
X92755Y-55420D01*
X92794Y-55326D01*
X92794Y-55225D01*
X92794Y-56964D01*
X92756Y-57055D01*
X92756Y-57156D01*
X92795Y-57250D01*
X92867Y-57322D01*
X92960Y-57361D01*
X93062Y-57361D01*
X93156Y-57322D01*
X93218Y-57260D01*
X93280Y-57322D01*
X93374Y-57361D01*
X93475Y-57361D01*
X93569Y-57322D01*
X93631Y-57260D01*
X93693Y-57322D01*
X93787Y-57361D01*
X93889Y-57361D01*
X93982Y-57322D01*
X94054Y-57250D01*
X94093Y-57157D01*
X94093Y-57055D01*
X94093Y-57691D01*
X94083Y-57701D01*
X94054Y-57631D01*
X93983Y-57559D01*
X93889Y-57520D01*
X93788Y-57520D01*
X93694Y-57559D01*
X93631Y-57621D01*
X93569Y-57559D01*
X93476Y-57520D01*
X93374Y-57520D01*
X93280Y-57559D01*
X93209Y-57630D01*
X93170Y-57724D01*
X93170Y-57826D01*
X93208Y-57919D01*
X93280Y-57991D01*
X93374Y-58030D01*
X93475Y-58030D01*
X93569Y-57991D01*
X93631Y-57929D01*
X93693Y-57991D01*
X93787Y-58030D01*
X93889Y-58030D01*
X93982Y-57991D01*
X94006Y-57968D01*
X94035Y-58037D01*
X94107Y-58109D01*
X94201Y-58148D01*
X94302Y-58148D01*
X94396Y-58110D01*
X94468Y-58038D01*
X94506Y-57944D01*
X94507Y-57843D01*
X94507Y-59559D01*
X94480Y-59548D01*
X94378Y-59548D01*
X94284Y-59586D01*
X94213Y-59658D01*
X94174Y-59752D01*
X94174Y-59853D01*
X94212Y-59947D01*
X94284Y-60019D01*
X94378Y-60058D01*
X94479Y-60058D01*
X94573Y-60019D01*
X94645Y-59947D01*
X94684Y-59854D01*
X94684Y-59752D01*
X94684Y-60272D01*
X94598Y-60237D01*
X94496Y-60237D01*
X94402Y-60275D01*
X94331Y-60347D01*
X94292Y-60441D01*
X94292Y-60542D01*
X94330Y-60636D01*
X94402Y-60708D01*
X94458Y-60731D01*
X94394Y-60795D01*
X94257Y-60795D01*
X94251Y-60780D01*
X94180Y-60709D01*
X94086Y-60670D01*
X93984Y-60670D01*
X93891Y-60708D01*
X93819Y-60780D01*
X93780Y-60874D01*
X93780Y-60975D01*
X93819Y-61069D01*
X93890Y-61141D01*
X93984Y-61180D01*
X94085Y-61180D01*
X94179Y-61141D01*
X94251Y-61069D01*
X94257Y-61055D01*
X94448Y-61055D01*
X94498Y-61045D01*
X94540Y-61017D01*
X94786Y-60771D01*
X94786Y-60805D01*
X94831Y-60913D01*
X94913Y-60995D01*
X95020Y-61039D01*
X95136Y-61040D01*
X95243Y-60996D01*
X95239Y-61004D01*
X95239Y-61120D01*
X95243Y-61130D01*
X95137Y-61085D01*
X95020Y-61085D01*
X94913Y-61130D01*
X94831Y-61212D01*
X94786Y-61319D01*
X94786Y-61435D01*
X94831Y-61543D01*
X94913Y-61625D01*
X95020Y-61669D01*
X95136Y-61670D01*
X95243Y-61625D01*
X95239Y-61634D01*
X95239Y-61750D01*
X95243Y-61760D01*
X95137Y-61715D01*
X95020Y-61715D01*
X94913Y-61760D01*
X94831Y-61842D01*
X94786Y-61949D01*
X94786Y-62065D01*
X94831Y-62173D01*
X94913Y-62255D01*
X95020Y-62299D01*
X95136Y-62299D01*
X95243Y-62255D01*
X95239Y-62264D01*
X95239Y-62380D01*
X95243Y-62389D01*
X95137Y-62345D01*
X95020Y-62345D01*
X94913Y-62390D01*
X94831Y-62472D01*
X94786Y-62579D01*
X94786Y-62695D01*
X94831Y-62802D01*
X94913Y-62885D01*
X95020Y-62929D01*
X95136Y-62929D01*
X95243Y-62885D01*
X95239Y-62894D01*
X95239Y-63010D01*
X95243Y-63019D01*
X95137Y-62975D01*
X95020Y-62975D01*
X94913Y-63020D01*
X94831Y-63102D01*
X94786Y-63209D01*
X94786Y-63325D01*
X94831Y-63432D01*
X94913Y-63515D01*
X95020Y-63559D01*
X95136Y-63559D01*
X95243Y-63515D01*
X95239Y-63524D01*
X95239Y-63640D01*
X95248Y-63662D01*
X95244Y-63662D01*
X95151Y-63701D01*
X95079Y-63772D01*
X95078Y-63773D01*
X95065Y-63760D01*
X94972Y-63721D01*
X94870Y-63721D01*
X94777Y-63760D01*
X94713Y-63823D01*
X94743Y-63751D01*
X94743Y-63650D01*
X94704Y-63556D01*
X94684Y-63536D01*
X94684Y-61268D01*
X94645Y-61174D01*
X94573Y-61102D01*
X94480Y-61063D01*
X94378Y-61063D01*
X94284Y-61102D01*
X94213Y-61174D01*
X94174Y-61267D01*
X94174Y-61369D01*
X94212Y-61463D01*
X94284Y-61534D01*
X94378Y-61573D01*
X94479Y-61573D01*
X94573Y-61535D01*
X94645Y-61463D01*
X94684Y-61369D01*
X94684Y-61268D01*
X94684Y-63536D01*
X94632Y-63484D01*
X94539Y-63445D01*
X94437Y-63445D01*
X94343Y-63484D01*
X94272Y-63556D01*
X94233Y-63649D01*
X94233Y-63751D01*
X94271Y-63845D01*
X94343Y-63916D01*
X94437Y-63955D01*
X94538Y-63955D01*
X94632Y-63917D01*
X94696Y-63853D01*
X94666Y-63925D01*
X94666Y-64026D01*
X94704Y-64120D01*
X94776Y-64192D01*
X94870Y-64231D01*
X94971Y-64231D01*
X95065Y-64192D01*
X95137Y-64121D01*
X95137Y-64120D01*
X95150Y-64133D01*
X95244Y-64172D01*
X95345Y-64172D01*
X95439Y-64133D01*
X95511Y-64061D01*
X95550Y-63968D01*
X95550Y-63874D01*
X95589Y-63874D01*
X95696Y-63830D01*
X95778Y-63748D01*
X95823Y-63641D01*
X95823Y-63524D01*
X95779Y-63417D01*
X95697Y-63335D01*
X95589Y-63290D01*
X95473Y-63290D01*
X95367Y-63334D01*
X95370Y-63326D01*
X95370Y-63209D01*
X95366Y-63200D01*
X95473Y-63244D01*
X95589Y-63244D01*
X95696Y-63200D01*
X95716Y-63180D01*
X95756Y-63275D01*
X95838Y-63357D01*
X95945Y-63402D01*
X96061Y-63402D01*
X96168Y-63358D01*
X96164Y-63366D01*
X96164Y-63483D01*
X96208Y-63590D01*
X96291Y-63672D01*
X96398Y-63717D01*
X96514Y-63717D01*
X96621Y-63672D01*
X96704Y-63590D01*
X96748Y-63483D01*
X96748Y-63367D01*
X96748Y-64800D01*
X96502Y-65046D01*
X96502Y-64576D01*
X96426Y-64393D01*
X96286Y-64252D01*
X96174Y-64205D01*
X96239Y-64140D01*
X96278Y-64047D01*
X96278Y-63945D01*
X96239Y-63851D01*
X96168Y-63780D01*
X96074Y-63741D01*
X95973Y-63741D01*
X95879Y-63779D01*
X95807Y-63851D01*
X95768Y-63945D01*
X95768Y-64046D01*
X95807Y-64140D01*
X95861Y-64194D01*
X95721Y-64252D01*
X95581Y-64392D01*
X95505Y-64575D01*
X95505Y-64773D01*
X95580Y-64957D01*
X95721Y-65097D01*
X95904Y-65173D01*
X96102Y-65173D01*
X96286Y-65098D01*
X96426Y-64958D01*
X96502Y-64774D01*
X96502Y-64576D01*
X96502Y-65046D01*
X95747Y-65801D01*
X95747Y-65402D01*
X95708Y-65308D01*
X95636Y-65236D01*
X95543Y-65197D01*
X95441Y-65197D01*
X95347Y-65236D01*
X95276Y-65308D01*
X95237Y-65401D01*
X95237Y-65503D01*
X95275Y-65597D01*
X95347Y-65668D01*
X95441Y-65707D01*
X95542Y-65707D01*
X95636Y-65669D01*
X95708Y-65597D01*
X95747Y-65503D01*
X95747Y-65402D01*
X95747Y-65801D01*
X95402Y-66146D01*
X95373Y-66076D01*
X95302Y-66004D01*
X95208Y-65965D01*
X95106Y-65965D01*
X95013Y-66004D01*
X94941Y-66075D01*
X94940Y-66079D01*
X94940Y-64457D01*
X94901Y-64363D01*
X94829Y-64291D01*
X94735Y-64252D01*
X94634Y-64252D01*
X94540Y-64291D01*
X94468Y-64363D01*
X94430Y-64456D01*
X94429Y-64558D01*
X94468Y-64652D01*
X94540Y-64723D01*
X94634Y-64762D01*
X94735Y-64762D01*
X94829Y-64724D01*
X94901Y-64652D01*
X94939Y-64558D01*
X94940Y-64457D01*
X94940Y-66079D01*
X94902Y-66169D01*
X94902Y-66270D01*
X94922Y-66319D01*
X94211Y-66319D01*
X94211Y-61642D01*
X94172Y-61548D01*
X94101Y-61476D01*
X94007Y-61437D01*
X93906Y-61437D01*
X93812Y-61476D01*
X93740Y-61548D01*
X93701Y-61641D01*
X93701Y-61743D01*
X93740Y-61837D01*
X93812Y-61908D01*
X93905Y-61947D01*
X94007Y-61947D01*
X94100Y-61909D01*
X94172Y-61837D01*
X94211Y-61743D01*
X94211Y-61642D01*
X94211Y-66319D01*
X94172Y-66319D01*
X94172Y-63650D01*
X94133Y-63556D01*
X94061Y-63484D01*
X93968Y-63445D01*
X93866Y-63445D01*
X93773Y-63484D01*
X93701Y-63556D01*
X93662Y-63649D01*
X93662Y-63751D01*
X93701Y-63845D01*
X93772Y-63916D01*
X93866Y-63955D01*
X93967Y-63955D01*
X94061Y-63917D01*
X94133Y-63845D01*
X94172Y-63751D01*
X94172Y-63650D01*
X94172Y-66319D01*
X93975Y-66319D01*
X93975Y-64398D01*
X93936Y-64304D01*
X93865Y-64232D01*
X93771Y-64193D01*
X93669Y-64193D01*
X93640Y-64205D01*
X93640Y-59673D01*
X93602Y-59580D01*
X93530Y-59508D01*
X93436Y-59469D01*
X93335Y-59469D01*
X93241Y-59508D01*
X93169Y-59579D01*
X93130Y-59673D01*
X93130Y-59774D01*
X93169Y-59868D01*
X93241Y-59940D01*
X93334Y-59979D01*
X93436Y-59979D01*
X93530Y-59940D01*
X93601Y-59869D01*
X93640Y-59775D01*
X93640Y-59673D01*
X93640Y-64205D01*
X93576Y-64232D01*
X93504Y-64304D01*
X93483Y-64354D01*
X93483Y-63650D01*
X93444Y-63556D01*
X93372Y-63484D01*
X93279Y-63445D01*
X93177Y-63445D01*
X93168Y-63449D01*
X93168Y-62370D01*
X93129Y-62277D01*
X93058Y-62205D01*
X92964Y-62166D01*
X92862Y-62166D01*
X92769Y-62204D01*
X92697Y-62276D01*
X92676Y-62327D01*
X92676Y-60382D01*
X92637Y-60288D01*
X92565Y-60217D01*
X92472Y-60178D01*
X92370Y-60178D01*
X92277Y-60216D01*
X92205Y-60288D01*
X92166Y-60382D01*
X92166Y-60483D01*
X92204Y-60577D01*
X92276Y-60649D01*
X92370Y-60688D01*
X92471Y-60688D01*
X92565Y-60649D01*
X92637Y-60577D01*
X92676Y-60484D01*
X92676Y-60382D01*
X92676Y-62327D01*
X92658Y-62370D01*
X92658Y-62471D01*
X92697Y-62565D01*
X92768Y-62637D01*
X92862Y-62676D01*
X92963Y-62676D01*
X93057Y-62637D01*
X93129Y-62565D01*
X93168Y-62472D01*
X93168Y-62370D01*
X93168Y-63449D01*
X93084Y-63484D01*
X93012Y-63556D01*
X92973Y-63649D01*
X92973Y-63751D01*
X93012Y-63845D01*
X93083Y-63916D01*
X93177Y-63955D01*
X93278Y-63955D01*
X93372Y-63917D01*
X93444Y-63845D01*
X93483Y-63751D01*
X93483Y-63650D01*
X93483Y-64354D01*
X93465Y-64397D01*
X93465Y-64499D01*
X93504Y-64593D01*
X93575Y-64664D01*
X93669Y-64703D01*
X93770Y-64703D01*
X93864Y-64665D01*
X93936Y-64593D01*
X93975Y-64499D01*
X93975Y-64398D01*
X93975Y-66319D01*
X93915Y-66319D01*
X93936Y-66271D01*
X93936Y-66169D01*
X93936Y-65402D01*
X93897Y-65308D01*
X93825Y-65236D01*
X93732Y-65197D01*
X93630Y-65197D01*
X93536Y-65236D01*
X93465Y-65308D01*
X93426Y-65401D01*
X93426Y-65503D01*
X93464Y-65597D01*
X93536Y-65668D01*
X93630Y-65707D01*
X93731Y-65707D01*
X93825Y-65669D01*
X93897Y-65597D01*
X93936Y-65503D01*
X93936Y-65402D01*
X93936Y-66169D01*
X93897Y-66076D01*
X93825Y-66004D01*
X93732Y-65965D01*
X93630Y-65965D01*
X93536Y-66004D01*
X93465Y-66075D01*
X93426Y-66169D01*
X93426Y-66270D01*
X93446Y-66319D01*
X93089Y-66319D01*
X93089Y-64398D01*
X93050Y-64304D01*
X92979Y-64232D01*
X92885Y-64193D01*
X92784Y-64193D01*
X92695Y-64230D01*
X92695Y-63709D01*
X92657Y-63615D01*
X92585Y-63543D01*
X92491Y-63504D01*
X92390Y-63504D01*
X92296Y-63543D01*
X92224Y-63615D01*
X92185Y-63708D01*
X92185Y-63810D01*
X92210Y-63869D01*
X92137Y-63839D01*
X92036Y-63839D01*
X91942Y-63878D01*
X91870Y-63949D01*
X91831Y-64043D01*
X91831Y-64144D01*
X91870Y-64238D01*
X91941Y-64310D01*
X92035Y-64349D01*
X92137Y-64349D01*
X92230Y-64310D01*
X92302Y-64239D01*
X92341Y-64145D01*
X92341Y-64043D01*
X92317Y-63984D01*
X92389Y-64014D01*
X92491Y-64014D01*
X92585Y-63976D01*
X92656Y-63904D01*
X92695Y-63810D01*
X92695Y-63709D01*
X92695Y-64230D01*
X92690Y-64232D01*
X92618Y-64304D01*
X92579Y-64397D01*
X92579Y-64499D01*
X92618Y-64593D01*
X92690Y-64664D01*
X92783Y-64703D01*
X92885Y-64703D01*
X92978Y-64665D01*
X93050Y-64593D01*
X93089Y-64499D01*
X93089Y-64398D01*
X93089Y-66319D01*
X92774Y-66319D01*
X92774Y-65303D01*
X92735Y-65210D01*
X92664Y-65138D01*
X92570Y-65099D01*
X92469Y-65099D01*
X92395Y-65129D01*
X92420Y-65070D01*
X92420Y-64969D01*
X92381Y-64875D01*
X92309Y-64803D01*
X92216Y-64764D01*
X92114Y-64764D01*
X92021Y-64803D01*
X91949Y-64875D01*
X91910Y-64968D01*
X91910Y-65070D01*
X91949Y-65163D01*
X92020Y-65235D01*
X92114Y-65274D01*
X92215Y-65274D01*
X92289Y-65244D01*
X92264Y-65303D01*
X92264Y-65404D01*
X92303Y-65498D01*
X92375Y-65570D01*
X92468Y-65609D01*
X92570Y-65609D01*
X92663Y-65570D01*
X92735Y-65498D01*
X92774Y-65405D01*
X92774Y-65303D01*
X92774Y-66319D01*
X92597Y-66319D01*
X92617Y-66271D01*
X92617Y-66169D01*
X92578Y-66076D01*
X92506Y-66004D01*
X92413Y-65965D01*
X92311Y-65965D01*
X92217Y-66004D01*
X92146Y-66075D01*
X92107Y-66169D01*
X92107Y-66270D01*
X92127Y-66319D01*
X91908Y-66319D01*
X91908Y-65323D01*
X91869Y-65229D01*
X91798Y-65157D01*
X91790Y-65154D01*
X91790Y-64614D01*
X91751Y-64521D01*
X91680Y-64449D01*
X91652Y-64437D01*
X91652Y-55382D01*
X91613Y-55288D01*
X91542Y-55217D01*
X91448Y-55178D01*
X91416Y-55178D01*
X91416Y-53906D01*
X91377Y-53812D01*
X91306Y-53740D01*
X91243Y-53714D01*
X91243Y-51797D01*
X91243Y-50797D01*
X91182Y-50648D01*
X91068Y-50534D01*
X90919Y-50473D01*
X90758Y-50472D01*
X90609Y-50534D01*
X90495Y-50648D01*
X90433Y-50797D01*
X90433Y-50958D01*
X90495Y-51107D01*
X90608Y-51221D01*
X90757Y-51282D01*
X90918Y-51283D01*
X91067Y-51221D01*
X91181Y-51107D01*
X91243Y-50958D01*
X91243Y-50797D01*
X91243Y-51797D01*
X91182Y-51648D01*
X91068Y-51534D01*
X90919Y-51473D01*
X90758Y-51472D01*
X90609Y-51534D01*
X90495Y-51648D01*
X90433Y-51797D01*
X90433Y-51958D01*
X90495Y-52107D01*
X90608Y-52221D01*
X90757Y-52282D01*
X90918Y-52283D01*
X91067Y-52221D01*
X91181Y-52107D01*
X91243Y-51958D01*
X91243Y-51797D01*
X91243Y-53714D01*
X91212Y-53701D01*
X91199Y-53701D01*
X91199Y-52488D01*
X91161Y-52395D01*
X91089Y-52323D01*
X90995Y-52284D01*
X90894Y-52284D01*
X90800Y-52323D01*
X90728Y-52394D01*
X90689Y-52488D01*
X90689Y-52589D01*
X90728Y-52683D01*
X90800Y-52755D01*
X90893Y-52794D01*
X90995Y-52794D01*
X91089Y-52755D01*
X91160Y-52684D01*
X91199Y-52590D01*
X91199Y-52488D01*
X91199Y-53701D01*
X91110Y-53701D01*
X91017Y-53740D01*
X90945Y-53812D01*
X90906Y-53905D01*
X90906Y-54007D01*
X90945Y-54100D01*
X91016Y-54172D01*
X91110Y-54211D01*
X91211Y-54211D01*
X91305Y-54172D01*
X91377Y-54101D01*
X91416Y-54007D01*
X91416Y-53906D01*
X91416Y-55178D01*
X91347Y-55178D01*
X91253Y-55216D01*
X91181Y-55288D01*
X91142Y-55382D01*
X91142Y-55483D01*
X91181Y-55577D01*
X91253Y-55649D01*
X91346Y-55688D01*
X91448Y-55688D01*
X91541Y-55649D01*
X91613Y-55577D01*
X91652Y-55484D01*
X91652Y-55382D01*
X91652Y-64437D01*
X91586Y-64410D01*
X91484Y-64410D01*
X91456Y-64422D01*
X91456Y-64002D01*
X91416Y-63906D01*
X91416Y-60559D01*
X91416Y-59063D01*
X91377Y-58969D01*
X91306Y-58898D01*
X91212Y-58859D01*
X91110Y-58859D01*
X91017Y-58897D01*
X90945Y-58969D01*
X90906Y-59063D01*
X90906Y-59164D01*
X90945Y-59258D01*
X91016Y-59330D01*
X91110Y-59369D01*
X91211Y-59369D01*
X91305Y-59330D01*
X91377Y-59258D01*
X91416Y-59165D01*
X91416Y-59063D01*
X91416Y-60559D01*
X91377Y-60465D01*
X91306Y-60394D01*
X91212Y-60355D01*
X91110Y-60355D01*
X91017Y-60393D01*
X90945Y-60465D01*
X90906Y-60559D01*
X90906Y-60660D01*
X90945Y-60754D01*
X91016Y-60826D01*
X91110Y-60865D01*
X91211Y-60865D01*
X91305Y-60826D01*
X91377Y-60754D01*
X91416Y-60661D01*
X91416Y-60559D01*
X91416Y-63906D01*
X91394Y-63853D01*
X91280Y-63739D01*
X91132Y-63677D01*
X90970Y-63677D01*
X90822Y-63739D01*
X90708Y-63852D01*
X90646Y-64001D01*
X90646Y-64162D01*
X90707Y-64311D01*
X90821Y-64425D01*
X90970Y-64487D01*
X91131Y-64487D01*
X91280Y-64426D01*
X91394Y-64312D01*
X91456Y-64163D01*
X91456Y-64002D01*
X91456Y-64422D01*
X91391Y-64449D01*
X91319Y-64520D01*
X91280Y-64614D01*
X91280Y-64715D01*
X91319Y-64809D01*
X91390Y-64881D01*
X91484Y-64920D01*
X91585Y-64920D01*
X91679Y-64881D01*
X91751Y-64809D01*
X91790Y-64716D01*
X91790Y-64614D01*
X91790Y-65154D01*
X91704Y-65119D01*
X91603Y-65118D01*
X91509Y-65157D01*
X91437Y-65229D01*
X91398Y-65323D01*
X91398Y-65424D01*
X91437Y-65518D01*
X91508Y-65590D01*
X91602Y-65628D01*
X91704Y-65629D01*
X91797Y-65590D01*
X91869Y-65518D01*
X91908Y-65424D01*
X91908Y-65323D01*
X91908Y-66319D01*
X91652Y-66319D01*
X91672Y-66271D01*
X91672Y-66169D01*
X91633Y-66076D01*
X91561Y-66004D01*
X91468Y-65965D01*
X91366Y-65965D01*
X91273Y-66004D01*
X91201Y-66075D01*
X91162Y-66169D01*
X91162Y-66270D01*
X91182Y-66319D01*
X90648Y-66319D01*
X90668Y-66271D01*
X90668Y-66169D01*
X90668Y-65323D01*
X90629Y-65229D01*
X90558Y-65157D01*
X90464Y-65119D01*
X90456Y-65119D01*
X90456Y-64002D01*
X90456Y-64002D01*
X90456Y-63361D01*
X90456Y-62761D01*
X90440Y-62723D01*
X90432Y-62715D01*
X90432Y-60559D01*
X90412Y-60512D01*
X90412Y-53906D01*
X90373Y-53812D01*
X90302Y-53740D01*
X90243Y-53716D01*
X90243Y-52157D01*
X90243Y-51557D01*
X90227Y-51518D01*
X90198Y-51488D01*
X90159Y-51472D01*
X90117Y-51472D01*
X89517Y-51472D01*
X89479Y-51488D01*
X89449Y-51518D01*
X89433Y-51556D01*
X89433Y-51598D01*
X89433Y-52198D01*
X89449Y-52237D01*
X89479Y-52266D01*
X89517Y-52282D01*
X89559Y-52282D01*
X90159Y-52282D01*
X90197Y-52267D01*
X90227Y-52237D01*
X90243Y-52198D01*
X90243Y-52157D01*
X90243Y-53716D01*
X90208Y-53701D01*
X90106Y-53701D01*
X90013Y-53740D01*
X89941Y-53812D01*
X89902Y-53905D01*
X89902Y-54007D01*
X89941Y-54100D01*
X90012Y-54172D01*
X90106Y-54211D01*
X90207Y-54211D01*
X90301Y-54172D01*
X90373Y-54101D01*
X90412Y-54007D01*
X90412Y-53906D01*
X90412Y-60512D01*
X90393Y-60465D01*
X90321Y-60394D01*
X90228Y-60355D01*
X90126Y-60355D01*
X90032Y-60393D01*
X89961Y-60465D01*
X89922Y-60559D01*
X89922Y-60660D01*
X89960Y-60754D01*
X90032Y-60826D01*
X90126Y-60865D01*
X90227Y-60865D01*
X90321Y-60826D01*
X90393Y-60754D01*
X90432Y-60661D01*
X90432Y-60559D01*
X90432Y-62715D01*
X90410Y-62693D01*
X90372Y-62677D01*
X90330Y-62677D01*
X89730Y-62677D01*
X89691Y-62693D01*
X89662Y-62723D01*
X89646Y-62761D01*
X89646Y-62803D01*
X89646Y-63403D01*
X89662Y-63442D01*
X89691Y-63471D01*
X89730Y-63487D01*
X89771Y-63487D01*
X90371Y-63487D01*
X90410Y-63471D01*
X90440Y-63442D01*
X90456Y-63403D01*
X90456Y-63361D01*
X90456Y-64002D01*
X90394Y-63853D01*
X90280Y-63739D01*
X90132Y-63677D01*
X89970Y-63677D01*
X89822Y-63739D01*
X89708Y-63852D01*
X89646Y-64001D01*
X89646Y-64162D01*
X89707Y-64311D01*
X89821Y-64425D01*
X89970Y-64487D01*
X90131Y-64487D01*
X90280Y-64426D01*
X90394Y-64312D01*
X90456Y-64163D01*
X90456Y-64002D01*
X90456Y-65119D01*
X90362Y-65118D01*
X90269Y-65157D01*
X90197Y-65229D01*
X90158Y-65323D01*
X90158Y-65424D01*
X90197Y-65518D01*
X90268Y-65590D01*
X90362Y-65628D01*
X90463Y-65629D01*
X90557Y-65590D01*
X90629Y-65518D01*
X90668Y-65424D01*
X90668Y-65323D01*
X90668Y-66169D01*
X90629Y-66076D01*
X90558Y-66004D01*
X90464Y-65965D01*
X90362Y-65965D01*
X90269Y-66004D01*
X90197Y-66075D01*
X90158Y-66169D01*
X90158Y-66270D01*
X90178Y-66319D01*
X89900Y-66319D01*
X89900Y-64634D01*
X89861Y-64540D01*
X89790Y-64468D01*
X89696Y-64430D01*
X89595Y-64429D01*
X89501Y-64468D01*
X89487Y-64482D01*
X89487Y-64201D01*
X89487Y-63276D01*
X89448Y-63182D01*
X89376Y-63110D01*
X89283Y-63071D01*
X89181Y-63071D01*
X89088Y-63110D01*
X89016Y-63182D01*
X88977Y-63275D01*
X88977Y-63377D01*
X89015Y-63471D01*
X89087Y-63542D01*
X89181Y-63581D01*
X89282Y-63581D01*
X89376Y-63543D01*
X89448Y-63471D01*
X89487Y-63377D01*
X89487Y-63276D01*
X89487Y-64201D01*
X89448Y-64107D01*
X89376Y-64035D01*
X89283Y-63997D01*
X89181Y-63996D01*
X89088Y-64035D01*
X89016Y-64107D01*
X88977Y-64201D01*
X88977Y-64302D01*
X89015Y-64396D01*
X89087Y-64468D01*
X89181Y-64506D01*
X89282Y-64507D01*
X89376Y-64468D01*
X89448Y-64396D01*
X89487Y-64302D01*
X89487Y-64201D01*
X89487Y-64482D01*
X89429Y-64540D01*
X89390Y-64634D01*
X89390Y-64735D01*
X89429Y-64829D01*
X89501Y-64901D01*
X89594Y-64939D01*
X89696Y-64940D01*
X89789Y-64901D01*
X89861Y-64829D01*
X89900Y-64735D01*
X89900Y-64634D01*
X89900Y-66319D01*
X89663Y-66319D01*
X89684Y-66271D01*
X89684Y-66169D01*
X89645Y-66076D01*
X89573Y-66004D01*
X89480Y-65965D01*
X89378Y-65965D01*
X89329Y-65985D01*
X89329Y-65205D01*
X89291Y-65111D01*
X89219Y-65039D01*
X89125Y-65000D01*
X89024Y-65000D01*
X88930Y-65039D01*
X88858Y-65111D01*
X88819Y-65204D01*
X88819Y-65306D01*
X88858Y-65400D01*
X88930Y-65471D01*
X89023Y-65510D01*
X89125Y-65510D01*
X89219Y-65472D01*
X89290Y-65400D01*
X89329Y-65306D01*
X89329Y-65205D01*
X89329Y-65985D01*
X89284Y-66004D01*
X89213Y-66075D01*
X89174Y-66169D01*
X89174Y-66270D01*
X89194Y-66319D01*
X88706Y-66319D01*
X88706Y-64949D01*
X88726Y-64940D01*
X88798Y-64869D01*
X88837Y-64775D01*
X88837Y-64673D01*
X88798Y-64580D01*
X88727Y-64508D01*
X88706Y-64499D01*
X88706Y-63023D01*
X88772Y-63090D01*
X88866Y-63128D01*
X88967Y-63129D01*
X89061Y-63090D01*
X89133Y-63018D01*
X89172Y-62924D01*
X89172Y-62823D01*
X89133Y-62729D01*
X89061Y-62657D01*
X88968Y-62619D01*
X88866Y-62618D01*
X88773Y-62657D01*
X88701Y-62729D01*
X88662Y-62823D01*
X88662Y-62839D01*
X88598Y-62776D01*
X88648Y-62755D01*
X88719Y-62684D01*
X88758Y-62590D01*
X88758Y-62488D01*
X88720Y-62395D01*
X88648Y-62323D01*
X88554Y-62284D01*
X88453Y-62284D01*
X88359Y-62323D01*
X88287Y-62394D01*
X88267Y-62444D01*
X88165Y-62343D01*
X88215Y-62322D01*
X88286Y-62250D01*
X88325Y-62157D01*
X88325Y-62055D01*
X88287Y-61962D01*
X88215Y-61890D01*
X88121Y-61851D01*
X88020Y-61851D01*
X87926Y-61889D01*
X87854Y-61961D01*
X87834Y-62011D01*
X87673Y-61850D01*
X87722Y-61830D01*
X87794Y-61758D01*
X87833Y-61665D01*
X87833Y-61563D01*
X87795Y-61469D01*
X87723Y-61398D01*
X87629Y-61359D01*
X87528Y-61359D01*
X87434Y-61397D01*
X87426Y-61405D01*
X87426Y-58686D01*
X89985Y-58686D01*
X89985Y-55880D01*
X89900Y-55880D01*
X89900Y-52488D01*
X89861Y-52395D01*
X89790Y-52323D01*
X89696Y-52284D01*
X89595Y-52284D01*
X89501Y-52323D01*
X89429Y-52394D01*
X89390Y-52488D01*
X89390Y-52589D01*
X89429Y-52683D01*
X89501Y-52755D01*
X89594Y-52794D01*
X89696Y-52794D01*
X89789Y-52755D01*
X89861Y-52684D01*
X89900Y-52590D01*
X89900Y-52488D01*
X89900Y-55880D01*
X88700Y-55880D01*
X88700Y-51797D01*
X88700Y-50797D01*
X88638Y-50648D01*
X88524Y-50534D01*
X88376Y-50473D01*
X88215Y-50472D01*
X88066Y-50534D01*
X87952Y-50648D01*
X87890Y-50797D01*
X87890Y-50958D01*
X87951Y-51107D01*
X88065Y-51221D01*
X88214Y-51282D01*
X88375Y-51283D01*
X88524Y-51221D01*
X88638Y-51107D01*
X88700Y-50958D01*
X88700Y-50797D01*
X88700Y-51797D01*
X88638Y-51648D01*
X88524Y-51534D01*
X88376Y-51473D01*
X88215Y-51472D01*
X88066Y-51534D01*
X87952Y-51648D01*
X87890Y-51797D01*
X87890Y-51958D01*
X87951Y-52107D01*
X88065Y-52221D01*
X88214Y-52282D01*
X88375Y-52283D01*
X88524Y-52221D01*
X88638Y-52107D01*
X88700Y-51958D01*
X88700Y-51797D01*
X88700Y-55880D01*
X88660Y-55880D01*
X88660Y-52764D01*
X88621Y-52670D01*
X88550Y-52598D01*
X88456Y-52560D01*
X88355Y-52559D01*
X88261Y-52598D01*
X88189Y-52670D01*
X88150Y-52764D01*
X88150Y-52865D01*
X88189Y-52959D01*
X88260Y-53031D01*
X88354Y-53069D01*
X88456Y-53070D01*
X88549Y-53031D01*
X88621Y-52959D01*
X88660Y-52865D01*
X88660Y-52764D01*
X88660Y-55880D01*
X87700Y-55880D01*
X87700Y-52157D01*
X87700Y-51557D01*
X87684Y-51518D01*
X87654Y-51488D01*
X87616Y-51472D01*
X87574Y-51472D01*
X86974Y-51472D01*
X86935Y-51488D01*
X86906Y-51518D01*
X86890Y-51556D01*
X86890Y-51598D01*
X86890Y-52198D01*
X86906Y-52237D01*
X86935Y-52266D01*
X86974Y-52282D01*
X87016Y-52282D01*
X87616Y-52282D01*
X87654Y-52267D01*
X87684Y-52237D01*
X87700Y-52198D01*
X87700Y-52157D01*
X87700Y-55880D01*
X86475Y-55880D01*
X86475Y-51130D01*
X86436Y-51036D01*
X86365Y-50965D01*
X86271Y-50926D01*
X86169Y-50926D01*
X86076Y-50964D01*
X86004Y-51036D01*
X85965Y-51130D01*
X85965Y-51231D01*
X86004Y-51325D01*
X86075Y-51397D01*
X86169Y-51436D01*
X86270Y-51436D01*
X86364Y-51397D01*
X86436Y-51325D01*
X86475Y-51232D01*
X86475Y-51130D01*
X86475Y-55880D01*
X85950Y-55880D01*
X85950Y-55757D01*
X85972Y-55766D01*
X86074Y-55766D01*
X86167Y-55728D01*
X86239Y-55656D01*
X86278Y-55562D01*
X86278Y-55461D01*
X86239Y-55367D01*
X86168Y-55295D01*
X86074Y-55256D01*
X85973Y-55256D01*
X85950Y-55266D01*
X85950Y-54814D01*
X85977Y-54842D01*
X86071Y-54880D01*
X86172Y-54881D01*
X86266Y-54842D01*
X86338Y-54770D01*
X86377Y-54676D01*
X86377Y-54575D01*
X86338Y-54481D01*
X86266Y-54409D01*
X86172Y-54371D01*
X86071Y-54370D01*
X85977Y-54409D01*
X85950Y-54437D01*
X85950Y-53083D01*
X85983Y-53003D01*
X85983Y-52902D01*
X85950Y-52821D01*
X85950Y-49828D01*
X86578Y-49828D01*
X86496Y-49882D01*
X86430Y-49981D01*
X86407Y-50098D01*
X86430Y-50215D01*
X86496Y-50314D01*
X86595Y-50380D01*
X86712Y-50403D01*
X95739Y-50403D01*
X97332Y-51996D01*
X97332Y-57944D01*
X97196Y-58080D01*
X96748Y-58080D01*
X96748Y-57068D01*
X96704Y-56960D01*
X96622Y-56878D01*
X96515Y-56834D01*
X96398Y-56833D01*
X96292Y-56877D01*
X96295Y-56869D01*
X96295Y-56753D01*
X96292Y-56743D01*
X96398Y-56788D01*
X96514Y-56788D01*
X96621Y-56743D01*
X96704Y-56661D01*
X96748Y-56554D01*
X96748Y-56438D01*
X96704Y-56330D01*
X96622Y-56248D01*
X96515Y-56204D01*
X96398Y-56204D01*
X96292Y-56248D01*
X96295Y-56239D01*
X96295Y-56123D01*
X96292Y-56114D01*
X96398Y-56158D01*
X96514Y-56158D01*
X96621Y-56113D01*
X96704Y-56031D01*
X96748Y-55924D01*
X96748Y-55808D01*
X96704Y-55700D01*
X96622Y-55618D01*
X96515Y-55574D01*
X96398Y-55574D01*
X96292Y-55618D01*
X96295Y-55609D01*
X96295Y-55493D01*
X96292Y-55484D01*
X96398Y-55528D01*
X96514Y-55528D01*
X96621Y-55483D01*
X96704Y-55401D01*
X96748Y-55294D01*
X96748Y-55178D01*
X96704Y-55071D01*
X96622Y-54988D01*
X96515Y-54944D01*
X96398Y-54944D01*
X96292Y-54988D01*
X96295Y-54979D01*
X96295Y-54863D01*
X96292Y-54854D01*
X96398Y-54898D01*
X96514Y-54898D01*
X96621Y-54853D01*
X96704Y-54771D01*
X96748Y-54664D01*
X96748Y-54548D01*
X96704Y-54441D01*
X96622Y-54358D01*
X96515Y-54314D01*
X96398Y-54314D01*
X96292Y-54358D01*
X96295Y-54349D01*
X96295Y-54233D01*
X96292Y-54224D01*
X96398Y-54268D01*
X96514Y-54268D01*
X96621Y-54224D01*
X96704Y-54142D01*
X96748Y-54034D01*
X96748Y-53918D01*
X96704Y-53811D01*
X96622Y-53728D01*
X96515Y-53684D01*
X96398Y-53684D01*
X96292Y-53728D01*
X96295Y-53719D01*
X96295Y-53603D01*
X96292Y-53594D01*
X96398Y-53638D01*
X96514Y-53638D01*
X96621Y-53594D01*
X96704Y-53512D01*
X96748Y-53404D01*
X96748Y-53288D01*
X96704Y-53181D01*
X96622Y-53099D01*
X96515Y-53054D01*
X96502Y-53054D01*
X96502Y-51840D01*
X96426Y-51656D01*
X96286Y-51516D01*
X96103Y-51440D01*
X95905Y-51440D01*
X95721Y-51515D01*
X95581Y-51656D01*
X95505Y-51839D01*
X95505Y-52037D01*
X95580Y-52221D01*
X95721Y-52361D01*
X95904Y-52437D01*
X96102Y-52437D01*
X96286Y-52362D01*
X96426Y-52221D01*
X96502Y-52038D01*
X96502Y-51840D01*
X96502Y-53054D01*
X96398Y-53054D01*
X96292Y-53098D01*
X96295Y-53089D01*
X96295Y-52973D01*
X96251Y-52866D01*
X96169Y-52784D01*
X96062Y-52739D01*
X95946Y-52739D01*
X95838Y-52783D01*
X95756Y-52865D01*
X95711Y-52973D01*
X95711Y-53089D01*
X95756Y-53196D01*
X95838Y-53278D01*
X95945Y-53323D01*
X96061Y-53323D01*
X96168Y-53279D01*
X96164Y-53288D01*
X96164Y-53404D01*
X96168Y-53413D01*
X96062Y-53369D01*
X95946Y-53369D01*
X95838Y-53413D01*
X95818Y-53433D01*
X95779Y-53338D01*
X95697Y-53256D01*
X95589Y-53211D01*
X95473Y-53211D01*
X95367Y-53255D01*
X95370Y-53247D01*
X95370Y-53131D01*
X95361Y-53109D01*
X95424Y-53109D01*
X95518Y-53070D01*
X95590Y-52998D01*
X95628Y-52905D01*
X95629Y-52803D01*
X95590Y-52710D01*
X95518Y-52638D01*
X95424Y-52599D01*
X95323Y-52599D01*
X95229Y-52638D01*
X95157Y-52709D01*
X95119Y-52803D01*
X95118Y-52897D01*
X95020Y-52896D01*
X94913Y-52941D01*
X94831Y-53023D01*
X94786Y-53130D01*
X94786Y-53246D01*
X94831Y-53354D01*
X94913Y-53436D01*
X95020Y-53480D01*
X95136Y-53481D01*
X95243Y-53437D01*
X95239Y-53445D01*
X95239Y-53561D01*
X95243Y-53571D01*
X95137Y-53526D01*
X95020Y-53526D01*
X94913Y-53571D01*
X94831Y-53653D01*
X94786Y-53760D01*
X94786Y-53876D01*
X94831Y-53984D01*
X94850Y-54003D01*
X94783Y-54003D01*
X94783Y-54003D01*
X94773Y-54005D01*
X94733Y-54013D01*
X94691Y-54041D01*
X94691Y-54041D01*
X94565Y-54167D01*
X94566Y-54083D01*
X94527Y-53989D01*
X94455Y-53917D01*
X94428Y-53906D01*
X94428Y-51622D01*
X94389Y-51528D01*
X94317Y-51457D01*
X94224Y-51418D01*
X94122Y-51418D01*
X94028Y-51456D01*
X93957Y-51528D01*
X93918Y-51622D01*
X93918Y-51723D01*
X93956Y-51817D01*
X94028Y-51889D01*
X94122Y-51928D01*
X94223Y-51928D01*
X94317Y-51889D01*
X94389Y-51817D01*
X94428Y-51724D01*
X94428Y-51622D01*
X94428Y-53906D01*
X94361Y-53878D01*
X94260Y-53878D01*
X94166Y-53917D01*
X94114Y-53970D01*
X94061Y-53917D01*
X94054Y-53914D01*
X94054Y-52429D01*
X94015Y-52336D01*
X93943Y-52264D01*
X93850Y-52225D01*
X93748Y-52225D01*
X93654Y-52264D01*
X93583Y-52335D01*
X93544Y-52429D01*
X93544Y-52530D01*
X93582Y-52624D01*
X93654Y-52696D01*
X93748Y-52735D01*
X93849Y-52735D01*
X93943Y-52696D01*
X94015Y-52624D01*
X94054Y-52531D01*
X94054Y-52429D01*
X94054Y-53914D01*
X93968Y-53878D01*
X93866Y-53878D01*
X93773Y-53917D01*
X93701Y-53989D01*
X93662Y-54082D01*
X93662Y-54184D01*
X93701Y-54278D01*
X93772Y-54349D01*
X93866Y-54388D01*
X93967Y-54388D01*
X93982Y-54382D01*
X94022Y-54422D01*
X94022Y-54422D01*
X94081Y-54481D01*
X94123Y-54509D01*
X94173Y-54519D01*
X94527Y-54519D01*
X94577Y-54509D01*
X94619Y-54481D01*
X94837Y-54263D01*
X94850Y-54263D01*
X94831Y-54283D01*
X94786Y-54390D01*
X94786Y-54506D01*
X94831Y-54614D01*
X94913Y-54696D01*
X95020Y-54740D01*
X95136Y-54740D01*
X95243Y-54696D01*
X95239Y-54705D01*
X95239Y-54821D01*
X95243Y-54830D01*
X95137Y-54786D01*
X95020Y-54786D01*
X94913Y-54831D01*
X94831Y-54913D01*
X94786Y-55020D01*
X94786Y-55136D01*
X94831Y-55243D01*
X94913Y-55326D01*
X95020Y-55370D01*
X95136Y-55370D01*
X95243Y-55326D01*
X95239Y-55335D01*
X95239Y-55451D01*
X95243Y-55460D01*
X95137Y-55416D01*
X95020Y-55416D01*
X94913Y-55460D01*
X94831Y-55543D01*
X94786Y-55650D01*
X94786Y-55766D01*
X94831Y-55873D01*
X94859Y-55902D01*
X94851Y-55903D01*
X94834Y-55914D01*
X94809Y-55931D01*
X94809Y-55931D01*
X94752Y-55988D01*
X94724Y-55918D01*
X94652Y-55846D01*
X94558Y-55808D01*
X94457Y-55807D01*
X94363Y-55846D01*
X94291Y-55918D01*
X94252Y-56012D01*
X94252Y-56113D01*
X94291Y-56207D01*
X94324Y-56240D01*
X94291Y-56272D01*
X94252Y-56366D01*
X94252Y-56467D01*
X94291Y-56561D01*
X94363Y-56633D01*
X94456Y-56672D01*
X94558Y-56672D01*
X94652Y-56633D01*
X94723Y-56561D01*
X94762Y-56468D01*
X94762Y-56366D01*
X94756Y-56352D01*
X94786Y-56322D01*
X94786Y-56396D01*
X94831Y-56503D01*
X94913Y-56585D01*
X95020Y-56630D01*
X95136Y-56630D01*
X95243Y-56586D01*
X95239Y-56595D01*
X95239Y-56711D01*
X95243Y-56720D01*
X95137Y-56676D01*
X95020Y-56676D01*
X94913Y-56720D01*
X94831Y-56802D01*
X94786Y-56910D01*
X94786Y-57026D01*
X94831Y-57133D01*
X94913Y-57215D01*
X95020Y-57260D01*
X95136Y-57260D01*
X95243Y-57216D01*
X95239Y-57225D01*
X95239Y-57341D01*
X95243Y-57350D01*
X95137Y-57306D01*
X95020Y-57306D01*
X94913Y-57350D01*
X94831Y-57432D01*
X94786Y-57540D01*
X94786Y-57656D01*
X94831Y-57763D01*
X94913Y-57845D01*
X95020Y-57890D01*
X95136Y-57890D01*
X95243Y-57846D01*
X95326Y-57764D01*
X95370Y-57656D01*
X95370Y-57540D01*
X95366Y-57531D01*
X95473Y-57575D01*
X95589Y-57575D01*
X95696Y-57531D01*
X95716Y-57510D01*
X95756Y-57606D01*
X95838Y-57688D01*
X95945Y-57732D01*
X96061Y-57733D01*
X96169Y-57688D01*
X96251Y-57606D01*
X96295Y-57499D01*
X96295Y-57383D01*
X96292Y-57373D01*
X96398Y-57417D01*
X96514Y-57418D01*
X96621Y-57373D01*
X96704Y-57291D01*
X96748Y-57184D01*
X96748Y-57068D01*
X96748Y-58080D01*
X96583Y-58080D01*
X96357Y-57855D01*
X96258Y-57789D01*
X96239Y-57785D01*
X96141Y-57765D01*
X96141Y-57765D01*
X96003Y-57765D01*
X95887Y-57789D01*
X95788Y-57855D01*
X95788Y-57855D01*
X95462Y-58180D01*
X95294Y-58012D01*
X95195Y-57946D01*
X95078Y-57923D01*
X94962Y-57946D01*
X94863Y-58012D01*
X94796Y-58111D01*
X94773Y-58228D01*
X94796Y-58345D01*
X94863Y-58444D01*
X95178Y-58758D01*
X95178Y-58758D01*
X95276Y-58825D01*
X95393Y-58848D01*
X95393Y-58848D01*
X95393Y-58848D01*
X95531Y-58848D01*
X95531Y-58848D01*
X95531Y-58848D01*
X95628Y-58828D01*
X95648Y-58825D01*
X95648Y-58825D01*
X95747Y-58758D01*
X96072Y-58433D01*
X96241Y-58601D01*
X96241Y-58601D01*
X96339Y-58667D01*
X96456Y-58690D01*
X96456Y-58690D01*
X96456Y-58690D01*
X97208Y-58690D01*
X97382Y-58865D01*
X97382Y-64166D01*
X97382Y-64166D01*
G37*
X97382Y-64166D02*
X97282Y-64266D01*
X97282Y-63768D01*
X97243Y-63674D01*
X97172Y-63602D01*
X97078Y-63563D01*
X96977Y-63563D01*
X96883Y-63602D01*
X96811Y-63674D01*
X96772Y-63767D01*
X96772Y-63869D01*
X96811Y-63963D01*
X96882Y-64034D01*
X96976Y-64073D01*
X97078Y-64073D01*
X97171Y-64035D01*
X97243Y-63963D01*
X97282Y-63869D01*
X97282Y-63768D01*
X97282Y-64266D01*
X96748Y-64800D01*
X96748Y-63367D01*
X96704Y-63260D01*
X96622Y-63177D01*
X96515Y-63133D01*
X96398Y-63133D01*
X96292Y-63177D01*
X96295Y-63168D01*
X96295Y-63052D01*
X96292Y-63043D01*
X96398Y-63087D01*
X96514Y-63087D01*
X96621Y-63042D01*
X96704Y-62960D01*
X96748Y-62853D01*
X96748Y-62737D01*
X96704Y-62630D01*
X96622Y-62547D01*
X96515Y-62503D01*
X96398Y-62503D01*
X96292Y-62547D01*
X96295Y-62538D01*
X96295Y-62422D01*
X96292Y-62413D01*
X96398Y-62457D01*
X96514Y-62457D01*
X96621Y-62413D01*
X96704Y-62330D01*
X96748Y-62223D01*
X96748Y-62107D01*
X96704Y-62000D01*
X96622Y-61917D01*
X96515Y-61873D01*
X96398Y-61873D01*
X96292Y-61917D01*
X96295Y-61908D01*
X96295Y-61792D01*
X96292Y-61783D01*
X96398Y-61827D01*
X96514Y-61827D01*
X96621Y-61783D01*
X96704Y-61701D01*
X96748Y-61593D01*
X96748Y-61477D01*
X96704Y-61370D01*
X96622Y-61288D01*
X96515Y-61243D01*
X96398Y-61243D01*
X96292Y-61287D01*
X96295Y-61278D01*
X96295Y-61162D01*
X96292Y-61153D01*
X96398Y-61197D01*
X96514Y-61197D01*
X96621Y-61153D01*
X96704Y-61071D01*
X96748Y-60963D01*
X96748Y-60847D01*
X96704Y-60740D01*
X96622Y-60658D01*
X96515Y-60613D01*
X96398Y-60613D01*
X96292Y-60657D01*
X96295Y-60648D01*
X96295Y-60532D01*
X96292Y-60523D01*
X96398Y-60567D01*
X96514Y-60567D01*
X96621Y-60523D01*
X96704Y-60441D01*
X96748Y-60333D01*
X96748Y-60217D01*
X96704Y-60110D01*
X96622Y-60028D01*
X96515Y-59983D01*
X96398Y-59983D01*
X96292Y-60027D01*
X96295Y-60018D01*
X96295Y-59902D01*
X96292Y-59893D01*
X96398Y-59937D01*
X96514Y-59937D01*
X96621Y-59893D01*
X96704Y-59811D01*
X96748Y-59704D01*
X96748Y-59587D01*
X96704Y-59480D01*
X96622Y-59398D01*
X96515Y-59353D01*
X96398Y-59353D01*
X96292Y-59397D01*
X96295Y-59389D01*
X96295Y-59272D01*
X96292Y-59263D01*
X96398Y-59307D01*
X96514Y-59307D01*
X96621Y-59263D01*
X96704Y-59181D01*
X96748Y-59074D01*
X96748Y-58957D01*
X96704Y-58850D01*
X96622Y-58768D01*
X96515Y-58723D01*
X96398Y-58723D01*
X96291Y-58768D01*
X96209Y-58850D01*
X96164Y-58957D01*
X96164Y-59073D01*
X96168Y-59082D01*
X96062Y-59038D01*
X95946Y-59038D01*
X95838Y-59083D01*
X95818Y-59103D01*
X95779Y-59008D01*
X95697Y-58925D01*
X95589Y-58881D01*
X95473Y-58881D01*
X95366Y-58925D01*
X95284Y-59007D01*
X95239Y-59114D01*
X95239Y-59231D01*
X95243Y-59240D01*
X95137Y-59196D01*
X95020Y-59196D01*
X94913Y-59240D01*
X94831Y-59322D01*
X94786Y-59429D01*
X94786Y-59546D01*
X94831Y-59653D01*
X94913Y-59735D01*
X95020Y-59780D01*
X95136Y-59780D01*
X95243Y-59736D01*
X95239Y-59744D01*
X95239Y-59860D01*
X95243Y-59870D01*
X95137Y-59826D01*
X95020Y-59826D01*
X94913Y-59870D01*
X94831Y-59952D01*
X94786Y-60059D01*
X94786Y-60175D01*
X94831Y-60283D01*
X94872Y-60325D01*
X94849Y-60341D01*
X94849Y-60341D01*
X94786Y-60403D01*
X94763Y-60347D01*
X94691Y-60276D01*
X94684Y-60272D01*
X94684Y-59752D01*
X94645Y-59658D01*
X94573Y-59587D01*
X94507Y-59559D01*
X94507Y-57843D01*
X94468Y-57749D01*
X94396Y-57677D01*
X94302Y-57638D01*
X94201Y-57638D01*
X94107Y-57677D01*
X94093Y-57691D01*
X94093Y-57055D01*
X94054Y-56962D01*
X93995Y-56902D01*
X93995Y-54713D01*
X93956Y-54619D01*
X93884Y-54547D01*
X93791Y-54508D01*
X93689Y-54508D01*
X93595Y-54547D01*
X93524Y-54619D01*
X93503Y-54669D01*
X93503Y-54634D01*
X93464Y-54540D01*
X93392Y-54468D01*
X93298Y-54430D01*
X93243Y-54430D01*
X93243Y-51797D01*
X93243Y-50797D01*
X93182Y-50648D01*
X93068Y-50534D01*
X92919Y-50473D01*
X92758Y-50472D01*
X92609Y-50534D01*
X92495Y-50648D01*
X92433Y-50797D01*
X92433Y-50958D01*
X92495Y-51107D01*
X92608Y-51221D01*
X92757Y-51282D01*
X92918Y-51283D01*
X93067Y-51221D01*
X93181Y-51107D01*
X93243Y-50958D01*
X93243Y-50797D01*
X93243Y-51797D01*
X93182Y-51648D01*
X93068Y-51534D01*
X92919Y-51473D01*
X92758Y-51472D01*
X92609Y-51534D01*
X92495Y-51648D01*
X92433Y-51797D01*
X92433Y-51958D01*
X92495Y-52107D01*
X92608Y-52221D01*
X92757Y-52282D01*
X92918Y-52283D01*
X93067Y-52221D01*
X93181Y-52107D01*
X93243Y-51958D01*
X93243Y-51797D01*
X93243Y-54430D01*
X93197Y-54429D01*
X93103Y-54468D01*
X93031Y-54540D01*
X92993Y-54634D01*
X92992Y-54735D01*
X93031Y-54829D01*
X93103Y-54901D01*
X93197Y-54939D01*
X93298Y-54940D01*
X93392Y-54901D01*
X93464Y-54829D01*
X93485Y-54778D01*
X93485Y-54814D01*
X93523Y-54908D01*
X93595Y-54979D01*
X93689Y-55018D01*
X93790Y-55018D01*
X93884Y-54980D01*
X93956Y-54908D01*
X93995Y-54814D01*
X93995Y-54713D01*
X93995Y-56902D01*
X93983Y-56890D01*
X93889Y-56851D01*
X93788Y-56851D01*
X93694Y-56889D01*
X93631Y-56952D01*
X93569Y-56890D01*
X93476Y-56851D01*
X93374Y-56851D01*
X93280Y-56889D01*
X93218Y-56952D01*
X93156Y-56890D01*
X93062Y-56851D01*
X92961Y-56851D01*
X92867Y-56889D01*
X92795Y-56961D01*
X92794Y-56964D01*
X92794Y-55225D01*
X92755Y-55131D01*
X92684Y-55059D01*
X92590Y-55020D01*
X92577Y-55020D01*
X92577Y-52488D01*
X92539Y-52395D01*
X92467Y-52323D01*
X92373Y-52284D01*
X92272Y-52284D01*
X92243Y-52296D01*
X92243Y-51797D01*
X92243Y-50797D01*
X92182Y-50648D01*
X92068Y-50534D01*
X91919Y-50473D01*
X91758Y-50472D01*
X91609Y-50534D01*
X91495Y-50648D01*
X91433Y-50797D01*
X91433Y-50958D01*
X91495Y-51107D01*
X91608Y-51221D01*
X91757Y-51282D01*
X91918Y-51283D01*
X92067Y-51221D01*
X92181Y-51107D01*
X92243Y-50958D01*
X92243Y-50797D01*
X92243Y-51797D01*
X92182Y-51648D01*
X92068Y-51534D01*
X91919Y-51473D01*
X91758Y-51472D01*
X91609Y-51534D01*
X91495Y-51648D01*
X91433Y-51797D01*
X91433Y-51958D01*
X91495Y-52107D01*
X91608Y-52221D01*
X91757Y-52282D01*
X91918Y-52283D01*
X92067Y-52221D01*
X92181Y-52107D01*
X92243Y-51958D01*
X92243Y-51797D01*
X92243Y-52296D01*
X92178Y-52323D01*
X92106Y-52394D01*
X92067Y-52488D01*
X92067Y-52589D01*
X92106Y-52683D01*
X92178Y-52755D01*
X92271Y-52794D01*
X92373Y-52794D01*
X92467Y-52755D01*
X92538Y-52684D01*
X92577Y-52590D01*
X92577Y-52488D01*
X92577Y-55020D01*
X92488Y-55020D01*
X92395Y-55059D01*
X92323Y-55130D01*
X92302Y-55181D01*
X92302Y-54004D01*
X92263Y-53910D01*
X92191Y-53839D01*
X92098Y-53800D01*
X91996Y-53800D01*
X91902Y-53838D01*
X91831Y-53910D01*
X91792Y-54004D01*
X91792Y-54105D01*
X91830Y-54199D01*
X91902Y-54271D01*
X91996Y-54310D01*
X92097Y-54310D01*
X92191Y-54271D01*
X92263Y-54199D01*
X92302Y-54106D01*
X92302Y-54004D01*
X92302Y-55181D01*
X92284Y-55224D01*
X92284Y-55326D01*
X92323Y-55419D01*
X92394Y-55491D01*
X92488Y-55530D01*
X92589Y-55530D01*
X92683Y-55491D01*
X92755Y-55420D01*
X92794Y-55326D01*
X92794Y-55225D01*
X92794Y-56964D01*
X92756Y-57055D01*
X92756Y-57156D01*
X92795Y-57250D01*
X92867Y-57322D01*
X92960Y-57361D01*
X93062Y-57361D01*
X93156Y-57322D01*
X93218Y-57260D01*
X93280Y-57322D01*
X93374Y-57361D01*
X93475Y-57361D01*
X93569Y-57322D01*
X93631Y-57260D01*
X93693Y-57322D01*
X93787Y-57361D01*
X93889Y-57361D01*
X93982Y-57322D01*
X94054Y-57250D01*
X94093Y-57157D01*
X94093Y-57055D01*
X94093Y-57691D01*
X94083Y-57701D01*
X94054Y-57631D01*
X93983Y-57559D01*
X93889Y-57520D01*
X93788Y-57520D01*
X93694Y-57559D01*
X93631Y-57621D01*
X93569Y-57559D01*
X93476Y-57520D01*
X93374Y-57520D01*
X93280Y-57559D01*
X93209Y-57630D01*
X93170Y-57724D01*
X93170Y-57826D01*
X93208Y-57919D01*
X93280Y-57991D01*
X93374Y-58030D01*
X93475Y-58030D01*
X93569Y-57991D01*
X93631Y-57929D01*
X93693Y-57991D01*
X93787Y-58030D01*
X93889Y-58030D01*
X93982Y-57991D01*
X94006Y-57968D01*
X94035Y-58037D01*
X94107Y-58109D01*
X94201Y-58148D01*
X94302Y-58148D01*
X94396Y-58110D01*
X94468Y-58038D01*
X94506Y-57944D01*
X94507Y-57843D01*
X94507Y-59559D01*
X94480Y-59548D01*
X94378Y-59548D01*
X94284Y-59586D01*
X94213Y-59658D01*
X94174Y-59752D01*
X94174Y-59853D01*
X94212Y-59947D01*
X94284Y-60019D01*
X94378Y-60058D01*
X94479Y-60058D01*
X94573Y-60019D01*
X94645Y-59947D01*
X94684Y-59854D01*
X94684Y-59752D01*
X94684Y-60272D01*
X94598Y-60237D01*
X94496Y-60237D01*
X94402Y-60275D01*
X94331Y-60347D01*
X94292Y-60441D01*
X94292Y-60542D01*
X94330Y-60636D01*
X94402Y-60708D01*
X94458Y-60731D01*
X94394Y-60795D01*
X94257Y-60795D01*
X94251Y-60780D01*
X94180Y-60709D01*
X94086Y-60670D01*
X93984Y-60670D01*
X93891Y-60708D01*
X93819Y-60780D01*
X93780Y-60874D01*
X93780Y-60975D01*
X93819Y-61069D01*
X93890Y-61141D01*
X93984Y-61180D01*
X94085Y-61180D01*
X94179Y-61141D01*
X94251Y-61069D01*
X94257Y-61055D01*
X94448Y-61055D01*
X94498Y-61045D01*
X94540Y-61017D01*
X94786Y-60771D01*
X94786Y-60805D01*
X94831Y-60913D01*
X94913Y-60995D01*
X95020Y-61039D01*
X95136Y-61040D01*
X95243Y-60996D01*
X95239Y-61004D01*
X95239Y-61120D01*
X95243Y-61130D01*
X95137Y-61085D01*
X95020Y-61085D01*
X94913Y-61130D01*
X94831Y-61212D01*
X94786Y-61319D01*
X94786Y-61435D01*
X94831Y-61543D01*
X94913Y-61625D01*
X95020Y-61669D01*
X95136Y-61670D01*
X95243Y-61625D01*
X95239Y-61634D01*
X95239Y-61750D01*
X95243Y-61760D01*
X95137Y-61715D01*
X95020Y-61715D01*
X94913Y-61760D01*
X94831Y-61842D01*
X94786Y-61949D01*
X94786Y-62065D01*
X94831Y-62173D01*
X94913Y-62255D01*
X95020Y-62299D01*
X95136Y-62299D01*
X95243Y-62255D01*
X95239Y-62264D01*
X95239Y-62380D01*
X95243Y-62389D01*
X95137Y-62345D01*
X95020Y-62345D01*
X94913Y-62390D01*
X94831Y-62472D01*
X94786Y-62579D01*
X94786Y-62695D01*
X94831Y-62802D01*
X94913Y-62885D01*
X95020Y-62929D01*
X95136Y-62929D01*
X95243Y-62885D01*
X95239Y-62894D01*
X95239Y-63010D01*
X95243Y-63019D01*
X95137Y-62975D01*
X95020Y-62975D01*
X94913Y-63020D01*
X94831Y-63102D01*
X94786Y-63209D01*
X94786Y-63325D01*
X94831Y-63432D01*
X94913Y-63515D01*
X95020Y-63559D01*
X95136Y-63559D01*
X95243Y-63515D01*
X95239Y-63524D01*
X95239Y-63640D01*
X95248Y-63662D01*
X95244Y-63662D01*
X95151Y-63701D01*
X95079Y-63772D01*
X95078Y-63773D01*
X95065Y-63760D01*
X94972Y-63721D01*
X94870Y-63721D01*
X94777Y-63760D01*
X94713Y-63823D01*
X94743Y-63751D01*
X94743Y-63650D01*
X94704Y-63556D01*
X94684Y-63536D01*
X94684Y-61268D01*
X94645Y-61174D01*
X94573Y-61102D01*
X94480Y-61063D01*
X94378Y-61063D01*
X94284Y-61102D01*
X94213Y-61174D01*
X94174Y-61267D01*
X94174Y-61369D01*
X94212Y-61463D01*
X94284Y-61534D01*
X94378Y-61573D01*
X94479Y-61573D01*
X94573Y-61535D01*
X94645Y-61463D01*
X94684Y-61369D01*
X94684Y-61268D01*
X94684Y-63536D01*
X94632Y-63484D01*
X94539Y-63445D01*
X94437Y-63445D01*
X94343Y-63484D01*
X94272Y-63556D01*
X94233Y-63649D01*
X94233Y-63751D01*
X94271Y-63845D01*
X94343Y-63916D01*
X94437Y-63955D01*
X94538Y-63955D01*
X94632Y-63917D01*
X94696Y-63853D01*
X94666Y-63925D01*
X94666Y-64026D01*
X94704Y-64120D01*
X94776Y-64192D01*
X94870Y-64231D01*
X94971Y-64231D01*
X95065Y-64192D01*
X95137Y-64121D01*
X95137Y-64120D01*
X95150Y-64133D01*
X95244Y-64172D01*
X95345Y-64172D01*
X95439Y-64133D01*
X95511Y-64061D01*
X95550Y-63968D01*
X95550Y-63874D01*
X95589Y-63874D01*
X95696Y-63830D01*
X95778Y-63748D01*
X95823Y-63641D01*
X95823Y-63524D01*
X95779Y-63417D01*
X95697Y-63335D01*
X95589Y-63290D01*
X95473Y-63290D01*
X95367Y-63334D01*
X95370Y-63326D01*
X95370Y-63209D01*
X95366Y-63200D01*
X95473Y-63244D01*
X95589Y-63244D01*
X95696Y-63200D01*
X95716Y-63180D01*
X95756Y-63275D01*
X95838Y-63357D01*
X95945Y-63402D01*
X96061Y-63402D01*
X96168Y-63358D01*
X96164Y-63366D01*
X96164Y-63483D01*
X96208Y-63590D01*
X96291Y-63672D01*
X96398Y-63717D01*
X96514Y-63717D01*
X96621Y-63672D01*
X96704Y-63590D01*
X96748Y-63483D01*
X96748Y-63367D01*
X96748Y-64800D01*
X96502Y-65046D01*
X96502Y-64576D01*
X96426Y-64393D01*
X96286Y-64252D01*
X96174Y-64205D01*
X96239Y-64140D01*
X96278Y-64047D01*
X96278Y-63945D01*
X96239Y-63851D01*
X96168Y-63780D01*
X96074Y-63741D01*
X95973Y-63741D01*
X95879Y-63779D01*
X95807Y-63851D01*
X95768Y-63945D01*
X95768Y-64046D01*
X95807Y-64140D01*
X95861Y-64194D01*
X95721Y-64252D01*
X95581Y-64392D01*
X95505Y-64575D01*
X95505Y-64773D01*
X95580Y-64957D01*
X95721Y-65097D01*
X95904Y-65173D01*
X96102Y-65173D01*
X96286Y-65098D01*
X96426Y-64958D01*
X96502Y-64774D01*
X96502Y-64576D01*
X96502Y-65046D01*
X95747Y-65801D01*
X95747Y-65402D01*
X95708Y-65308D01*
X95636Y-65236D01*
X95543Y-65197D01*
X95441Y-65197D01*
X95347Y-65236D01*
X95276Y-65308D01*
X95237Y-65401D01*
X95237Y-65503D01*
X95275Y-65597D01*
X95347Y-65668D01*
X95441Y-65707D01*
X95542Y-65707D01*
X95636Y-65669D01*
X95708Y-65597D01*
X95747Y-65503D01*
X95747Y-65402D01*
X95747Y-65801D01*
X95402Y-66146D01*
X95373Y-66076D01*
X95302Y-66004D01*
X95208Y-65965D01*
X95106Y-65965D01*
X95013Y-66004D01*
X94941Y-66075D01*
X94940Y-66079D01*
X94940Y-64457D01*
X94901Y-64363D01*
X94829Y-64291D01*
X94735Y-64252D01*
X94634Y-64252D01*
X94540Y-64291D01*
X94468Y-64363D01*
X94430Y-64456D01*
X94429Y-64558D01*
X94468Y-64652D01*
X94540Y-64723D01*
X94634Y-64762D01*
X94735Y-64762D01*
X94829Y-64724D01*
X94901Y-64652D01*
X94939Y-64558D01*
X94940Y-64457D01*
X94940Y-66079D01*
X94902Y-66169D01*
X94902Y-66270D01*
X94922Y-66319D01*
X94211Y-66319D01*
X94211Y-61642D01*
X94172Y-61548D01*
X94101Y-61476D01*
X94007Y-61437D01*
X93906Y-61437D01*
X93812Y-61476D01*
X93740Y-61548D01*
X93701Y-61641D01*
X93701Y-61743D01*
X93740Y-61837D01*
X93812Y-61908D01*
X93905Y-61947D01*
X94007Y-61947D01*
X94100Y-61909D01*
X94172Y-61837D01*
X94211Y-61743D01*
X94211Y-61642D01*
X94211Y-66319D01*
X94172Y-66319D01*
X94172Y-63650D01*
X94133Y-63556D01*
X94061Y-63484D01*
X93968Y-63445D01*
X93866Y-63445D01*
X93773Y-63484D01*
X93701Y-63556D01*
X93662Y-63649D01*
X93662Y-63751D01*
X93701Y-63845D01*
X93772Y-63916D01*
X93866Y-63955D01*
X93967Y-63955D01*
X94061Y-63917D01*
X94133Y-63845D01*
X94172Y-63751D01*
X94172Y-63650D01*
X94172Y-66319D01*
X93975Y-66319D01*
X93975Y-64398D01*
X93936Y-64304D01*
X93865Y-64232D01*
X93771Y-64193D01*
X93669Y-64193D01*
X93640Y-64205D01*
X93640Y-59673D01*
X93602Y-59580D01*
X93530Y-59508D01*
X93436Y-59469D01*
X93335Y-59469D01*
X93241Y-59508D01*
X93169Y-59579D01*
X93130Y-59673D01*
X93130Y-59774D01*
X93169Y-59868D01*
X93241Y-59940D01*
X93334Y-59979D01*
X93436Y-59979D01*
X93530Y-59940D01*
X93601Y-59869D01*
X93640Y-59775D01*
X93640Y-59673D01*
X93640Y-64205D01*
X93576Y-64232D01*
X93504Y-64304D01*
X93483Y-64354D01*
X93483Y-63650D01*
X93444Y-63556D01*
X93372Y-63484D01*
X93279Y-63445D01*
X93177Y-63445D01*
X93168Y-63449D01*
X93168Y-62370D01*
X93129Y-62277D01*
X93058Y-62205D01*
X92964Y-62166D01*
X92862Y-62166D01*
X92769Y-62204D01*
X92697Y-62276D01*
X92676Y-62327D01*
X92676Y-60382D01*
X92637Y-60288D01*
X92565Y-60217D01*
X92472Y-60178D01*
X92370Y-60178D01*
X92277Y-60216D01*
X92205Y-60288D01*
X92166Y-60382D01*
X92166Y-60483D01*
X92204Y-60577D01*
X92276Y-60649D01*
X92370Y-60688D01*
X92471Y-60688D01*
X92565Y-60649D01*
X92637Y-60577D01*
X92676Y-60484D01*
X92676Y-60382D01*
X92676Y-62327D01*
X92658Y-62370D01*
X92658Y-62471D01*
X92697Y-62565D01*
X92768Y-62637D01*
X92862Y-62676D01*
X92963Y-62676D01*
X93057Y-62637D01*
X93129Y-62565D01*
X93168Y-62472D01*
X93168Y-62370D01*
X93168Y-63449D01*
X93084Y-63484D01*
X93012Y-63556D01*
X92973Y-63649D01*
X92973Y-63751D01*
X93012Y-63845D01*
X93083Y-63916D01*
X93177Y-63955D01*
X93278Y-63955D01*
X93372Y-63917D01*
X93444Y-63845D01*
X93483Y-63751D01*
X93483Y-63650D01*
X93483Y-64354D01*
X93465Y-64397D01*
X93465Y-64499D01*
X93504Y-64593D01*
X93575Y-64664D01*
X93669Y-64703D01*
X93770Y-64703D01*
X93864Y-64665D01*
X93936Y-64593D01*
X93975Y-64499D01*
X93975Y-64398D01*
X93975Y-66319D01*
X93915Y-66319D01*
X93936Y-66271D01*
X93936Y-66169D01*
X93936Y-65402D01*
X93897Y-65308D01*
X93825Y-65236D01*
X93732Y-65197D01*
X93630Y-65197D01*
X93536Y-65236D01*
X93465Y-65308D01*
X93426Y-65401D01*
X93426Y-65503D01*
X93464Y-65597D01*
X93536Y-65668D01*
X93630Y-65707D01*
X93731Y-65707D01*
X93825Y-65669D01*
X93897Y-65597D01*
X93936Y-65503D01*
X93936Y-65402D01*
X93936Y-66169D01*
X93897Y-66076D01*
X93825Y-66004D01*
X93732Y-65965D01*
X93630Y-65965D01*
X93536Y-66004D01*
X93465Y-66075D01*
X93426Y-66169D01*
X93426Y-66270D01*
X93446Y-66319D01*
X93089Y-66319D01*
X93089Y-64398D01*
X93050Y-64304D01*
X92979Y-64232D01*
X92885Y-64193D01*
X92784Y-64193D01*
X92695Y-64230D01*
X92695Y-63709D01*
X92657Y-63615D01*
X92585Y-63543D01*
X92491Y-63504D01*
X92390Y-63504D01*
X92296Y-63543D01*
X92224Y-63615D01*
X92185Y-63708D01*
X92185Y-63810D01*
X92210Y-63869D01*
X92137Y-63839D01*
X92036Y-63839D01*
X91942Y-63878D01*
X91870Y-63949D01*
X91831Y-64043D01*
X91831Y-64144D01*
X91870Y-64238D01*
X91941Y-64310D01*
X92035Y-64349D01*
X92137Y-64349D01*
X92230Y-64310D01*
X92302Y-64239D01*
X92341Y-64145D01*
X92341Y-64043D01*
X92317Y-63984D01*
X92389Y-64014D01*
X92491Y-64014D01*
X92585Y-63976D01*
X92656Y-63904D01*
X92695Y-63810D01*
X92695Y-63709D01*
X92695Y-64230D01*
X92690Y-64232D01*
X92618Y-64304D01*
X92579Y-64397D01*
X92579Y-64499D01*
X92618Y-64593D01*
X92690Y-64664D01*
X92783Y-64703D01*
X92885Y-64703D01*
X92978Y-64665D01*
X93050Y-64593D01*
X93089Y-64499D01*
X93089Y-64398D01*
X93089Y-66319D01*
X92774Y-66319D01*
X92774Y-65303D01*
X92735Y-65210D01*
X92664Y-65138D01*
X92570Y-65099D01*
X92469Y-65099D01*
X92395Y-65129D01*
X92420Y-65070D01*
X92420Y-64969D01*
X92381Y-64875D01*
X92309Y-64803D01*
X92216Y-64764D01*
X92114Y-64764D01*
X92021Y-64803D01*
X91949Y-64875D01*
X91910Y-64968D01*
X91910Y-65070D01*
X91949Y-65163D01*
X92020Y-65235D01*
X92114Y-65274D01*
X92215Y-65274D01*
X92289Y-65244D01*
X92264Y-65303D01*
X92264Y-65404D01*
X92303Y-65498D01*
X92375Y-65570D01*
X92468Y-65609D01*
X92570Y-65609D01*
X92663Y-65570D01*
X92735Y-65498D01*
X92774Y-65405D01*
X92774Y-65303D01*
X92774Y-66319D01*
X92597Y-66319D01*
X92617Y-66271D01*
X92617Y-66169D01*
X92578Y-66076D01*
X92506Y-66004D01*
X92413Y-65965D01*
X92311Y-65965D01*
X92217Y-66004D01*
X92146Y-66075D01*
X92107Y-66169D01*
X92107Y-66270D01*
X92127Y-66319D01*
X91908Y-66319D01*
X91908Y-65323D01*
X91869Y-65229D01*
X91798Y-65157D01*
X91790Y-65154D01*
X91790Y-64614D01*
X91751Y-64521D01*
X91680Y-64449D01*
X91652Y-64437D01*
X91652Y-55382D01*
X91613Y-55288D01*
X91542Y-55217D01*
X91448Y-55178D01*
X91416Y-55178D01*
X91416Y-53906D01*
X91377Y-53812D01*
X91306Y-53740D01*
X91243Y-53714D01*
X91243Y-51797D01*
X91243Y-50797D01*
X91182Y-50648D01*
X91068Y-50534D01*
X90919Y-50473D01*
X90758Y-50472D01*
X90609Y-50534D01*
X90495Y-50648D01*
X90433Y-50797D01*
X90433Y-50958D01*
X90495Y-51107D01*
X90608Y-51221D01*
X90757Y-51282D01*
X90918Y-51283D01*
X91067Y-51221D01*
X91181Y-51107D01*
X91243Y-50958D01*
X91243Y-50797D01*
X91243Y-51797D01*
X91182Y-51648D01*
X91068Y-51534D01*
X90919Y-51473D01*
X90758Y-51472D01*
X90609Y-51534D01*
X90495Y-51648D01*
X90433Y-51797D01*
X90433Y-51958D01*
X90495Y-52107D01*
X90608Y-52221D01*
X90757Y-52282D01*
X90918Y-52283D01*
X91067Y-52221D01*
X91181Y-52107D01*
X91243Y-51958D01*
X91243Y-51797D01*
X91243Y-53714D01*
X91212Y-53701D01*
X91199Y-53701D01*
X91199Y-52488D01*
X91161Y-52395D01*
X91089Y-52323D01*
X90995Y-52284D01*
X90894Y-52284D01*
X90800Y-52323D01*
X90728Y-52394D01*
X90689Y-52488D01*
X90689Y-52589D01*
X90728Y-52683D01*
X90800Y-52755D01*
X90893Y-52794D01*
X90995Y-52794D01*
X91089Y-52755D01*
X91160Y-52684D01*
X91199Y-52590D01*
X91199Y-52488D01*
X91199Y-53701D01*
X91110Y-53701D01*
X91017Y-53740D01*
X90945Y-53812D01*
X90906Y-53905D01*
X90906Y-54007D01*
X90945Y-54100D01*
X91016Y-54172D01*
X91110Y-54211D01*
X91211Y-54211D01*
X91305Y-54172D01*
X91377Y-54101D01*
X91416Y-54007D01*
X91416Y-53906D01*
X91416Y-55178D01*
X91347Y-55178D01*
X91253Y-55216D01*
X91181Y-55288D01*
X91142Y-55382D01*
X91142Y-55483D01*
X91181Y-55577D01*
X91253Y-55649D01*
X91346Y-55688D01*
X91448Y-55688D01*
X91541Y-55649D01*
X91613Y-55577D01*
X91652Y-55484D01*
X91652Y-55382D01*
X91652Y-64437D01*
X91586Y-64410D01*
X91484Y-64410D01*
X91456Y-64422D01*
X91456Y-64002D01*
X91416Y-63906D01*
X91416Y-60559D01*
X91416Y-59063D01*
X91377Y-58969D01*
X91306Y-58898D01*
X91212Y-58859D01*
X91110Y-58859D01*
X91017Y-58897D01*
X90945Y-58969D01*
X90906Y-59063D01*
X90906Y-59164D01*
X90945Y-59258D01*
X91016Y-59330D01*
X91110Y-59369D01*
X91211Y-59369D01*
X91305Y-59330D01*
X91377Y-59258D01*
X91416Y-59165D01*
X91416Y-59063D01*
X91416Y-60559D01*
X91377Y-60465D01*
X91306Y-60394D01*
X91212Y-60355D01*
X91110Y-60355D01*
X91017Y-60393D01*
X90945Y-60465D01*
X90906Y-60559D01*
X90906Y-60660D01*
X90945Y-60754D01*
X91016Y-60826D01*
X91110Y-60865D01*
X91211Y-60865D01*
X91305Y-60826D01*
X91377Y-60754D01*
X91416Y-60661D01*
X91416Y-60559D01*
X91416Y-63906D01*
X91394Y-63853D01*
X91280Y-63739D01*
X91132Y-63677D01*
X90970Y-63677D01*
X90822Y-63739D01*
X90708Y-63852D01*
X90646Y-64001D01*
X90646Y-64162D01*
X90707Y-64311D01*
X90821Y-64425D01*
X90970Y-64487D01*
X91131Y-64487D01*
X91280Y-64426D01*
X91394Y-64312D01*
X91456Y-64163D01*
X91456Y-64002D01*
X91456Y-64422D01*
X91391Y-64449D01*
X91319Y-64520D01*
X91280Y-64614D01*
X91280Y-64715D01*
X91319Y-64809D01*
X91390Y-64881D01*
X91484Y-64920D01*
X91585Y-64920D01*
X91679Y-64881D01*
X91751Y-64809D01*
X91790Y-64716D01*
X91790Y-64614D01*
X91790Y-65154D01*
X91704Y-65119D01*
X91603Y-65118D01*
X91509Y-65157D01*
X91437Y-65229D01*
X91398Y-65323D01*
X91398Y-65424D01*
X91437Y-65518D01*
X91508Y-65590D01*
X91602Y-65628D01*
X91704Y-65629D01*
X91797Y-65590D01*
X91869Y-65518D01*
X91908Y-65424D01*
X91908Y-65323D01*
X91908Y-66319D01*
X91652Y-66319D01*
X91672Y-66271D01*
X91672Y-66169D01*
X91633Y-66076D01*
X91561Y-66004D01*
X91468Y-65965D01*
X91366Y-65965D01*
X91273Y-66004D01*
X91201Y-66075D01*
X91162Y-66169D01*
X91162Y-66270D01*
X91182Y-66319D01*
X90648Y-66319D01*
X90668Y-66271D01*
X90668Y-66169D01*
X90668Y-65323D01*
X90629Y-65229D01*
X90558Y-65157D01*
X90464Y-65119D01*
X90456Y-65119D01*
X90456Y-64002D01*
X90456Y-64002D01*
X90456Y-63361D01*
X90456Y-62761D01*
X90440Y-62723D01*
X90432Y-62715D01*
X90432Y-60559D01*
X90412Y-60512D01*
X90412Y-53906D01*
X90373Y-53812D01*
X90302Y-53740D01*
X90243Y-53716D01*
X90243Y-52157D01*
X90243Y-51557D01*
X90227Y-51518D01*
X90198Y-51488D01*
X90159Y-51472D01*
X90117Y-51472D01*
X89517Y-51472D01*
X89479Y-51488D01*
X89449Y-51518D01*
X89433Y-51556D01*
X89433Y-51598D01*
X89433Y-52198D01*
X89449Y-52237D01*
X89479Y-52266D01*
X89517Y-52282D01*
X89559Y-52282D01*
X90159Y-52282D01*
X90197Y-52267D01*
X90227Y-52237D01*
X90243Y-52198D01*
X90243Y-52157D01*
X90243Y-53716D01*
X90208Y-53701D01*
X90106Y-53701D01*
X90013Y-53740D01*
X89941Y-53812D01*
X89902Y-53905D01*
X89902Y-54007D01*
X89941Y-54100D01*
X90012Y-54172D01*
X90106Y-54211D01*
X90207Y-54211D01*
X90301Y-54172D01*
X90373Y-54101D01*
X90412Y-54007D01*
X90412Y-53906D01*
X90412Y-60512D01*
X90393Y-60465D01*
X90321Y-60394D01*
X90228Y-60355D01*
X90126Y-60355D01*
X90032Y-60393D01*
X89961Y-60465D01*
X89922Y-60559D01*
X89922Y-60660D01*
X89960Y-60754D01*
X90032Y-60826D01*
X90126Y-60865D01*
X90227Y-60865D01*
X90321Y-60826D01*
X90393Y-60754D01*
X90432Y-60661D01*
X90432Y-60559D01*
X90432Y-62715D01*
X90410Y-62693D01*
X90372Y-62677D01*
X90330Y-62677D01*
X89730Y-62677D01*
X89691Y-62693D01*
X89662Y-62723D01*
X89646Y-62761D01*
X89646Y-62803D01*
X89646Y-63403D01*
X89662Y-63442D01*
X89691Y-63471D01*
X89730Y-63487D01*
X89771Y-63487D01*
X90371Y-63487D01*
X90410Y-63471D01*
X90440Y-63442D01*
X90456Y-63403D01*
X90456Y-63361D01*
X90456Y-64002D01*
X90394Y-63853D01*
X90280Y-63739D01*
X90132Y-63677D01*
X89970Y-63677D01*
X89822Y-63739D01*
X89708Y-63852D01*
X89646Y-64001D01*
X89646Y-64162D01*
X89707Y-64311D01*
X89821Y-64425D01*
X89970Y-64487D01*
X90131Y-64487D01*
X90280Y-64426D01*
X90394Y-64312D01*
X90456Y-64163D01*
X90456Y-64002D01*
X90456Y-65119D01*
X90362Y-65118D01*
X90269Y-65157D01*
X90197Y-65229D01*
X90158Y-65323D01*
X90158Y-65424D01*
X90197Y-65518D01*
X90268Y-65590D01*
X90362Y-65628D01*
X90463Y-65629D01*
X90557Y-65590D01*
X90629Y-65518D01*
X90668Y-65424D01*
X90668Y-65323D01*
X90668Y-66169D01*
X90629Y-66076D01*
X90558Y-66004D01*
X90464Y-65965D01*
X90362Y-65965D01*
X90269Y-66004D01*
X90197Y-66075D01*
X90158Y-66169D01*
X90158Y-66270D01*
X90178Y-66319D01*
X89900Y-66319D01*
X89900Y-64634D01*
X89861Y-64540D01*
X89790Y-64468D01*
X89696Y-64430D01*
X89595Y-64429D01*
X89501Y-64468D01*
X89487Y-64482D01*
X89487Y-64201D01*
X89487Y-63276D01*
X89448Y-63182D01*
X89376Y-63110D01*
X89283Y-63071D01*
X89181Y-63071D01*
X89088Y-63110D01*
X89016Y-63182D01*
X88977Y-63275D01*
X88977Y-63377D01*
X89015Y-63471D01*
X89087Y-63542D01*
X89181Y-63581D01*
X89282Y-63581D01*
X89376Y-63543D01*
X89448Y-63471D01*
X89487Y-63377D01*
X89487Y-63276D01*
X89487Y-64201D01*
X89448Y-64107D01*
X89376Y-64035D01*
X89283Y-63997D01*
X89181Y-63996D01*
X89088Y-64035D01*
X89016Y-64107D01*
X88977Y-64201D01*
X88977Y-64302D01*
X89015Y-64396D01*
X89087Y-64468D01*
X89181Y-64506D01*
X89282Y-64507D01*
X89376Y-64468D01*
X89448Y-64396D01*
X89487Y-64302D01*
X89487Y-64201D01*
X89487Y-64482D01*
X89429Y-64540D01*
X89390Y-64634D01*
X89390Y-64735D01*
X89429Y-64829D01*
X89501Y-64901D01*
X89594Y-64939D01*
X89696Y-64940D01*
X89789Y-64901D01*
X89861Y-64829D01*
X89900Y-64735D01*
X89900Y-64634D01*
X89900Y-66319D01*
X89663Y-66319D01*
X89684Y-66271D01*
X89684Y-66169D01*
X89645Y-66076D01*
X89573Y-66004D01*
X89480Y-65965D01*
X89378Y-65965D01*
X89329Y-65985D01*
X89329Y-65205D01*
X89291Y-65111D01*
X89219Y-65039D01*
X89125Y-65000D01*
X89024Y-65000D01*
X88930Y-65039D01*
X88858Y-65111D01*
X88819Y-65204D01*
X88819Y-65306D01*
X88858Y-65400D01*
X88930Y-65471D01*
X89023Y-65510D01*
X89125Y-65510D01*
X89219Y-65472D01*
X89290Y-65400D01*
X89329Y-65306D01*
X89329Y-65205D01*
X89329Y-65985D01*
X89284Y-66004D01*
X89213Y-66075D01*
X89174Y-66169D01*
X89174Y-66270D01*
X89194Y-66319D01*
X88706Y-66319D01*
X88706Y-64949D01*
X88726Y-64940D01*
X88798Y-64869D01*
X88837Y-64775D01*
X88837Y-64673D01*
X88798Y-64580D01*
X88727Y-64508D01*
X88706Y-64499D01*
X88706Y-63023D01*
X88772Y-63090D01*
X88866Y-63128D01*
X88967Y-63129D01*
X89061Y-63090D01*
X89133Y-63018D01*
X89172Y-62924D01*
X89172Y-62823D01*
X89133Y-62729D01*
X89061Y-62657D01*
X88968Y-62619D01*
X88866Y-62618D01*
X88773Y-62657D01*
X88701Y-62729D01*
X88662Y-62823D01*
X88662Y-62839D01*
X88598Y-62776D01*
X88648Y-62755D01*
X88719Y-62684D01*
X88758Y-62590D01*
X88758Y-62488D01*
X88720Y-62395D01*
X88648Y-62323D01*
X88554Y-62284D01*
X88453Y-62284D01*
X88359Y-62323D01*
X88287Y-62394D01*
X88267Y-62444D01*
X88165Y-62343D01*
X88215Y-62322D01*
X88286Y-62250D01*
X88325Y-62157D01*
X88325Y-62055D01*
X88287Y-61962D01*
X88215Y-61890D01*
X88121Y-61851D01*
X88020Y-61851D01*
X87926Y-61889D01*
X87854Y-61961D01*
X87834Y-62011D01*
X87673Y-61850D01*
X87722Y-61830D01*
X87794Y-61758D01*
X87833Y-61665D01*
X87833Y-61563D01*
X87795Y-61469D01*
X87723Y-61398D01*
X87629Y-61359D01*
X87528Y-61359D01*
X87434Y-61397D01*
X87426Y-61405D01*
X87426Y-58686D01*
X89985Y-58686D01*
X89985Y-55880D01*
X89900Y-55880D01*
X89900Y-52488D01*
X89861Y-52395D01*
X89790Y-52323D01*
X89696Y-52284D01*
X89595Y-52284D01*
X89501Y-52323D01*
X89429Y-52394D01*
X89390Y-52488D01*
X89390Y-52589D01*
X89429Y-52683D01*
X89501Y-52755D01*
X89594Y-52794D01*
X89696Y-52794D01*
X89789Y-52755D01*
X89861Y-52684D01*
X89900Y-52590D01*
X89900Y-52488D01*
X89900Y-55880D01*
X88700Y-55880D01*
X88700Y-51797D01*
X88700Y-50797D01*
X88638Y-50648D01*
X88524Y-50534D01*
X88376Y-50473D01*
X88215Y-50472D01*
X88066Y-50534D01*
X87952Y-50648D01*
X87890Y-50797D01*
X87890Y-50958D01*
X87951Y-51107D01*
X88065Y-51221D01*
X88214Y-51282D01*
X88375Y-51283D01*
X88524Y-51221D01*
X88638Y-51107D01*
X88700Y-50958D01*
X88700Y-50797D01*
X88700Y-51797D01*
X88638Y-51648D01*
X88524Y-51534D01*
X88376Y-51473D01*
X88215Y-51472D01*
X88066Y-51534D01*
X87952Y-51648D01*
X87890Y-51797D01*
X87890Y-51958D01*
X87951Y-52107D01*
X88065Y-52221D01*
X88214Y-52282D01*
X88375Y-52283D01*
X88524Y-52221D01*
X88638Y-52107D01*
X88700Y-51958D01*
X88700Y-51797D01*
X88700Y-55880D01*
X88660Y-55880D01*
X88660Y-52764D01*
X88621Y-52670D01*
X88550Y-52598D01*
X88456Y-52560D01*
X88355Y-52559D01*
X88261Y-52598D01*
X88189Y-52670D01*
X88150Y-52764D01*
X88150Y-52865D01*
X88189Y-52959D01*
X88260Y-53031D01*
X88354Y-53069D01*
X88456Y-53070D01*
X88549Y-53031D01*
X88621Y-52959D01*
X88660Y-52865D01*
X88660Y-52764D01*
X88660Y-55880D01*
X87700Y-55880D01*
X87700Y-52157D01*
X87700Y-51557D01*
X87684Y-51518D01*
X87654Y-51488D01*
X87616Y-51472D01*
X87574Y-51472D01*
X86974Y-51472D01*
X86935Y-51488D01*
X86906Y-51518D01*
X86890Y-51556D01*
X86890Y-51598D01*
X86890Y-52198D01*
X86906Y-52237D01*
X86935Y-52266D01*
X86974Y-52282D01*
X87016Y-52282D01*
X87616Y-52282D01*
X87654Y-52267D01*
X87684Y-52237D01*
X87700Y-52198D01*
X87700Y-52157D01*
X87700Y-55880D01*
X86475Y-55880D01*
X86475Y-51130D01*
X86436Y-51036D01*
X86365Y-50965D01*
X86271Y-50926D01*
X86169Y-50926D01*
X86076Y-50964D01*
X86004Y-51036D01*
X85965Y-51130D01*
X85965Y-51231D01*
X86004Y-51325D01*
X86075Y-51397D01*
X86169Y-51436D01*
X86270Y-51436D01*
X86364Y-51397D01*
X86436Y-51325D01*
X86475Y-51232D01*
X86475Y-51130D01*
X86475Y-55880D01*
X85950Y-55880D01*
X85950Y-55757D01*
X85972Y-55766D01*
X86074Y-55766D01*
X86167Y-55728D01*
X86239Y-55656D01*
X86278Y-55562D01*
X86278Y-55461D01*
X86239Y-55367D01*
X86168Y-55295D01*
X86074Y-55256D01*
X85973Y-55256D01*
X85950Y-55266D01*
X85950Y-54814D01*
X85977Y-54842D01*
X86071Y-54880D01*
X86172Y-54881D01*
X86266Y-54842D01*
X86338Y-54770D01*
X86377Y-54676D01*
X86377Y-54575D01*
X86338Y-54481D01*
X86266Y-54409D01*
X86172Y-54371D01*
X86071Y-54370D01*
X85977Y-54409D01*
X85950Y-54437D01*
X85950Y-53083D01*
X85983Y-53003D01*
X85983Y-52902D01*
X85950Y-52821D01*
X85950Y-49828D01*
X86578Y-49828D01*
X86496Y-49882D01*
X86430Y-49981D01*
X86407Y-50098D01*
X86430Y-50215D01*
X86496Y-50314D01*
X86595Y-50380D01*
X86712Y-50403D01*
X95739Y-50403D01*
X97332Y-51996D01*
X97332Y-57944D01*
X97196Y-58080D01*
X96748Y-58080D01*
X96748Y-57068D01*
X96704Y-56960D01*
X96622Y-56878D01*
X96515Y-56834D01*
X96398Y-56833D01*
X96292Y-56877D01*
X96295Y-56869D01*
X96295Y-56753D01*
X96292Y-56743D01*
X96398Y-56788D01*
X96514Y-56788D01*
X96621Y-56743D01*
X96704Y-56661D01*
X96748Y-56554D01*
X96748Y-56438D01*
X96704Y-56330D01*
X96622Y-56248D01*
X96515Y-56204D01*
X96398Y-56204D01*
X96292Y-56248D01*
X96295Y-56239D01*
X96295Y-56123D01*
X96292Y-56114D01*
X96398Y-56158D01*
X96514Y-56158D01*
X96621Y-56113D01*
X96704Y-56031D01*
X96748Y-55924D01*
X96748Y-55808D01*
X96704Y-55700D01*
X96622Y-55618D01*
X96515Y-55574D01*
X96398Y-55574D01*
X96292Y-55618D01*
X96295Y-55609D01*
X96295Y-55493D01*
X96292Y-55484D01*
X96398Y-55528D01*
X96514Y-55528D01*
X96621Y-55483D01*
X96704Y-55401D01*
X96748Y-55294D01*
X96748Y-55178D01*
X96704Y-55071D01*
X96622Y-54988D01*
X96515Y-54944D01*
X96398Y-54944D01*
X96292Y-54988D01*
X96295Y-54979D01*
X96295Y-54863D01*
X96292Y-54854D01*
X96398Y-54898D01*
X96514Y-54898D01*
X96621Y-54853D01*
X96704Y-54771D01*
X96748Y-54664D01*
X96748Y-54548D01*
X96704Y-54441D01*
X96622Y-54358D01*
X96515Y-54314D01*
X96398Y-54314D01*
X96292Y-54358D01*
X96295Y-54349D01*
X96295Y-54233D01*
X96292Y-54224D01*
X96398Y-54268D01*
X96514Y-54268D01*
X96621Y-54224D01*
X96704Y-54142D01*
X96748Y-54034D01*
X96748Y-53918D01*
X96704Y-53811D01*
X96622Y-53728D01*
X96515Y-53684D01*
X96398Y-53684D01*
X96292Y-53728D01*
X96295Y-53719D01*
X96295Y-53603D01*
X96292Y-53594D01*
X96398Y-53638D01*
X96514Y-53638D01*
X96621Y-53594D01*
X96704Y-53512D01*
X96748Y-53404D01*
X96748Y-53288D01*
X96704Y-53181D01*
X96622Y-53099D01*
X96515Y-53054D01*
X96502Y-53054D01*
X96502Y-51840D01*
X96426Y-51656D01*
X96286Y-51516D01*
X96103Y-51440D01*
X95905Y-51440D01*
X95721Y-51515D01*
X95581Y-51656D01*
X95505Y-51839D01*
X95505Y-52037D01*
X95580Y-52221D01*
X95721Y-52361D01*
X95904Y-52437D01*
X96102Y-52437D01*
X96286Y-52362D01*
X96426Y-52221D01*
X96502Y-52038D01*
X96502Y-51840D01*
X96502Y-53054D01*
X96398Y-53054D01*
X96292Y-53098D01*
X96295Y-53089D01*
X96295Y-52973D01*
X96251Y-52866D01*
X96169Y-52784D01*
X96062Y-52739D01*
X95946Y-52739D01*
X95838Y-52783D01*
X95756Y-52865D01*
X95711Y-52973D01*
X95711Y-53089D01*
X95756Y-53196D01*
X95838Y-53278D01*
X95945Y-53323D01*
X96061Y-53323D01*
X96168Y-53279D01*
X96164Y-53288D01*
X96164Y-53404D01*
X96168Y-53413D01*
X96062Y-53369D01*
X95946Y-53369D01*
X95838Y-53413D01*
X95818Y-53433D01*
X95779Y-53338D01*
X95697Y-53256D01*
X95589Y-53211D01*
X95473Y-53211D01*
X95367Y-53255D01*
X95370Y-53247D01*
X95370Y-53131D01*
X95361Y-53109D01*
X95424Y-53109D01*
X95518Y-53070D01*
X95590Y-52998D01*
X95628Y-52905D01*
X95629Y-52803D01*
X95590Y-52710D01*
X95518Y-52638D01*
X95424Y-52599D01*
X95323Y-52599D01*
X95229Y-52638D01*
X95157Y-52709D01*
X95119Y-52803D01*
X95118Y-52897D01*
X95020Y-52896D01*
X94913Y-52941D01*
X94831Y-53023D01*
X94786Y-53130D01*
X94786Y-53246D01*
X94831Y-53354D01*
X94913Y-53436D01*
X95020Y-53480D01*
X95136Y-53481D01*
X95243Y-53437D01*
X95239Y-53445D01*
X95239Y-53561D01*
X95243Y-53571D01*
X95137Y-53526D01*
X95020Y-53526D01*
X94913Y-53571D01*
X94831Y-53653D01*
X94786Y-53760D01*
X94786Y-53876D01*
X94831Y-53984D01*
X94850Y-54003D01*
X94783Y-54003D01*
X94783Y-54003D01*
X94773Y-54005D01*
X94733Y-54013D01*
X94691Y-54041D01*
X94691Y-54041D01*
X94565Y-54167D01*
X94566Y-54083D01*
X94527Y-53989D01*
X94455Y-53917D01*
X94428Y-53906D01*
X94428Y-51622D01*
X94389Y-51528D01*
X94317Y-51457D01*
X94224Y-51418D01*
X94122Y-51418D01*
X94028Y-51456D01*
X93957Y-51528D01*
X93918Y-51622D01*
X93918Y-51723D01*
X93956Y-51817D01*
X94028Y-51889D01*
X94122Y-51928D01*
X94223Y-51928D01*
X94317Y-51889D01*
X94389Y-51817D01*
X94428Y-51724D01*
X94428Y-51622D01*
X94428Y-53906D01*
X94361Y-53878D01*
X94260Y-53878D01*
X94166Y-53917D01*
X94114Y-53970D01*
X94061Y-53917D01*
X94054Y-53914D01*
X94054Y-52429D01*
X94015Y-52336D01*
X93943Y-52264D01*
X93850Y-52225D01*
X93748Y-52225D01*
X93654Y-52264D01*
X93583Y-52335D01*
X93544Y-52429D01*
X93544Y-52530D01*
X93582Y-52624D01*
X93654Y-52696D01*
X93748Y-52735D01*
X93849Y-52735D01*
X93943Y-52696D01*
X94015Y-52624D01*
X94054Y-52531D01*
X94054Y-52429D01*
X94054Y-53914D01*
X93968Y-53878D01*
X93866Y-53878D01*
X93773Y-53917D01*
X93701Y-53989D01*
X93662Y-54082D01*
X93662Y-54184D01*
X93701Y-54278D01*
X93772Y-54349D01*
X93866Y-54388D01*
X93967Y-54388D01*
X93982Y-54382D01*
X94022Y-54422D01*
X94022Y-54422D01*
X94081Y-54481D01*
X94123Y-54509D01*
X94173Y-54519D01*
X94527Y-54519D01*
X94577Y-54509D01*
X94619Y-54481D01*
X94837Y-54263D01*
X94850Y-54263D01*
X94831Y-54283D01*
X94786Y-54390D01*
X94786Y-54506D01*
X94831Y-54614D01*
X94913Y-54696D01*
X95020Y-54740D01*
X95136Y-54740D01*
X95243Y-54696D01*
X95239Y-54705D01*
X95239Y-54821D01*
X95243Y-54830D01*
X95137Y-54786D01*
X95020Y-54786D01*
X94913Y-54831D01*
X94831Y-54913D01*
X94786Y-55020D01*
X94786Y-55136D01*
X94831Y-55243D01*
X94913Y-55326D01*
X95020Y-55370D01*
X95136Y-55370D01*
X95243Y-55326D01*
X95239Y-55335D01*
X95239Y-55451D01*
X95243Y-55460D01*
X95137Y-55416D01*
X95020Y-55416D01*
X94913Y-55460D01*
X94831Y-55543D01*
X94786Y-55650D01*
X94786Y-55766D01*
X94831Y-55873D01*
X94859Y-55902D01*
X94851Y-55903D01*
X94834Y-55914D01*
X94809Y-55931D01*
X94809Y-55931D01*
X94752Y-55988D01*
X94724Y-55918D01*
X94652Y-55846D01*
X94558Y-55808D01*
X94457Y-55807D01*
X94363Y-55846D01*
X94291Y-55918D01*
X94252Y-56012D01*
X94252Y-56113D01*
X94291Y-56207D01*
X94324Y-56240D01*
X94291Y-56272D01*
X94252Y-56366D01*
X94252Y-56467D01*
X94291Y-56561D01*
X94363Y-56633D01*
X94456Y-56672D01*
X94558Y-56672D01*
X94652Y-56633D01*
X94723Y-56561D01*
X94762Y-56468D01*
X94762Y-56366D01*
X94756Y-56352D01*
X94786Y-56322D01*
X94786Y-56396D01*
X94831Y-56503D01*
X94913Y-56585D01*
X95020Y-56630D01*
X95136Y-56630D01*
X95243Y-56586D01*
X95239Y-56595D01*
X95239Y-56711D01*
X95243Y-56720D01*
X95137Y-56676D01*
X95020Y-56676D01*
X94913Y-56720D01*
X94831Y-56802D01*
X94786Y-56910D01*
X94786Y-57026D01*
X94831Y-57133D01*
X94913Y-57215D01*
X95020Y-57260D01*
X95136Y-57260D01*
X95243Y-57216D01*
X95239Y-57225D01*
X95239Y-57341D01*
X95243Y-57350D01*
X95137Y-57306D01*
X95020Y-57306D01*
X94913Y-57350D01*
X94831Y-57432D01*
X94786Y-57540D01*
X94786Y-57656D01*
X94831Y-57763D01*
X94913Y-57845D01*
X95020Y-57890D01*
X95136Y-57890D01*
X95243Y-57846D01*
X95326Y-57764D01*
X95370Y-57656D01*
X95370Y-57540D01*
X95366Y-57531D01*
X95473Y-57575D01*
X95589Y-57575D01*
X95696Y-57531D01*
X95716Y-57510D01*
X95756Y-57606D01*
X95838Y-57688D01*
X95945Y-57732D01*
X96061Y-57733D01*
X96169Y-57688D01*
X96251Y-57606D01*
X96295Y-57499D01*
X96295Y-57383D01*
X96292Y-57373D01*
X96398Y-57417D01*
X96514Y-57418D01*
X96621Y-57373D01*
X96704Y-57291D01*
X96748Y-57184D01*
X96748Y-57068D01*
X96748Y-58080D01*
X96583Y-58080D01*
X96357Y-57855D01*
X96258Y-57789D01*
X96239Y-57785D01*
X96141Y-57765D01*
X96141Y-57765D01*
X96003Y-57765D01*
X95887Y-57789D01*
X95788Y-57855D01*
X95788Y-57855D01*
X95462Y-58180D01*
X95294Y-58012D01*
X95195Y-57946D01*
X95078Y-57923D01*
X94962Y-57946D01*
X94863Y-58012D01*
X94796Y-58111D01*
X94773Y-58228D01*
X94796Y-58345D01*
X94863Y-58444D01*
X95178Y-58758D01*
X95178Y-58758D01*
X95276Y-58825D01*
X95393Y-58848D01*
X95393Y-58848D01*
X95393Y-58848D01*
X95531Y-58848D01*
X95531Y-58848D01*
X95531Y-58848D01*
X95628Y-58828D01*
X95648Y-58825D01*
X95648Y-58825D01*
X95747Y-58758D01*
X96072Y-58433D01*
X96241Y-58601D01*
X96241Y-58601D01*
X96339Y-58667D01*
X96456Y-58690D01*
X96456Y-58690D01*
X96456Y-58690D01*
X97208Y-58690D01*
X97382Y-58865D01*
X97382Y-64166D01*
G36*
X88262Y-65759D02*
X87459Y-65759D01*
X87459Y-65185D01*
X87421Y-65091D01*
X87381Y-65051D01*
X87381Y-62114D01*
X87342Y-62021D01*
X87270Y-61949D01*
X87176Y-61910D01*
X87075Y-61910D01*
X86981Y-61949D01*
X86909Y-62020D01*
X86871Y-62114D01*
X86870Y-62215D01*
X86909Y-62309D01*
X86981Y-62381D01*
X87075Y-62420D01*
X87176Y-62420D01*
X87270Y-62381D01*
X87342Y-62309D01*
X87380Y-62216D01*
X87381Y-62114D01*
X87381Y-65051D01*
X87349Y-65020D01*
X87255Y-64981D01*
X87154Y-64981D01*
X87144Y-64985D01*
X87144Y-62862D01*
X87106Y-62769D01*
X87034Y-62697D01*
X86940Y-62658D01*
X86839Y-62658D01*
X86745Y-62697D01*
X86673Y-62768D01*
X86634Y-62862D01*
X86634Y-62963D01*
X86673Y-63057D01*
X86745Y-63129D01*
X86838Y-63168D01*
X86940Y-63168D01*
X87034Y-63129D01*
X87105Y-63058D01*
X87144Y-62964D01*
X87144Y-62862D01*
X87144Y-64985D01*
X87060Y-65019D01*
X87026Y-65053D01*
X87026Y-64752D01*
X86987Y-64658D01*
X86916Y-64587D01*
X86822Y-64548D01*
X86721Y-64548D01*
X86627Y-64586D01*
X86589Y-64624D01*
X86573Y-64586D01*
X86573Y-63433D01*
X86535Y-63339D01*
X86514Y-63319D01*
X86514Y-62114D01*
X86476Y-62021D01*
X86404Y-61949D01*
X86310Y-61910D01*
X86209Y-61910D01*
X86115Y-61949D01*
X86081Y-61982D01*
X86081Y-61268D01*
X86043Y-61174D01*
X85971Y-61102D01*
X85877Y-61063D01*
X85776Y-61063D01*
X85688Y-61100D01*
X85688Y-58748D01*
X85649Y-58654D01*
X85577Y-58583D01*
X85484Y-58544D01*
X85382Y-58544D01*
X85288Y-58582D01*
X85217Y-58654D01*
X85178Y-58748D01*
X85178Y-58849D01*
X85216Y-58943D01*
X85288Y-59015D01*
X85382Y-59054D01*
X85483Y-59054D01*
X85577Y-59015D01*
X85649Y-58943D01*
X85688Y-58850D01*
X85688Y-58748D01*
X85688Y-61100D01*
X85682Y-61102D01*
X85610Y-61174D01*
X85589Y-61224D01*
X85589Y-60973D01*
X85550Y-60879D01*
X85479Y-60807D01*
X85392Y-60771D01*
X85392Y-60382D01*
X85354Y-60288D01*
X85282Y-60217D01*
X85188Y-60178D01*
X85087Y-60178D01*
X84993Y-60216D01*
X84921Y-60288D01*
X84882Y-60382D01*
X84882Y-60483D01*
X84921Y-60577D01*
X84993Y-60649D01*
X85086Y-60688D01*
X85188Y-60688D01*
X85282Y-60649D01*
X85353Y-60577D01*
X85392Y-60484D01*
X85392Y-60382D01*
X85392Y-60771D01*
X85385Y-60768D01*
X85284Y-60768D01*
X85190Y-60807D01*
X85118Y-60878D01*
X85079Y-60972D01*
X85079Y-61074D01*
X85118Y-61167D01*
X85190Y-61239D01*
X85283Y-61278D01*
X85385Y-61278D01*
X85478Y-61239D01*
X85550Y-61168D01*
X85589Y-61074D01*
X85589Y-60973D01*
X85589Y-61224D01*
X85571Y-61267D01*
X85571Y-61369D01*
X85610Y-61463D01*
X85682Y-61534D01*
X85775Y-61573D01*
X85877Y-61573D01*
X85971Y-61535D01*
X86042Y-61463D01*
X86081Y-61369D01*
X86081Y-61268D01*
X86081Y-61982D01*
X86043Y-62020D01*
X86004Y-62114D01*
X86004Y-62215D01*
X86043Y-62309D01*
X86115Y-62381D01*
X86208Y-62420D01*
X86310Y-62420D01*
X86404Y-62381D01*
X86475Y-62309D01*
X86514Y-62216D01*
X86514Y-62114D01*
X86514Y-63319D01*
X86463Y-63268D01*
X86369Y-63229D01*
X86268Y-63229D01*
X86174Y-63267D01*
X86102Y-63339D01*
X86063Y-63433D01*
X86063Y-63534D01*
X86102Y-63628D01*
X86174Y-63700D01*
X86267Y-63739D01*
X86369Y-63739D01*
X86463Y-63700D01*
X86534Y-63628D01*
X86573Y-63535D01*
X86573Y-63433D01*
X86573Y-64586D01*
X86554Y-64540D01*
X86483Y-64468D01*
X86475Y-64465D01*
X86475Y-64122D01*
X86436Y-64028D01*
X86365Y-63957D01*
X86271Y-63918D01*
X86169Y-63918D01*
X86076Y-63956D01*
X86004Y-64028D01*
X85965Y-64122D01*
X85965Y-64223D01*
X86004Y-64317D01*
X86075Y-64389D01*
X86169Y-64428D01*
X86270Y-64428D01*
X86364Y-64389D01*
X86436Y-64317D01*
X86475Y-64224D01*
X86475Y-64122D01*
X86475Y-64465D01*
X86389Y-64430D01*
X86288Y-64429D01*
X86194Y-64468D01*
X86122Y-64540D01*
X86083Y-64634D01*
X86083Y-64735D01*
X86122Y-64829D01*
X86193Y-64901D01*
X86287Y-64939D01*
X86389Y-64940D01*
X86482Y-64901D01*
X86520Y-64863D01*
X86555Y-64947D01*
X86627Y-65019D01*
X86720Y-65058D01*
X86822Y-65058D01*
X86915Y-65019D01*
X86987Y-64947D01*
X87026Y-64854D01*
X87026Y-64752D01*
X87026Y-65053D01*
X86988Y-65091D01*
X86949Y-65185D01*
X86949Y-65286D01*
X86988Y-65380D01*
X87060Y-65452D01*
X87153Y-65491D01*
X87255Y-65491D01*
X87348Y-65452D01*
X87420Y-65380D01*
X87459Y-65287D01*
X87459Y-65185D01*
X87459Y-65759D01*
X86943Y-65759D01*
X86967Y-65700D01*
X86967Y-65599D01*
X86928Y-65505D01*
X86857Y-65433D01*
X86763Y-65394D01*
X86662Y-65394D01*
X86573Y-65430D01*
X86573Y-65205D01*
X86535Y-65111D01*
X86463Y-65039D01*
X86369Y-65000D01*
X86268Y-65000D01*
X86174Y-65039D01*
X86102Y-65111D01*
X86063Y-65204D01*
X86063Y-65306D01*
X86102Y-65400D01*
X86174Y-65471D01*
X86267Y-65510D01*
X86369Y-65510D01*
X86463Y-65472D01*
X86534Y-65400D01*
X86573Y-65306D01*
X86573Y-65205D01*
X86573Y-65430D01*
X86568Y-65433D01*
X86496Y-65504D01*
X86457Y-65598D01*
X86457Y-65700D01*
X86482Y-65759D01*
X85734Y-65759D01*
X85696Y-65721D01*
X85696Y-65721D01*
X85676Y-65701D01*
X85676Y-65701D01*
X85274Y-65299D01*
X85254Y-65286D01*
X85282Y-65275D01*
X85353Y-65203D01*
X85392Y-65110D01*
X85392Y-65008D01*
X85354Y-64914D01*
X85282Y-64843D01*
X85188Y-64804D01*
X85087Y-64804D01*
X84993Y-64842D01*
X84921Y-64914D01*
X84882Y-65008D01*
X84882Y-65109D01*
X84921Y-65203D01*
X84957Y-65239D01*
X84924Y-65239D01*
X84914Y-65215D01*
X84800Y-65101D01*
X84651Y-65039D01*
X84495Y-65039D01*
X84506Y-65011D01*
X84507Y-64910D01*
X84468Y-64816D01*
X84396Y-64744D01*
X84302Y-64705D01*
X84201Y-64705D01*
X84107Y-64744D01*
X84035Y-64815D01*
X84014Y-64866D01*
X84014Y-64614D01*
X83976Y-64521D01*
X83904Y-64449D01*
X83810Y-64410D01*
X83709Y-64410D01*
X83615Y-64449D01*
X83543Y-64520D01*
X83504Y-64614D01*
X83504Y-64715D01*
X83543Y-64809D01*
X83615Y-64881D01*
X83708Y-64920D01*
X83810Y-64920D01*
X83904Y-64881D01*
X83975Y-64809D01*
X84014Y-64716D01*
X84014Y-64614D01*
X84014Y-64866D01*
X83997Y-64909D01*
X83996Y-65011D01*
X84035Y-65104D01*
X84107Y-65176D01*
X84201Y-65215D01*
X84227Y-65215D01*
X84165Y-65363D01*
X84165Y-65525D01*
X84227Y-65673D01*
X84293Y-65739D01*
X83424Y-65739D01*
X83424Y-64418D01*
X83385Y-64324D01*
X83313Y-64252D01*
X83220Y-64213D01*
X83118Y-64213D01*
X83025Y-64252D01*
X82953Y-64323D01*
X82914Y-64417D01*
X82914Y-64519D01*
X82952Y-64612D01*
X83024Y-64684D01*
X83118Y-64723D01*
X83219Y-64723D01*
X83313Y-64684D01*
X83385Y-64613D01*
X83424Y-64519D01*
X83424Y-64418D01*
X83424Y-65739D01*
X83155Y-65739D01*
X82965Y-65549D01*
X82975Y-65525D01*
X82975Y-65364D01*
X82914Y-65215D01*
X82800Y-65101D01*
X82735Y-65074D01*
X82735Y-64418D01*
X82696Y-64324D01*
X82624Y-64252D01*
X82531Y-64213D01*
X82429Y-64213D01*
X82336Y-64252D01*
X82264Y-64323D01*
X82225Y-64417D01*
X82225Y-64519D01*
X82264Y-64612D01*
X82335Y-64684D01*
X82429Y-64723D01*
X82530Y-64723D01*
X82624Y-64684D01*
X82696Y-64613D01*
X82735Y-64519D01*
X82735Y-64418D01*
X82735Y-65074D01*
X82651Y-65039D01*
X82490Y-65039D01*
X82341Y-65101D01*
X82227Y-65215D01*
X82217Y-65239D01*
X82046Y-65239D01*
X82046Y-64418D01*
X82007Y-64324D01*
X81935Y-64252D01*
X81842Y-64213D01*
X81740Y-64213D01*
X81647Y-64252D01*
X81575Y-64323D01*
X81536Y-64417D01*
X81536Y-64519D01*
X81575Y-64612D01*
X81646Y-64684D01*
X81740Y-64723D01*
X81841Y-64723D01*
X81935Y-64684D01*
X82007Y-64613D01*
X82046Y-64519D01*
X82046Y-64418D01*
X82046Y-65239D01*
X81924Y-65239D01*
X81914Y-65215D01*
X81800Y-65101D01*
X81651Y-65039D01*
X81490Y-65039D01*
X81341Y-65101D01*
X81227Y-65215D01*
X81165Y-65363D01*
X81165Y-65525D01*
X81227Y-65673D01*
X81341Y-65788D01*
X81489Y-65849D01*
X81651Y-65849D01*
X81799Y-65788D01*
X81914Y-65674D01*
X81924Y-65649D01*
X82217Y-65649D01*
X82227Y-65673D01*
X82341Y-65788D01*
X82489Y-65849D01*
X82651Y-65849D01*
X82675Y-65839D01*
X82925Y-66089D01*
X82925Y-66089D01*
X82965Y-66116D01*
X82992Y-66134D01*
X82992Y-66134D01*
X83070Y-66149D01*
X83070Y-66149D01*
X83070Y-66149D01*
X83293Y-66149D01*
X83227Y-66215D01*
X83165Y-66363D01*
X83165Y-66525D01*
X83227Y-66673D01*
X83260Y-66707D01*
X82881Y-66707D01*
X82914Y-66674D01*
X82975Y-66525D01*
X82975Y-66364D01*
X82914Y-66215D01*
X82800Y-66101D01*
X82651Y-66039D01*
X82490Y-66039D01*
X82341Y-66101D01*
X82227Y-66215D01*
X82165Y-66363D01*
X82165Y-66525D01*
X82227Y-66673D01*
X82260Y-66707D01*
X81975Y-66707D01*
X81975Y-66124D01*
X81959Y-66085D01*
X81930Y-66055D01*
X81891Y-66039D01*
X81850Y-66039D01*
X81250Y-66039D01*
X81211Y-66055D01*
X81181Y-66085D01*
X81165Y-66123D01*
X81165Y-66165D01*
X81165Y-66707D01*
X80570Y-66707D01*
X80570Y-66288D01*
X80531Y-66194D01*
X80459Y-66122D01*
X80365Y-66083D01*
X80264Y-66083D01*
X80170Y-66122D01*
X80098Y-66193D01*
X80077Y-66244D01*
X80077Y-65303D01*
X80039Y-65210D01*
X79967Y-65138D01*
X79873Y-65099D01*
X79772Y-65099D01*
X79678Y-65138D01*
X79606Y-65209D01*
X79567Y-65303D01*
X79567Y-65404D01*
X79606Y-65498D01*
X79678Y-65570D01*
X79771Y-65609D01*
X79873Y-65609D01*
X79967Y-65570D01*
X80038Y-65498D01*
X80077Y-65405D01*
X80077Y-65303D01*
X80077Y-66244D01*
X80060Y-66287D01*
X80059Y-66389D01*
X80098Y-66482D01*
X80170Y-66554D01*
X80264Y-66593D01*
X80365Y-66593D01*
X80459Y-66554D01*
X80531Y-66483D01*
X80569Y-66389D01*
X80570Y-66288D01*
X80570Y-66707D01*
X79388Y-66707D01*
X79388Y-66288D01*
X79350Y-66194D01*
X79278Y-66122D01*
X79184Y-66083D01*
X79083Y-66083D01*
X78989Y-66122D01*
X78917Y-66193D01*
X78878Y-66287D01*
X78878Y-66389D01*
X78917Y-66482D01*
X78989Y-66554D01*
X79082Y-66593D01*
X79184Y-66593D01*
X79278Y-66554D01*
X79349Y-66483D01*
X79388Y-66389D01*
X79388Y-66288D01*
X79388Y-66707D01*
X78207Y-66707D01*
X78207Y-66288D01*
X78169Y-66194D01*
X78097Y-66122D01*
X78003Y-66083D01*
X77902Y-66083D01*
X77808Y-66122D01*
X77736Y-66193D01*
X77697Y-66287D01*
X77697Y-66389D01*
X77736Y-66482D01*
X77808Y-66554D01*
X77901Y-66593D01*
X78003Y-66593D01*
X78097Y-66554D01*
X78168Y-66483D01*
X78207Y-66389D01*
X78207Y-66288D01*
X78207Y-66707D01*
X77026Y-66707D01*
X77026Y-66288D01*
X76987Y-66194D01*
X76916Y-66122D01*
X76822Y-66083D01*
X76721Y-66083D01*
X76627Y-66122D01*
X76555Y-66193D01*
X76516Y-66287D01*
X76516Y-66389D01*
X76555Y-66482D01*
X76627Y-66554D01*
X76720Y-66593D01*
X76822Y-66593D01*
X76915Y-66554D01*
X76987Y-66483D01*
X77026Y-66389D01*
X77026Y-66288D01*
X77026Y-66707D01*
X75845Y-66707D01*
X75845Y-66288D01*
X75806Y-66194D01*
X75735Y-66122D01*
X75641Y-66083D01*
X75540Y-66083D01*
X75446Y-66122D01*
X75374Y-66193D01*
X75335Y-66287D01*
X75335Y-66389D01*
X75374Y-66482D01*
X75445Y-66554D01*
X75539Y-66593D01*
X75641Y-66593D01*
X75734Y-66554D01*
X75806Y-66483D01*
X75845Y-66389D01*
X75845Y-66288D01*
X75845Y-66707D01*
X74664Y-66707D01*
X74664Y-66288D01*
X74625Y-66194D01*
X74554Y-66122D01*
X74460Y-66083D01*
X74358Y-66083D01*
X74265Y-66122D01*
X74193Y-66193D01*
X74154Y-66287D01*
X74154Y-66389D01*
X74193Y-66482D01*
X74264Y-66554D01*
X74358Y-66593D01*
X74459Y-66593D01*
X74553Y-66554D01*
X74625Y-66483D01*
X74664Y-66389D01*
X74664Y-66288D01*
X74664Y-66707D01*
X73483Y-66707D01*
X73483Y-66288D01*
X73444Y-66194D01*
X73372Y-66122D01*
X73279Y-66083D01*
X73177Y-66083D01*
X73084Y-66122D01*
X73012Y-66193D01*
X72973Y-66287D01*
X72973Y-66389D01*
X73012Y-66482D01*
X73083Y-66554D01*
X73177Y-66593D01*
X73278Y-66593D01*
X73372Y-66554D01*
X73444Y-66483D01*
X73483Y-66389D01*
X73483Y-66288D01*
X73483Y-66707D01*
X72302Y-66707D01*
X72302Y-66288D01*
X72263Y-66194D01*
X72191Y-66122D01*
X72098Y-66083D01*
X71996Y-66083D01*
X71902Y-66122D01*
X71831Y-66193D01*
X71792Y-66287D01*
X71792Y-66389D01*
X71830Y-66482D01*
X71902Y-66554D01*
X71996Y-66593D01*
X72097Y-66593D01*
X72191Y-66554D01*
X72263Y-66483D01*
X72302Y-66389D01*
X72302Y-66288D01*
X72302Y-66707D01*
X71711Y-66707D01*
X71711Y-65697D01*
X71672Y-65603D01*
X71601Y-65531D01*
X71507Y-65493D01*
X71406Y-65492D01*
X71312Y-65531D01*
X71240Y-65603D01*
X71201Y-65697D01*
X71201Y-65798D01*
X71240Y-65892D01*
X71312Y-65964D01*
X71405Y-66002D01*
X71507Y-66003D01*
X71600Y-65964D01*
X71672Y-65892D01*
X71711Y-65798D01*
X71711Y-65697D01*
X71711Y-66707D01*
X71121Y-66707D01*
X71121Y-66288D01*
X71082Y-66194D01*
X71010Y-66122D01*
X70917Y-66083D01*
X70815Y-66083D01*
X70727Y-66119D01*
X70727Y-65697D01*
X70688Y-65603D01*
X70617Y-65531D01*
X70523Y-65493D01*
X70421Y-65492D01*
X70328Y-65531D01*
X70256Y-65603D01*
X70217Y-65697D01*
X70217Y-65798D01*
X70256Y-65892D01*
X70327Y-65964D01*
X70421Y-66002D01*
X70522Y-66003D01*
X70616Y-65964D01*
X70688Y-65892D01*
X70727Y-65798D01*
X70727Y-65697D01*
X70727Y-66119D01*
X70721Y-66122D01*
X70650Y-66193D01*
X70611Y-66287D01*
X70611Y-66389D01*
X70649Y-66482D01*
X70721Y-66554D01*
X70815Y-66593D01*
X70916Y-66593D01*
X71010Y-66554D01*
X71082Y-66483D01*
X71121Y-66389D01*
X71121Y-66288D01*
X71121Y-66707D01*
X69940Y-66707D01*
X69940Y-66288D01*
X69901Y-66194D01*
X69829Y-66122D01*
X69735Y-66083D01*
X69634Y-66083D01*
X69540Y-66122D01*
X69468Y-66193D01*
X69430Y-66287D01*
X69429Y-66389D01*
X69468Y-66482D01*
X69540Y-66554D01*
X69634Y-66593D01*
X69735Y-66593D01*
X69829Y-66554D01*
X69901Y-66483D01*
X69939Y-66389D01*
X69940Y-66288D01*
X69940Y-66707D01*
X69316Y-66707D01*
X69316Y-65936D01*
X69343Y-65964D01*
X69437Y-66002D01*
X69538Y-66003D01*
X69632Y-65964D01*
X69704Y-65892D01*
X69743Y-65798D01*
X69743Y-65697D01*
X69704Y-65603D01*
X69632Y-65531D01*
X69539Y-65493D01*
X69437Y-65492D01*
X69343Y-65531D01*
X69316Y-65559D01*
X69316Y-64040D01*
X71884Y-64040D01*
X71884Y-64395D01*
X71956Y-64395D01*
X71929Y-64422D01*
X71890Y-64515D01*
X71890Y-64617D01*
X71929Y-64711D01*
X72001Y-64782D01*
X72094Y-64821D01*
X72196Y-64821D01*
X72289Y-64783D01*
X72361Y-64711D01*
X72400Y-64617D01*
X72400Y-64516D01*
X72361Y-64422D01*
X72334Y-64395D01*
X72415Y-64395D01*
X72415Y-65523D01*
X72400Y-65529D01*
X72400Y-65303D01*
X72361Y-65210D01*
X72290Y-65138D01*
X72196Y-65099D01*
X72095Y-65099D01*
X72001Y-65138D01*
X71929Y-65209D01*
X71890Y-65303D01*
X71890Y-65404D01*
X71929Y-65498D01*
X72001Y-65570D01*
X72094Y-65609D01*
X72196Y-65609D01*
X72289Y-65570D01*
X72361Y-65498D01*
X72400Y-65405D01*
X72400Y-65303D01*
X72400Y-65529D01*
X72395Y-65531D01*
X72323Y-65603D01*
X72284Y-65697D01*
X72284Y-65798D01*
X72323Y-65892D01*
X72394Y-65964D01*
X72488Y-66002D01*
X72589Y-66003D01*
X72683Y-65964D01*
X72755Y-65892D01*
X72794Y-65798D01*
X72794Y-65697D01*
X72755Y-65603D01*
X72728Y-65576D01*
X73334Y-65576D01*
X73307Y-65603D01*
X73268Y-65697D01*
X73268Y-65798D01*
X73307Y-65892D01*
X73378Y-65964D01*
X73472Y-66002D01*
X73574Y-66003D01*
X73667Y-65964D01*
X73739Y-65892D01*
X73778Y-65798D01*
X73778Y-65697D01*
X73739Y-65603D01*
X73712Y-65576D01*
X74319Y-65576D01*
X74291Y-65603D01*
X74252Y-65697D01*
X74252Y-65798D01*
X74291Y-65892D01*
X74363Y-65964D01*
X74456Y-66002D01*
X74558Y-66003D01*
X74652Y-65964D01*
X74723Y-65892D01*
X74762Y-65798D01*
X74762Y-65697D01*
X74724Y-65603D01*
X74696Y-65576D01*
X75303Y-65576D01*
X75276Y-65603D01*
X75237Y-65697D01*
X75237Y-65798D01*
X75275Y-65892D01*
X75347Y-65964D01*
X75441Y-66002D01*
X75542Y-66003D01*
X75636Y-65964D01*
X75708Y-65892D01*
X75747Y-65798D01*
X75747Y-65697D01*
X75708Y-65603D01*
X75680Y-65576D01*
X76287Y-65576D01*
X76260Y-65603D01*
X76221Y-65697D01*
X76221Y-65798D01*
X76260Y-65892D01*
X76331Y-65964D01*
X76425Y-66002D01*
X76526Y-66003D01*
X76620Y-65964D01*
X76692Y-65892D01*
X76731Y-65798D01*
X76731Y-65697D01*
X76692Y-65603D01*
X76665Y-65576D01*
X77271Y-65576D01*
X77244Y-65603D01*
X77205Y-65697D01*
X77205Y-65798D01*
X77244Y-65892D01*
X77315Y-65964D01*
X77409Y-66002D01*
X77511Y-66003D01*
X77604Y-65964D01*
X77676Y-65892D01*
X77715Y-65798D01*
X77715Y-65697D01*
X77676Y-65603D01*
X77649Y-65576D01*
X78256Y-65576D01*
X78228Y-65603D01*
X78189Y-65697D01*
X78189Y-65798D01*
X78228Y-65892D01*
X78300Y-65964D01*
X78393Y-66002D01*
X78495Y-66003D01*
X78589Y-65964D01*
X78660Y-65892D01*
X78699Y-65798D01*
X78699Y-65697D01*
X78661Y-65603D01*
X78589Y-65531D01*
X78587Y-65531D01*
X78587Y-65415D01*
X78622Y-65498D01*
X78693Y-65570D01*
X78787Y-65609D01*
X78889Y-65609D01*
X78982Y-65570D01*
X79054Y-65498D01*
X79093Y-65405D01*
X79093Y-65303D01*
X79054Y-65210D01*
X78983Y-65138D01*
X78889Y-65099D01*
X78788Y-65099D01*
X78694Y-65138D01*
X78622Y-65209D01*
X78587Y-65292D01*
X78587Y-64493D01*
X80847Y-64493D01*
X80847Y-64519D01*
X80886Y-64612D01*
X80896Y-64623D01*
X80858Y-64607D01*
X80756Y-64607D01*
X80662Y-64645D01*
X80591Y-64717D01*
X80552Y-64811D01*
X80552Y-64912D01*
X80590Y-65006D01*
X80662Y-65078D01*
X80734Y-65108D01*
X80662Y-65138D01*
X80591Y-65209D01*
X80552Y-65303D01*
X80552Y-65404D01*
X80590Y-65498D01*
X80662Y-65570D01*
X80756Y-65609D01*
X80857Y-65609D01*
X80951Y-65570D01*
X81023Y-65498D01*
X81062Y-65405D01*
X81062Y-65303D01*
X81023Y-65210D01*
X80951Y-65138D01*
X80879Y-65108D01*
X80951Y-65078D01*
X81023Y-65006D01*
X81062Y-64913D01*
X81062Y-64811D01*
X81023Y-64717D01*
X81012Y-64707D01*
X81051Y-64723D01*
X81152Y-64723D01*
X81246Y-64684D01*
X81318Y-64613D01*
X81357Y-64519D01*
X81357Y-64418D01*
X81318Y-64324D01*
X81246Y-64252D01*
X81153Y-64213D01*
X81051Y-64213D01*
X80958Y-64252D01*
X80910Y-64299D01*
X80910Y-63942D01*
X83316Y-63942D01*
X83454Y-64080D01*
X84476Y-64080D01*
X84429Y-64127D01*
X84390Y-64220D01*
X84390Y-64322D01*
X84429Y-64415D01*
X84501Y-64487D01*
X84594Y-64526D01*
X84696Y-64526D01*
X84789Y-64487D01*
X84861Y-64416D01*
X84900Y-64322D01*
X84900Y-64221D01*
X84861Y-64127D01*
X84790Y-64055D01*
X84696Y-64016D01*
X84680Y-64016D01*
X84852Y-63843D01*
X86048Y-63843D01*
X86048Y-63065D01*
X85707Y-63065D01*
X85707Y-62114D01*
X85669Y-62021D01*
X85597Y-61949D01*
X85503Y-61910D01*
X85402Y-61910D01*
X85353Y-61930D01*
X85353Y-61858D01*
X85314Y-61765D01*
X85243Y-61693D01*
X85149Y-61654D01*
X85047Y-61654D01*
X84954Y-61693D01*
X84940Y-61707D01*
X84940Y-61425D01*
X84901Y-61332D01*
X84829Y-61260D01*
X84735Y-61221D01*
X84703Y-61221D01*
X84703Y-60874D01*
X84703Y-60185D01*
X84703Y-59595D01*
X84665Y-59501D01*
X84593Y-59429D01*
X84499Y-59390D01*
X84398Y-59390D01*
X84304Y-59429D01*
X84232Y-59501D01*
X84193Y-59594D01*
X84193Y-59696D01*
X84232Y-59789D01*
X84304Y-59861D01*
X84397Y-59900D01*
X84499Y-59900D01*
X84593Y-59861D01*
X84664Y-59790D01*
X84703Y-59696D01*
X84703Y-59595D01*
X84703Y-60185D01*
X84665Y-60091D01*
X84593Y-60020D01*
X84499Y-59981D01*
X84398Y-59981D01*
X84304Y-60019D01*
X84232Y-60091D01*
X84193Y-60185D01*
X84193Y-60286D01*
X84232Y-60380D01*
X84304Y-60452D01*
X84397Y-60491D01*
X84499Y-60491D01*
X84593Y-60452D01*
X84664Y-60380D01*
X84703Y-60287D01*
X84703Y-60185D01*
X84703Y-60874D01*
X84665Y-60780D01*
X84593Y-60709D01*
X84499Y-60670D01*
X84398Y-60670D01*
X84304Y-60708D01*
X84232Y-60780D01*
X84193Y-60874D01*
X84193Y-60975D01*
X84232Y-61069D01*
X84304Y-61141D01*
X84397Y-61180D01*
X84499Y-61180D01*
X84593Y-61141D01*
X84664Y-61069D01*
X84703Y-60976D01*
X84703Y-60874D01*
X84703Y-61221D01*
X84634Y-61221D01*
X84540Y-61260D01*
X84468Y-61331D01*
X84430Y-61425D01*
X84429Y-61526D01*
X84468Y-61620D01*
X84540Y-61692D01*
X84634Y-61731D01*
X84735Y-61731D01*
X84829Y-61692D01*
X84901Y-61621D01*
X84939Y-61527D01*
X84940Y-61425D01*
X84940Y-61707D01*
X84882Y-61764D01*
X84843Y-61858D01*
X84843Y-61959D01*
X84882Y-62053D01*
X84953Y-62125D01*
X85047Y-62164D01*
X85148Y-62164D01*
X85197Y-62144D01*
X85197Y-62215D01*
X85236Y-62309D01*
X85308Y-62381D01*
X85401Y-62420D01*
X85503Y-62420D01*
X85597Y-62381D01*
X85668Y-62309D01*
X85707Y-62216D01*
X85707Y-62114D01*
X85707Y-63065D01*
X85640Y-63065D01*
X84754Y-62179D01*
X84546Y-62179D01*
X84546Y-61799D01*
X84507Y-61706D01*
X84435Y-61634D01*
X84342Y-61595D01*
X84240Y-61595D01*
X84172Y-61623D01*
X84172Y-61288D01*
X84133Y-61194D01*
X84061Y-61122D01*
X83968Y-61083D01*
X83866Y-61083D01*
X83773Y-61122D01*
X83701Y-61193D01*
X83662Y-61287D01*
X83662Y-61389D01*
X83701Y-61482D01*
X83772Y-61554D01*
X83866Y-61593D01*
X83967Y-61593D01*
X84061Y-61554D01*
X84133Y-61483D01*
X84172Y-61389D01*
X84172Y-61288D01*
X84172Y-61623D01*
X84147Y-61634D01*
X84075Y-61705D01*
X84036Y-61799D01*
X84036Y-61900D01*
X84075Y-61994D01*
X84146Y-62066D01*
X84240Y-62105D01*
X84341Y-62105D01*
X84435Y-62066D01*
X84507Y-61995D01*
X84546Y-61901D01*
X84546Y-61799D01*
X84546Y-62179D01*
X83621Y-62179D01*
X83621Y-61130D01*
X83582Y-61036D01*
X83510Y-60965D01*
X83417Y-60926D01*
X83315Y-60926D01*
X83221Y-60964D01*
X83150Y-61036D01*
X83111Y-61130D01*
X83111Y-61231D01*
X83149Y-61325D01*
X83221Y-61397D01*
X83315Y-61436D01*
X83416Y-61436D01*
X83510Y-61397D01*
X83582Y-61325D01*
X83621Y-61232D01*
X83621Y-61130D01*
X83621Y-62179D01*
X83407Y-62179D01*
X83490Y-62145D01*
X83562Y-62073D01*
X83601Y-61980D01*
X83601Y-61878D01*
X83562Y-61784D01*
X83491Y-61713D01*
X83397Y-61674D01*
X83295Y-61674D01*
X83202Y-61712D01*
X83130Y-61784D01*
X83091Y-61878D01*
X83091Y-61979D01*
X83130Y-62073D01*
X83201Y-62145D01*
X83284Y-62179D01*
X83070Y-62179D01*
X83070Y-60382D01*
X83031Y-60288D01*
X82959Y-60217D01*
X82865Y-60178D01*
X82764Y-60178D01*
X82670Y-60216D01*
X82598Y-60288D01*
X82560Y-60382D01*
X82559Y-60483D01*
X82598Y-60577D01*
X82670Y-60649D01*
X82764Y-60688D01*
X82865Y-60688D01*
X82959Y-60649D01*
X83031Y-60577D01*
X83069Y-60484D01*
X83070Y-60382D01*
X83070Y-62179D01*
X82853Y-62179D01*
X82853Y-61130D01*
X82814Y-61036D01*
X82743Y-60965D01*
X82649Y-60926D01*
X82547Y-60926D01*
X82454Y-60964D01*
X82382Y-61036D01*
X82343Y-61130D01*
X82343Y-61231D01*
X82382Y-61325D01*
X82453Y-61397D01*
X82547Y-61436D01*
X82648Y-61436D01*
X82742Y-61397D01*
X82814Y-61325D01*
X82853Y-61232D01*
X82853Y-61130D01*
X82853Y-62179D01*
X82785Y-62179D01*
X82372Y-61766D01*
X81928Y-61766D01*
X81928Y-61130D01*
X81889Y-61036D01*
X81817Y-60965D01*
X81724Y-60926D01*
X81622Y-60926D01*
X81528Y-60964D01*
X81457Y-61036D01*
X81418Y-61130D01*
X81418Y-61231D01*
X81456Y-61325D01*
X81528Y-61397D01*
X81622Y-61436D01*
X81723Y-61436D01*
X81817Y-61397D01*
X81889Y-61325D01*
X81928Y-61232D01*
X81928Y-61130D01*
X81928Y-61766D01*
X81820Y-61766D01*
X81751Y-61835D01*
X81751Y-61760D01*
X81712Y-61666D01*
X81640Y-61594D01*
X81547Y-61556D01*
X81445Y-61555D01*
X81351Y-61594D01*
X81280Y-61666D01*
X81241Y-61760D01*
X81241Y-61861D01*
X81279Y-61955D01*
X81307Y-61982D01*
X80897Y-61982D01*
X80924Y-61955D01*
X80963Y-61861D01*
X80963Y-61760D01*
X80924Y-61666D01*
X80853Y-61594D01*
X80759Y-61556D01*
X80658Y-61555D01*
X80564Y-61594D01*
X80492Y-61666D01*
X80453Y-61760D01*
X80453Y-61861D01*
X80492Y-61955D01*
X80519Y-61982D01*
X80353Y-61982D01*
X80353Y-60106D01*
X80314Y-60013D01*
X80243Y-59941D01*
X80149Y-59902D01*
X80047Y-59902D01*
X79954Y-59941D01*
X79882Y-60012D01*
X79843Y-60106D01*
X79843Y-60207D01*
X79882Y-60301D01*
X79953Y-60373D01*
X80047Y-60412D01*
X80148Y-60412D01*
X80242Y-60373D01*
X80314Y-60302D01*
X80353Y-60208D01*
X80353Y-60106D01*
X80353Y-61982D01*
X79913Y-61982D01*
X79940Y-61955D01*
X79979Y-61861D01*
X79979Y-61760D01*
X79940Y-61666D01*
X79869Y-61594D01*
X79775Y-61556D01*
X79673Y-61555D01*
X79580Y-61594D01*
X79508Y-61666D01*
X79469Y-61760D01*
X79469Y-61861D01*
X79508Y-61955D01*
X79535Y-61982D01*
X78928Y-61982D01*
X78956Y-61955D01*
X78995Y-61861D01*
X78995Y-61760D01*
X78956Y-61666D01*
X78884Y-61594D01*
X78791Y-61556D01*
X78689Y-61555D01*
X78595Y-61594D01*
X78524Y-61666D01*
X78522Y-61669D01*
X78522Y-60992D01*
X78484Y-60899D01*
X78412Y-60827D01*
X78318Y-60788D01*
X78217Y-60788D01*
X78123Y-60827D01*
X78051Y-60898D01*
X78012Y-60992D01*
X78012Y-61093D01*
X78051Y-61187D01*
X78123Y-61259D01*
X78216Y-61298D01*
X78318Y-61298D01*
X78411Y-61259D01*
X78483Y-61187D01*
X78522Y-61094D01*
X78522Y-60992D01*
X78522Y-61669D01*
X78485Y-61760D01*
X78485Y-61861D01*
X78523Y-61955D01*
X78551Y-61982D01*
X77944Y-61982D01*
X77971Y-61955D01*
X78010Y-61861D01*
X78010Y-61760D01*
X77972Y-61666D01*
X77900Y-61594D01*
X77806Y-61556D01*
X77705Y-61555D01*
X77611Y-61594D01*
X77539Y-61666D01*
X77500Y-61760D01*
X77500Y-61861D01*
X77539Y-61955D01*
X77567Y-61982D01*
X76960Y-61982D01*
X76987Y-61955D01*
X77026Y-61861D01*
X77026Y-61760D01*
X76987Y-61666D01*
X76928Y-61606D01*
X76928Y-60225D01*
X76889Y-60131D01*
X76817Y-60059D01*
X76724Y-60020D01*
X76622Y-60020D01*
X76528Y-60059D01*
X76457Y-60130D01*
X76418Y-60224D01*
X76418Y-60326D01*
X76456Y-60419D01*
X76528Y-60491D01*
X76622Y-60530D01*
X76723Y-60530D01*
X76817Y-60491D01*
X76889Y-60420D01*
X76928Y-60326D01*
X76928Y-60225D01*
X76928Y-61606D01*
X76916Y-61594D01*
X76822Y-61556D01*
X76721Y-61555D01*
X76627Y-61594D01*
X76555Y-61666D01*
X76516Y-61760D01*
X76516Y-61861D01*
X76555Y-61955D01*
X76582Y-61982D01*
X75976Y-61982D01*
X76003Y-61955D01*
X76042Y-61861D01*
X76042Y-61760D01*
X76003Y-61666D01*
X75932Y-61594D01*
X75838Y-61556D01*
X75736Y-61555D01*
X75643Y-61594D01*
X75571Y-61666D01*
X75532Y-61760D01*
X75532Y-61861D01*
X75571Y-61955D01*
X75598Y-61982D01*
X75136Y-61982D01*
X75136Y-60953D01*
X75098Y-60859D01*
X75026Y-60787D01*
X74932Y-60748D01*
X74831Y-60748D01*
X74737Y-60787D01*
X74665Y-60859D01*
X74626Y-60952D01*
X74626Y-61054D01*
X74665Y-61148D01*
X74737Y-61219D01*
X74830Y-61258D01*
X74932Y-61258D01*
X75026Y-61220D01*
X75097Y-61148D01*
X75136Y-61054D01*
X75136Y-60953D01*
X75136Y-61982D01*
X74991Y-61982D01*
X75019Y-61955D01*
X75058Y-61861D01*
X75058Y-61760D01*
X75019Y-61666D01*
X74947Y-61594D01*
X74854Y-61556D01*
X74752Y-61555D01*
X74658Y-61594D01*
X74587Y-61666D01*
X74548Y-61760D01*
X74548Y-61861D01*
X74586Y-61955D01*
X74614Y-61982D01*
X74007Y-61982D01*
X74034Y-61955D01*
X74073Y-61861D01*
X74073Y-61760D01*
X74035Y-61666D01*
X73963Y-61594D01*
X73896Y-61567D01*
X73896Y-60225D01*
X73858Y-60131D01*
X73786Y-60059D01*
X73692Y-60020D01*
X73591Y-60020D01*
X73497Y-60059D01*
X73425Y-60130D01*
X73386Y-60224D01*
X73386Y-60326D01*
X73425Y-60419D01*
X73497Y-60491D01*
X73590Y-60530D01*
X73692Y-60530D01*
X73785Y-60491D01*
X73857Y-60420D01*
X73896Y-60326D01*
X73896Y-60225D01*
X73896Y-61567D01*
X73869Y-61556D01*
X73768Y-61555D01*
X73674Y-61594D01*
X73602Y-61666D01*
X73563Y-61760D01*
X73563Y-61861D01*
X73602Y-61955D01*
X73630Y-61982D01*
X73023Y-61982D01*
X73050Y-61955D01*
X73089Y-61861D01*
X73089Y-61760D01*
X73050Y-61666D01*
X72979Y-61594D01*
X72885Y-61556D01*
X72784Y-61555D01*
X72690Y-61594D01*
X72618Y-61666D01*
X72579Y-61760D01*
X72579Y-61861D01*
X72580Y-61863D01*
X72400Y-61781D01*
X72400Y-61169D01*
X72400Y-60185D01*
X72361Y-60091D01*
X72290Y-60020D01*
X72196Y-59981D01*
X72095Y-59981D01*
X72001Y-60019D01*
X71929Y-60091D01*
X71890Y-60185D01*
X71890Y-60286D01*
X71929Y-60380D01*
X72001Y-60452D01*
X72094Y-60491D01*
X72196Y-60491D01*
X72289Y-60452D01*
X72361Y-60380D01*
X72400Y-60287D01*
X72400Y-60185D01*
X72400Y-61169D01*
X72361Y-61076D01*
X72290Y-61004D01*
X72196Y-60965D01*
X72095Y-60965D01*
X72001Y-61004D01*
X71929Y-61075D01*
X71890Y-61169D01*
X71890Y-61270D01*
X71929Y-61364D01*
X72001Y-61436D01*
X72094Y-61475D01*
X72196Y-61475D01*
X72289Y-61436D01*
X72361Y-61365D01*
X72400Y-61271D01*
X72400Y-61169D01*
X72400Y-61781D01*
X71895Y-61549D01*
X71711Y-61549D01*
X71711Y-59792D01*
X71711Y-59201D01*
X71672Y-59107D01*
X71601Y-59035D01*
X71507Y-58997D01*
X71406Y-58996D01*
X71312Y-59035D01*
X71240Y-59107D01*
X71201Y-59201D01*
X71201Y-59302D01*
X71240Y-59396D01*
X71312Y-59468D01*
X71405Y-59506D01*
X71507Y-59507D01*
X71600Y-59468D01*
X71672Y-59396D01*
X71711Y-59302D01*
X71711Y-59201D01*
X71711Y-59792D01*
X71672Y-59698D01*
X71601Y-59626D01*
X71507Y-59587D01*
X71406Y-59587D01*
X71312Y-59626D01*
X71240Y-59697D01*
X71201Y-59791D01*
X71201Y-59893D01*
X71240Y-59986D01*
X71312Y-60058D01*
X71405Y-60097D01*
X71507Y-60097D01*
X71600Y-60058D01*
X71672Y-59987D01*
X71711Y-59893D01*
X71711Y-59792D01*
X71711Y-61549D01*
X70727Y-61549D01*
X70727Y-59792D01*
X70727Y-59201D01*
X70688Y-59107D01*
X70617Y-59035D01*
X70523Y-58997D01*
X70421Y-58996D01*
X70328Y-59035D01*
X70256Y-59107D01*
X70217Y-59201D01*
X70217Y-59302D01*
X70256Y-59396D01*
X70327Y-59468D01*
X70421Y-59506D01*
X70522Y-59507D01*
X70616Y-59468D01*
X70688Y-59396D01*
X70727Y-59302D01*
X70727Y-59201D01*
X70727Y-59792D01*
X70688Y-59698D01*
X70617Y-59626D01*
X70523Y-59587D01*
X70421Y-59587D01*
X70328Y-59626D01*
X70256Y-59697D01*
X70217Y-59791D01*
X70217Y-59893D01*
X70256Y-59986D01*
X70327Y-60058D01*
X70421Y-60097D01*
X70522Y-60097D01*
X70616Y-60058D01*
X70688Y-59987D01*
X70727Y-59893D01*
X70727Y-59792D01*
X70727Y-61549D01*
X69316Y-61549D01*
X69316Y-60031D01*
X69343Y-60058D01*
X69437Y-60097D01*
X69538Y-60097D01*
X69632Y-60058D01*
X69704Y-59987D01*
X69743Y-59893D01*
X69743Y-59792D01*
X69704Y-59698D01*
X69632Y-59626D01*
X69539Y-59587D01*
X69437Y-59587D01*
X69343Y-59626D01*
X69316Y-59653D01*
X69316Y-59440D01*
X69343Y-59468D01*
X69437Y-59506D01*
X69538Y-59507D01*
X69632Y-59468D01*
X69704Y-59396D01*
X69743Y-59302D01*
X69743Y-59201D01*
X69704Y-59107D01*
X69632Y-59035D01*
X69539Y-58997D01*
X69437Y-58996D01*
X69343Y-59035D01*
X69316Y-59063D01*
X69316Y-57800D01*
X71956Y-57800D01*
X71929Y-57827D01*
X71890Y-57921D01*
X71890Y-58022D01*
X71929Y-58116D01*
X72001Y-58188D01*
X72094Y-58227D01*
X72196Y-58227D01*
X72289Y-58188D01*
X72361Y-58117D01*
X72400Y-58023D01*
X72400Y-57921D01*
X72361Y-57828D01*
X72334Y-57800D01*
X72514Y-57800D01*
X72514Y-59203D01*
X72491Y-59193D01*
X72400Y-59193D01*
X72400Y-58709D01*
X72361Y-58615D01*
X72290Y-58543D01*
X72196Y-58504D01*
X72095Y-58504D01*
X72001Y-58543D01*
X71929Y-58615D01*
X71890Y-58708D01*
X71890Y-58810D01*
X71929Y-58904D01*
X72001Y-58975D01*
X72094Y-59014D01*
X72196Y-59014D01*
X72289Y-58976D01*
X72361Y-58904D01*
X72400Y-58810D01*
X72400Y-58709D01*
X72400Y-59193D01*
X72390Y-59193D01*
X72296Y-59232D01*
X72224Y-59304D01*
X72185Y-59397D01*
X72185Y-59499D01*
X72224Y-59593D01*
X72296Y-59664D01*
X72389Y-59703D01*
X72491Y-59703D01*
X72585Y-59665D01*
X72656Y-59593D01*
X72695Y-59499D01*
X72695Y-59398D01*
X72657Y-59304D01*
X72629Y-59276D01*
X73236Y-59276D01*
X73209Y-59304D01*
X73170Y-59397D01*
X73170Y-59499D01*
X73208Y-59593D01*
X73280Y-59664D01*
X73374Y-59703D01*
X73475Y-59703D01*
X73569Y-59665D01*
X73641Y-59593D01*
X73680Y-59499D01*
X73680Y-59398D01*
X73641Y-59304D01*
X73613Y-59276D01*
X74220Y-59276D01*
X74193Y-59304D01*
X74154Y-59397D01*
X74154Y-59499D01*
X74193Y-59593D01*
X74264Y-59664D01*
X74358Y-59703D01*
X74459Y-59703D01*
X74553Y-59665D01*
X74625Y-59593D01*
X74664Y-59499D01*
X74664Y-59398D01*
X74625Y-59304D01*
X74598Y-59276D01*
X75204Y-59276D01*
X75177Y-59304D01*
X75138Y-59397D01*
X75138Y-59499D01*
X75177Y-59593D01*
X75249Y-59664D01*
X75342Y-59703D01*
X75444Y-59703D01*
X75537Y-59665D01*
X75609Y-59593D01*
X75648Y-59499D01*
X75648Y-59398D01*
X75610Y-59304D01*
X75582Y-59276D01*
X76189Y-59276D01*
X76161Y-59304D01*
X76122Y-59397D01*
X76122Y-59499D01*
X76161Y-59593D01*
X76233Y-59664D01*
X76327Y-59703D01*
X76428Y-59703D01*
X76522Y-59665D01*
X76594Y-59593D01*
X76632Y-59499D01*
X76632Y-59398D01*
X76594Y-59304D01*
X76566Y-59276D01*
X77173Y-59276D01*
X77146Y-59304D01*
X77107Y-59397D01*
X77107Y-59499D01*
X77145Y-59593D01*
X77217Y-59664D01*
X77311Y-59703D01*
X77412Y-59703D01*
X77506Y-59665D01*
X77578Y-59593D01*
X77617Y-59499D01*
X77617Y-59398D01*
X77578Y-59304D01*
X77550Y-59276D01*
X78157Y-59276D01*
X78130Y-59304D01*
X78091Y-59397D01*
X78091Y-59499D01*
X78130Y-59593D01*
X78201Y-59664D01*
X78295Y-59703D01*
X78396Y-59703D01*
X78490Y-59665D01*
X78562Y-59593D01*
X78601Y-59499D01*
X78601Y-59398D01*
X78562Y-59304D01*
X78535Y-59276D01*
X79141Y-59276D01*
X79114Y-59304D01*
X79075Y-59397D01*
X79075Y-59499D01*
X79114Y-59593D01*
X79186Y-59664D01*
X79279Y-59703D01*
X79381Y-59703D01*
X79474Y-59665D01*
X79546Y-59593D01*
X79585Y-59499D01*
X79585Y-59398D01*
X79547Y-59304D01*
X79519Y-59276D01*
X80126Y-59276D01*
X80098Y-59304D01*
X80060Y-59397D01*
X80059Y-59499D01*
X80098Y-59593D01*
X80170Y-59664D01*
X80264Y-59703D01*
X80365Y-59703D01*
X80459Y-59665D01*
X80531Y-59593D01*
X80569Y-59499D01*
X80570Y-59398D01*
X80531Y-59304D01*
X80503Y-59276D01*
X81110Y-59276D01*
X81083Y-59304D01*
X81044Y-59397D01*
X81044Y-59499D01*
X81082Y-59593D01*
X81154Y-59664D01*
X81248Y-59703D01*
X81349Y-59703D01*
X81443Y-59665D01*
X81515Y-59593D01*
X81554Y-59499D01*
X81554Y-59398D01*
X81515Y-59304D01*
X81487Y-59276D01*
X82094Y-59276D01*
X82067Y-59304D01*
X82028Y-59397D01*
X82028Y-59499D01*
X82067Y-59593D01*
X82138Y-59664D01*
X82232Y-59703D01*
X82333Y-59703D01*
X82427Y-59665D01*
X82499Y-59593D01*
X82538Y-59499D01*
X82538Y-59398D01*
X82499Y-59304D01*
X82472Y-59276D01*
X83078Y-59276D01*
X83051Y-59304D01*
X83012Y-59397D01*
X83012Y-59499D01*
X83051Y-59593D01*
X83123Y-59664D01*
X83216Y-59703D01*
X83318Y-59703D01*
X83411Y-59665D01*
X83483Y-59593D01*
X83522Y-59499D01*
X83522Y-59398D01*
X83484Y-59304D01*
X83456Y-59276D01*
X83868Y-59276D01*
X83996Y-59148D01*
X83996Y-59204D01*
X84035Y-59297D01*
X84107Y-59369D01*
X84201Y-59408D01*
X84302Y-59408D01*
X84396Y-59369D01*
X84468Y-59298D01*
X84506Y-59204D01*
X84507Y-59103D01*
X84503Y-59093D01*
X84558Y-59093D01*
X84652Y-59054D01*
X84723Y-58983D01*
X84762Y-58889D01*
X84762Y-58788D01*
X84724Y-58694D01*
X84652Y-58622D01*
X84561Y-58584D01*
X84619Y-58525D01*
X84645Y-58589D01*
X84717Y-58660D01*
X84811Y-58699D01*
X84912Y-58699D01*
X85006Y-58661D01*
X85078Y-58589D01*
X85117Y-58495D01*
X85117Y-58394D01*
X85078Y-58300D01*
X85006Y-58228D01*
X84913Y-58189D01*
X84811Y-58189D01*
X84717Y-58228D01*
X84670Y-58275D01*
X84670Y-57846D01*
X84737Y-57912D01*
X84830Y-57951D01*
X84932Y-57951D01*
X85026Y-57913D01*
X85097Y-57841D01*
X85118Y-57792D01*
X85138Y-57841D01*
X85209Y-57912D01*
X85303Y-57951D01*
X85404Y-57951D01*
X85498Y-57913D01*
X85570Y-57841D01*
X85609Y-57747D01*
X85609Y-57646D01*
X85570Y-57552D01*
X85498Y-57480D01*
X85405Y-57441D01*
X85303Y-57441D01*
X85210Y-57480D01*
X85138Y-57552D01*
X85118Y-57600D01*
X85098Y-57552D01*
X85026Y-57480D01*
X84932Y-57441D01*
X84831Y-57441D01*
X84737Y-57480D01*
X84670Y-57547D01*
X84670Y-56959D01*
X84685Y-56994D01*
X84756Y-57066D01*
X84850Y-57105D01*
X84952Y-57105D01*
X85045Y-57066D01*
X85117Y-56995D01*
X85156Y-56901D01*
X85156Y-56799D01*
X85117Y-56706D01*
X85046Y-56634D01*
X84952Y-56595D01*
X84851Y-56595D01*
X84757Y-56634D01*
X84685Y-56705D01*
X84670Y-56741D01*
X84670Y-55895D01*
X84640Y-55865D01*
X84696Y-55865D01*
X84789Y-55826D01*
X84861Y-55754D01*
X84900Y-55661D01*
X84900Y-55559D01*
X84861Y-55465D01*
X84790Y-55394D01*
X84717Y-55364D01*
X84789Y-55334D01*
X84861Y-55262D01*
X84900Y-55169D01*
X84900Y-55067D01*
X84861Y-54973D01*
X84790Y-54902D01*
X84765Y-54891D01*
X84789Y-54881D01*
X84861Y-54809D01*
X84900Y-54716D01*
X84900Y-54614D01*
X84861Y-54521D01*
X84861Y-54520D01*
X84861Y-53394D01*
X84822Y-53300D01*
X84750Y-53228D01*
X84657Y-53189D01*
X84585Y-53189D01*
X84585Y-52390D01*
X84585Y-51091D01*
X84547Y-50997D01*
X84475Y-50925D01*
X84381Y-50886D01*
X84280Y-50886D01*
X84186Y-50925D01*
X84114Y-50997D01*
X84075Y-51090D01*
X84075Y-51192D01*
X84114Y-51285D01*
X84186Y-51357D01*
X84279Y-51396D01*
X84381Y-51396D01*
X84474Y-51358D01*
X84546Y-51286D01*
X84585Y-51192D01*
X84585Y-51091D01*
X84585Y-52390D01*
X84547Y-52296D01*
X84475Y-52224D01*
X84381Y-52185D01*
X84280Y-52185D01*
X84186Y-52224D01*
X84114Y-52296D01*
X84075Y-52389D01*
X84075Y-52491D01*
X84114Y-52585D01*
X84186Y-52656D01*
X84279Y-52695D01*
X84381Y-52695D01*
X84474Y-52657D01*
X84546Y-52585D01*
X84585Y-52491D01*
X84585Y-52390D01*
X84585Y-53189D01*
X84555Y-53189D01*
X84462Y-53228D01*
X84390Y-53300D01*
X84351Y-53393D01*
X84351Y-53495D01*
X84389Y-53589D01*
X84461Y-53660D01*
X84555Y-53699D01*
X84656Y-53699D01*
X84750Y-53661D01*
X84822Y-53589D01*
X84861Y-53495D01*
X84861Y-53394D01*
X84861Y-54520D01*
X84790Y-54449D01*
X84696Y-54410D01*
X84595Y-54410D01*
X84501Y-54449D01*
X84429Y-54520D01*
X84390Y-54614D01*
X84390Y-54715D01*
X84429Y-54809D01*
X84501Y-54881D01*
X84525Y-54891D01*
X84501Y-54901D01*
X84429Y-54973D01*
X84390Y-55067D01*
X84390Y-55168D01*
X84429Y-55262D01*
X84501Y-55334D01*
X84573Y-55364D01*
X84501Y-55393D01*
X84429Y-55465D01*
X84390Y-55559D01*
X84390Y-55615D01*
X84065Y-55289D01*
X83877Y-55289D01*
X83877Y-53827D01*
X83838Y-53733D01*
X83766Y-53661D01*
X83672Y-53622D01*
X83621Y-53622D01*
X83621Y-52114D01*
X83621Y-51091D01*
X83582Y-50997D01*
X83510Y-50925D01*
X83417Y-50886D01*
X83315Y-50886D01*
X83221Y-50925D01*
X83150Y-50997D01*
X83111Y-51090D01*
X83111Y-51192D01*
X83149Y-51285D01*
X83221Y-51357D01*
X83315Y-51396D01*
X83416Y-51396D01*
X83510Y-51358D01*
X83582Y-51286D01*
X83621Y-51192D01*
X83621Y-51091D01*
X83621Y-52114D01*
X83582Y-52021D01*
X83510Y-51949D01*
X83417Y-51910D01*
X83315Y-51910D01*
X83221Y-51949D01*
X83150Y-52020D01*
X83111Y-52114D01*
X83111Y-52215D01*
X83149Y-52309D01*
X83221Y-52381D01*
X83315Y-52420D01*
X83416Y-52420D01*
X83510Y-52381D01*
X83582Y-52309D01*
X83621Y-52216D01*
X83621Y-52114D01*
X83621Y-53622D01*
X83571Y-53622D01*
X83477Y-53661D01*
X83405Y-53733D01*
X83367Y-53827D01*
X83367Y-53928D01*
X83405Y-54022D01*
X83477Y-54094D01*
X83571Y-54132D01*
X83672Y-54132D01*
X83766Y-54094D01*
X83838Y-54022D01*
X83877Y-53928D01*
X83877Y-53827D01*
X83877Y-55289D01*
X83161Y-55289D01*
X83188Y-55262D01*
X83227Y-55169D01*
X83227Y-55067D01*
X83188Y-54973D01*
X83117Y-54902D01*
X83030Y-54866D01*
X83030Y-51091D01*
X82991Y-50997D01*
X82920Y-50925D01*
X82826Y-50886D01*
X82725Y-50886D01*
X82631Y-50925D01*
X82559Y-50997D01*
X82520Y-51090D01*
X82520Y-51192D01*
X82559Y-51285D01*
X82630Y-51357D01*
X82724Y-51396D01*
X82826Y-51396D01*
X82919Y-51358D01*
X82991Y-51286D01*
X83030Y-51192D01*
X83030Y-51091D01*
X83030Y-54866D01*
X83023Y-54863D01*
X82921Y-54863D01*
X82828Y-54901D01*
X82756Y-54973D01*
X82735Y-55024D01*
X82735Y-52902D01*
X82696Y-52808D01*
X82624Y-52736D01*
X82552Y-52706D01*
X82624Y-52676D01*
X82696Y-52605D01*
X82735Y-52511D01*
X82735Y-52410D01*
X82696Y-52316D01*
X82624Y-52244D01*
X82531Y-52205D01*
X82429Y-52205D01*
X82336Y-52244D01*
X82264Y-52315D01*
X82225Y-52409D01*
X82225Y-52511D01*
X82264Y-52604D01*
X82335Y-52676D01*
X82408Y-52706D01*
X82336Y-52736D01*
X82264Y-52808D01*
X82225Y-52901D01*
X82225Y-53003D01*
X82264Y-53097D01*
X82335Y-53168D01*
X82429Y-53207D01*
X82530Y-53207D01*
X82624Y-53169D01*
X82696Y-53097D01*
X82735Y-53003D01*
X82735Y-52902D01*
X82735Y-55024D01*
X82717Y-55067D01*
X82717Y-55168D01*
X82756Y-55262D01*
X82783Y-55289D01*
X82373Y-55289D01*
X82401Y-55262D01*
X82439Y-55169D01*
X82440Y-55067D01*
X82401Y-54973D01*
X82329Y-54902D01*
X82235Y-54863D01*
X82134Y-54863D01*
X82046Y-54899D01*
X82046Y-52902D01*
X82007Y-52808D01*
X81935Y-52736D01*
X81842Y-52697D01*
X81740Y-52697D01*
X81647Y-52736D01*
X81575Y-52808D01*
X81536Y-52901D01*
X81536Y-53003D01*
X81575Y-53097D01*
X81646Y-53168D01*
X81740Y-53207D01*
X81841Y-53207D01*
X81935Y-53169D01*
X82007Y-53097D01*
X82046Y-53003D01*
X82046Y-52902D01*
X82046Y-54899D01*
X82040Y-54901D01*
X81997Y-54944D01*
X81997Y-54133D01*
X81974Y-54017D01*
X81908Y-53918D01*
X81809Y-53852D01*
X81692Y-53828D01*
X81576Y-53852D01*
X81554Y-53866D01*
X81554Y-53492D01*
X81515Y-53399D01*
X81455Y-53339D01*
X81455Y-51032D01*
X81417Y-50938D01*
X81345Y-50866D01*
X81251Y-50827D01*
X81150Y-50827D01*
X81056Y-50866D01*
X80984Y-50938D01*
X80945Y-51031D01*
X80945Y-51133D01*
X80984Y-51226D01*
X81056Y-51298D01*
X81149Y-51337D01*
X81251Y-51337D01*
X81345Y-51298D01*
X81416Y-51227D01*
X81455Y-51133D01*
X81455Y-51032D01*
X81455Y-53339D01*
X81443Y-53327D01*
X81350Y-53288D01*
X81248Y-53288D01*
X81154Y-53327D01*
X81083Y-53398D01*
X81044Y-53492D01*
X81044Y-53593D01*
X81082Y-53687D01*
X81154Y-53759D01*
X81248Y-53798D01*
X81349Y-53798D01*
X81443Y-53759D01*
X81515Y-53687D01*
X81554Y-53594D01*
X81554Y-53492D01*
X81554Y-53866D01*
X81477Y-53918D01*
X81411Y-54017D01*
X81387Y-54133D01*
X81387Y-54944D01*
X81345Y-54902D01*
X81251Y-54863D01*
X81150Y-54863D01*
X81056Y-54901D01*
X80984Y-54973D01*
X80954Y-55045D01*
X80924Y-54973D01*
X80865Y-54914D01*
X80865Y-54181D01*
X80865Y-50441D01*
X80826Y-50347D01*
X80754Y-50276D01*
X80661Y-50237D01*
X80559Y-50237D01*
X80465Y-50275D01*
X80394Y-50347D01*
X80355Y-50441D01*
X80355Y-50542D01*
X80393Y-50636D01*
X80465Y-50708D01*
X80559Y-50747D01*
X80660Y-50747D01*
X80754Y-50708D01*
X80826Y-50636D01*
X80865Y-50543D01*
X80865Y-50441D01*
X80865Y-54181D01*
X80826Y-54088D01*
X80754Y-54016D01*
X80661Y-53977D01*
X80559Y-53977D01*
X80465Y-54015D01*
X80394Y-54087D01*
X80355Y-54181D01*
X80355Y-54282D01*
X80393Y-54376D01*
X80465Y-54448D01*
X80559Y-54487D01*
X80660Y-54487D01*
X80754Y-54448D01*
X80826Y-54376D01*
X80865Y-54283D01*
X80865Y-54181D01*
X80865Y-54914D01*
X80853Y-54902D01*
X80759Y-54863D01*
X80658Y-54863D01*
X80564Y-54901D01*
X80492Y-54973D01*
X80453Y-55067D01*
X80453Y-55168D01*
X80492Y-55262D01*
X80519Y-55289D01*
X79913Y-55289D01*
X79940Y-55262D01*
X79979Y-55169D01*
X79979Y-55067D01*
X79940Y-54973D01*
X79869Y-54902D01*
X79775Y-54863D01*
X79673Y-54863D01*
X79580Y-54901D01*
X79508Y-54973D01*
X79469Y-55067D01*
X79469Y-55168D01*
X79508Y-55262D01*
X79535Y-55289D01*
X78928Y-55289D01*
X78956Y-55262D01*
X78995Y-55169D01*
X78995Y-55067D01*
X78956Y-54973D01*
X78884Y-54902D01*
X78791Y-54863D01*
X78689Y-54863D01*
X78595Y-54901D01*
X78524Y-54973D01*
X78485Y-55067D01*
X78485Y-55168D01*
X78523Y-55262D01*
X78551Y-55289D01*
X77944Y-55289D01*
X77971Y-55262D01*
X78010Y-55169D01*
X78010Y-55067D01*
X77972Y-54973D01*
X77900Y-54902D01*
X77806Y-54863D01*
X77705Y-54863D01*
X77611Y-54901D01*
X77539Y-54973D01*
X77500Y-55067D01*
X77500Y-55168D01*
X77539Y-55262D01*
X77567Y-55289D01*
X76960Y-55289D01*
X76987Y-55262D01*
X77026Y-55169D01*
X77026Y-55067D01*
X76987Y-54973D01*
X76916Y-54902D01*
X76822Y-54863D01*
X76721Y-54863D01*
X76627Y-54901D01*
X76555Y-54973D01*
X76516Y-55067D01*
X76516Y-55168D01*
X76555Y-55262D01*
X76582Y-55289D01*
X75976Y-55289D01*
X76003Y-55262D01*
X76042Y-55169D01*
X76042Y-55067D01*
X76003Y-54973D01*
X75932Y-54902D01*
X75838Y-54863D01*
X75736Y-54863D01*
X75643Y-54901D01*
X75571Y-54973D01*
X75532Y-55067D01*
X75532Y-55168D01*
X75571Y-55262D01*
X75598Y-55289D01*
X74991Y-55289D01*
X75019Y-55262D01*
X75058Y-55169D01*
X75058Y-55067D01*
X75019Y-54973D01*
X74947Y-54902D01*
X74854Y-54863D01*
X74752Y-54863D01*
X74658Y-54901D01*
X74587Y-54973D01*
X74548Y-55067D01*
X74548Y-55168D01*
X74586Y-55262D01*
X74614Y-55289D01*
X74007Y-55289D01*
X74034Y-55262D01*
X74073Y-55169D01*
X74073Y-55067D01*
X74035Y-54973D01*
X73963Y-54902D01*
X73869Y-54863D01*
X73768Y-54863D01*
X73674Y-54901D01*
X73602Y-54973D01*
X73563Y-55067D01*
X73563Y-55168D01*
X73602Y-55262D01*
X73630Y-55289D01*
X73023Y-55289D01*
X73050Y-55262D01*
X73089Y-55169D01*
X73089Y-55067D01*
X73089Y-54083D01*
X73089Y-52902D01*
X73089Y-51721D01*
X73089Y-50540D01*
X73050Y-50446D01*
X72979Y-50374D01*
X72885Y-50335D01*
X72784Y-50335D01*
X72690Y-50374D01*
X72618Y-50445D01*
X72579Y-50539D01*
X72579Y-50641D01*
X72618Y-50734D01*
X72690Y-50806D01*
X72783Y-50845D01*
X72885Y-50845D01*
X72978Y-50806D01*
X73050Y-50735D01*
X73089Y-50641D01*
X73089Y-50540D01*
X73089Y-51721D01*
X73050Y-51627D01*
X72979Y-51555D01*
X72885Y-51516D01*
X72784Y-51516D01*
X72690Y-51555D01*
X72618Y-51627D01*
X72579Y-51720D01*
X72579Y-51822D01*
X72618Y-51915D01*
X72690Y-51987D01*
X72783Y-52026D01*
X72885Y-52026D01*
X72978Y-51987D01*
X73050Y-51916D01*
X73089Y-51822D01*
X73089Y-51721D01*
X73089Y-52902D01*
X73050Y-52808D01*
X72979Y-52736D01*
X72885Y-52697D01*
X72784Y-52697D01*
X72690Y-52736D01*
X72618Y-52808D01*
X72579Y-52901D01*
X72579Y-53003D01*
X72618Y-53097D01*
X72690Y-53168D01*
X72783Y-53207D01*
X72885Y-53207D01*
X72978Y-53169D01*
X73050Y-53097D01*
X73089Y-53003D01*
X73089Y-52902D01*
X73089Y-54083D01*
X73050Y-53989D01*
X72979Y-53917D01*
X72885Y-53878D01*
X72784Y-53878D01*
X72690Y-53917D01*
X72618Y-53989D01*
X72579Y-54082D01*
X72579Y-54184D01*
X72618Y-54278D01*
X72690Y-54349D01*
X72783Y-54388D01*
X72885Y-54388D01*
X72978Y-54350D01*
X73050Y-54278D01*
X73089Y-54184D01*
X73089Y-54083D01*
X73089Y-55067D01*
X73050Y-54973D01*
X72979Y-54902D01*
X72885Y-54863D01*
X72784Y-54863D01*
X72690Y-54901D01*
X72618Y-54973D01*
X72579Y-55067D01*
X72579Y-55168D01*
X72604Y-55229D01*
X72400Y-55176D01*
X72400Y-54673D01*
X72400Y-53689D01*
X72361Y-53595D01*
X72302Y-53536D01*
X72302Y-50146D01*
X72263Y-50052D01*
X72191Y-49980D01*
X72098Y-49941D01*
X71996Y-49941D01*
X71902Y-49980D01*
X71831Y-50052D01*
X71792Y-50145D01*
X71792Y-50247D01*
X71830Y-50341D01*
X71902Y-50412D01*
X71996Y-50451D01*
X72097Y-50451D01*
X72191Y-50413D01*
X72263Y-50341D01*
X72302Y-50247D01*
X72302Y-50146D01*
X72302Y-53536D01*
X72290Y-53524D01*
X72196Y-53485D01*
X72095Y-53485D01*
X72001Y-53523D01*
X71929Y-53595D01*
X71890Y-53689D01*
X71890Y-53790D01*
X71929Y-53884D01*
X72001Y-53956D01*
X72094Y-53995D01*
X72196Y-53995D01*
X72289Y-53956D01*
X72361Y-53884D01*
X72400Y-53791D01*
X72400Y-53689D01*
X72400Y-54673D01*
X72361Y-54580D01*
X72290Y-54508D01*
X72196Y-54469D01*
X72095Y-54469D01*
X72001Y-54508D01*
X71929Y-54579D01*
X71890Y-54673D01*
X71890Y-54774D01*
X71929Y-54868D01*
X72001Y-54940D01*
X72094Y-54979D01*
X72196Y-54979D01*
X72289Y-54940D01*
X72361Y-54869D01*
X72400Y-54775D01*
X72400Y-54673D01*
X72400Y-55176D01*
X71853Y-55034D01*
X71711Y-55035D01*
X71711Y-53295D01*
X71672Y-53202D01*
X71601Y-53130D01*
X71514Y-53094D01*
X71514Y-51721D01*
X71476Y-51627D01*
X71404Y-51555D01*
X71310Y-51516D01*
X71209Y-51516D01*
X71121Y-51553D01*
X71121Y-50146D01*
X71082Y-50052D01*
X71010Y-49980D01*
X70917Y-49941D01*
X70815Y-49941D01*
X70721Y-49980D01*
X70650Y-50052D01*
X70611Y-50145D01*
X70611Y-50247D01*
X70649Y-50341D01*
X70721Y-50412D01*
X70815Y-50451D01*
X70916Y-50451D01*
X71010Y-50413D01*
X71082Y-50341D01*
X71121Y-50247D01*
X71121Y-50146D01*
X71121Y-51553D01*
X71115Y-51555D01*
X71043Y-51627D01*
X71004Y-51720D01*
X71004Y-51822D01*
X71043Y-51915D01*
X71115Y-51987D01*
X71208Y-52026D01*
X71310Y-52026D01*
X71404Y-51987D01*
X71475Y-51916D01*
X71514Y-51822D01*
X71514Y-51721D01*
X71514Y-53094D01*
X71507Y-53091D01*
X71406Y-53091D01*
X71312Y-53130D01*
X71240Y-53201D01*
X71201Y-53295D01*
X71201Y-53396D01*
X71240Y-53490D01*
X71312Y-53562D01*
X71405Y-53601D01*
X71507Y-53601D01*
X71600Y-53562D01*
X71672Y-53491D01*
X71711Y-53397D01*
X71711Y-53295D01*
X71711Y-55035D01*
X70727Y-55042D01*
X70727Y-53295D01*
X70688Y-53202D01*
X70617Y-53130D01*
X70523Y-53091D01*
X70421Y-53091D01*
X70328Y-53130D01*
X70256Y-53201D01*
X70217Y-53295D01*
X70217Y-53396D01*
X70256Y-53490D01*
X70327Y-53562D01*
X70421Y-53601D01*
X70522Y-53601D01*
X70616Y-53562D01*
X70688Y-53491D01*
X70727Y-53397D01*
X70727Y-53295D01*
X70727Y-55042D01*
X69940Y-55048D01*
X69940Y-52508D01*
X69940Y-51327D01*
X69940Y-50146D01*
X69901Y-50052D01*
X69829Y-49980D01*
X69735Y-49941D01*
X69634Y-49941D01*
X69540Y-49980D01*
X69468Y-50052D01*
X69430Y-50145D01*
X69429Y-50247D01*
X69468Y-50341D01*
X69540Y-50412D01*
X69634Y-50451D01*
X69735Y-50451D01*
X69829Y-50413D01*
X69901Y-50341D01*
X69939Y-50247D01*
X69940Y-50146D01*
X69940Y-51327D01*
X69901Y-51233D01*
X69829Y-51161D01*
X69735Y-51122D01*
X69634Y-51122D01*
X69540Y-51161D01*
X69468Y-51233D01*
X69430Y-51327D01*
X69429Y-51428D01*
X69468Y-51522D01*
X69540Y-51594D01*
X69634Y-51632D01*
X69735Y-51632D01*
X69829Y-51594D01*
X69901Y-51522D01*
X69939Y-51428D01*
X69940Y-51327D01*
X69940Y-52508D01*
X69901Y-52414D01*
X69829Y-52343D01*
X69735Y-52304D01*
X69634Y-52304D01*
X69540Y-52342D01*
X69468Y-52414D01*
X69430Y-52508D01*
X69429Y-52609D01*
X69468Y-52703D01*
X69540Y-52775D01*
X69634Y-52814D01*
X69735Y-52814D01*
X69829Y-52775D01*
X69901Y-52703D01*
X69939Y-52610D01*
X69940Y-52508D01*
X69940Y-55048D01*
X69316Y-55053D01*
X69316Y-53535D01*
X69343Y-53562D01*
X69437Y-53601D01*
X69538Y-53601D01*
X69632Y-53562D01*
X69704Y-53491D01*
X69743Y-53397D01*
X69743Y-53295D01*
X69704Y-53202D01*
X69632Y-53130D01*
X69539Y-53091D01*
X69437Y-53091D01*
X69343Y-53130D01*
X69316Y-53157D01*
X69316Y-49828D01*
X79929Y-49828D01*
X79902Y-49855D01*
X79863Y-49949D01*
X79863Y-50050D01*
X79901Y-50144D01*
X79973Y-50216D01*
X80067Y-50254D01*
X80168Y-50255D01*
X80262Y-50216D01*
X80334Y-50144D01*
X80373Y-50050D01*
X80373Y-49949D01*
X80334Y-49855D01*
X80306Y-49828D01*
X81307Y-49828D01*
X81280Y-49855D01*
X81241Y-49949D01*
X81241Y-50050D01*
X81279Y-50144D01*
X81351Y-50216D01*
X81445Y-50254D01*
X81546Y-50255D01*
X81640Y-50216D01*
X81712Y-50144D01*
X81751Y-50050D01*
X81751Y-49949D01*
X81712Y-49855D01*
X81684Y-49828D01*
X85604Y-49828D01*
X85604Y-50926D01*
X85579Y-50926D01*
X85485Y-50964D01*
X85413Y-51036D01*
X85374Y-51130D01*
X85374Y-51231D01*
X85413Y-51325D01*
X85485Y-51397D01*
X85578Y-51436D01*
X85604Y-51436D01*
X85604Y-52727D01*
X85584Y-52736D01*
X85570Y-52750D01*
X85570Y-52075D01*
X85531Y-51981D01*
X85459Y-51909D01*
X85365Y-51871D01*
X85264Y-51870D01*
X85170Y-51909D01*
X85098Y-51981D01*
X85060Y-52075D01*
X85059Y-52176D01*
X85098Y-52270D01*
X85170Y-52342D01*
X85264Y-52380D01*
X85365Y-52381D01*
X85459Y-52342D01*
X85531Y-52270D01*
X85569Y-52176D01*
X85570Y-52075D01*
X85570Y-52750D01*
X85512Y-52808D01*
X85473Y-52901D01*
X85473Y-53003D01*
X85512Y-53097D01*
X85583Y-53168D01*
X85604Y-53177D01*
X85604Y-56225D01*
X87081Y-56225D01*
X87081Y-61097D01*
X87021Y-61122D01*
X86949Y-61193D01*
X86910Y-61287D01*
X86910Y-61389D01*
X86949Y-61482D01*
X87020Y-61554D01*
X87081Y-61579D01*
X87081Y-61624D01*
X88262Y-62805D01*
X88262Y-62941D01*
X88215Y-62894D01*
X88121Y-62855D01*
X88020Y-62855D01*
X87926Y-62893D01*
X87892Y-62927D01*
X87892Y-62626D01*
X87854Y-62532D01*
X87782Y-62461D01*
X87688Y-62422D01*
X87587Y-62422D01*
X87493Y-62460D01*
X87421Y-62532D01*
X87382Y-62626D01*
X87382Y-62727D01*
X87421Y-62821D01*
X87493Y-62893D01*
X87586Y-62932D01*
X87688Y-62932D01*
X87782Y-62893D01*
X87853Y-62821D01*
X87892Y-62728D01*
X87892Y-62626D01*
X87892Y-62927D01*
X87854Y-62965D01*
X87815Y-63059D01*
X87815Y-63160D01*
X87844Y-63229D01*
X87803Y-63229D01*
X87710Y-63267D01*
X87638Y-63339D01*
X87599Y-63433D01*
X87599Y-63534D01*
X87638Y-63628D01*
X87709Y-63700D01*
X87803Y-63739D01*
X87904Y-63739D01*
X87998Y-63700D01*
X88070Y-63628D01*
X88109Y-63535D01*
X88109Y-63433D01*
X88081Y-63365D01*
X88121Y-63365D01*
X88215Y-63326D01*
X88262Y-63279D01*
X88262Y-63699D01*
X88228Y-63733D01*
X88189Y-63827D01*
X88189Y-63928D01*
X88228Y-64022D01*
X88262Y-64056D01*
X88262Y-65237D01*
X88177Y-65237D01*
X88084Y-65275D01*
X88012Y-65347D01*
X87973Y-65441D01*
X87973Y-65542D01*
X88012Y-65636D01*
X88083Y-65708D01*
X88177Y-65747D01*
X88262Y-65747D01*
X88262Y-65759D01*
X88262Y-65759D01*
G37*
X88262Y-65759D02*
X87459Y-65759D01*
X87459Y-65185D01*
X87421Y-65091D01*
X87381Y-65051D01*
X87381Y-62114D01*
X87342Y-62021D01*
X87270Y-61949D01*
X87176Y-61910D01*
X87075Y-61910D01*
X86981Y-61949D01*
X86909Y-62020D01*
X86871Y-62114D01*
X86870Y-62215D01*
X86909Y-62309D01*
X86981Y-62381D01*
X87075Y-62420D01*
X87176Y-62420D01*
X87270Y-62381D01*
X87342Y-62309D01*
X87380Y-62216D01*
X87381Y-62114D01*
X87381Y-65051D01*
X87349Y-65020D01*
X87255Y-64981D01*
X87154Y-64981D01*
X87144Y-64985D01*
X87144Y-62862D01*
X87106Y-62769D01*
X87034Y-62697D01*
X86940Y-62658D01*
X86839Y-62658D01*
X86745Y-62697D01*
X86673Y-62768D01*
X86634Y-62862D01*
X86634Y-62963D01*
X86673Y-63057D01*
X86745Y-63129D01*
X86838Y-63168D01*
X86940Y-63168D01*
X87034Y-63129D01*
X87105Y-63058D01*
X87144Y-62964D01*
X87144Y-62862D01*
X87144Y-64985D01*
X87060Y-65019D01*
X87026Y-65053D01*
X87026Y-64752D01*
X86987Y-64658D01*
X86916Y-64587D01*
X86822Y-64548D01*
X86721Y-64548D01*
X86627Y-64586D01*
X86589Y-64624D01*
X86573Y-64586D01*
X86573Y-63433D01*
X86535Y-63339D01*
X86514Y-63319D01*
X86514Y-62114D01*
X86476Y-62021D01*
X86404Y-61949D01*
X86310Y-61910D01*
X86209Y-61910D01*
X86115Y-61949D01*
X86081Y-61982D01*
X86081Y-61268D01*
X86043Y-61174D01*
X85971Y-61102D01*
X85877Y-61063D01*
X85776Y-61063D01*
X85688Y-61100D01*
X85688Y-58748D01*
X85649Y-58654D01*
X85577Y-58583D01*
X85484Y-58544D01*
X85382Y-58544D01*
X85288Y-58582D01*
X85217Y-58654D01*
X85178Y-58748D01*
X85178Y-58849D01*
X85216Y-58943D01*
X85288Y-59015D01*
X85382Y-59054D01*
X85483Y-59054D01*
X85577Y-59015D01*
X85649Y-58943D01*
X85688Y-58850D01*
X85688Y-58748D01*
X85688Y-61100D01*
X85682Y-61102D01*
X85610Y-61174D01*
X85589Y-61224D01*
X85589Y-60973D01*
X85550Y-60879D01*
X85479Y-60807D01*
X85392Y-60771D01*
X85392Y-60382D01*
X85354Y-60288D01*
X85282Y-60217D01*
X85188Y-60178D01*
X85087Y-60178D01*
X84993Y-60216D01*
X84921Y-60288D01*
X84882Y-60382D01*
X84882Y-60483D01*
X84921Y-60577D01*
X84993Y-60649D01*
X85086Y-60688D01*
X85188Y-60688D01*
X85282Y-60649D01*
X85353Y-60577D01*
X85392Y-60484D01*
X85392Y-60382D01*
X85392Y-60771D01*
X85385Y-60768D01*
X85284Y-60768D01*
X85190Y-60807D01*
X85118Y-60878D01*
X85079Y-60972D01*
X85079Y-61074D01*
X85118Y-61167D01*
X85190Y-61239D01*
X85283Y-61278D01*
X85385Y-61278D01*
X85478Y-61239D01*
X85550Y-61168D01*
X85589Y-61074D01*
X85589Y-60973D01*
X85589Y-61224D01*
X85571Y-61267D01*
X85571Y-61369D01*
X85610Y-61463D01*
X85682Y-61534D01*
X85775Y-61573D01*
X85877Y-61573D01*
X85971Y-61535D01*
X86042Y-61463D01*
X86081Y-61369D01*
X86081Y-61268D01*
X86081Y-61982D01*
X86043Y-62020D01*
X86004Y-62114D01*
X86004Y-62215D01*
X86043Y-62309D01*
X86115Y-62381D01*
X86208Y-62420D01*
X86310Y-62420D01*
X86404Y-62381D01*
X86475Y-62309D01*
X86514Y-62216D01*
X86514Y-62114D01*
X86514Y-63319D01*
X86463Y-63268D01*
X86369Y-63229D01*
X86268Y-63229D01*
X86174Y-63267D01*
X86102Y-63339D01*
X86063Y-63433D01*
X86063Y-63534D01*
X86102Y-63628D01*
X86174Y-63700D01*
X86267Y-63739D01*
X86369Y-63739D01*
X86463Y-63700D01*
X86534Y-63628D01*
X86573Y-63535D01*
X86573Y-63433D01*
X86573Y-64586D01*
X86554Y-64540D01*
X86483Y-64468D01*
X86475Y-64465D01*
X86475Y-64122D01*
X86436Y-64028D01*
X86365Y-63957D01*
X86271Y-63918D01*
X86169Y-63918D01*
X86076Y-63956D01*
X86004Y-64028D01*
X85965Y-64122D01*
X85965Y-64223D01*
X86004Y-64317D01*
X86075Y-64389D01*
X86169Y-64428D01*
X86270Y-64428D01*
X86364Y-64389D01*
X86436Y-64317D01*
X86475Y-64224D01*
X86475Y-64122D01*
X86475Y-64465D01*
X86389Y-64430D01*
X86288Y-64429D01*
X86194Y-64468D01*
X86122Y-64540D01*
X86083Y-64634D01*
X86083Y-64735D01*
X86122Y-64829D01*
X86193Y-64901D01*
X86287Y-64939D01*
X86389Y-64940D01*
X86482Y-64901D01*
X86520Y-64863D01*
X86555Y-64947D01*
X86627Y-65019D01*
X86720Y-65058D01*
X86822Y-65058D01*
X86915Y-65019D01*
X86987Y-64947D01*
X87026Y-64854D01*
X87026Y-64752D01*
X87026Y-65053D01*
X86988Y-65091D01*
X86949Y-65185D01*
X86949Y-65286D01*
X86988Y-65380D01*
X87060Y-65452D01*
X87153Y-65491D01*
X87255Y-65491D01*
X87348Y-65452D01*
X87420Y-65380D01*
X87459Y-65287D01*
X87459Y-65185D01*
X87459Y-65759D01*
X86943Y-65759D01*
X86967Y-65700D01*
X86967Y-65599D01*
X86928Y-65505D01*
X86857Y-65433D01*
X86763Y-65394D01*
X86662Y-65394D01*
X86573Y-65430D01*
X86573Y-65205D01*
X86535Y-65111D01*
X86463Y-65039D01*
X86369Y-65000D01*
X86268Y-65000D01*
X86174Y-65039D01*
X86102Y-65111D01*
X86063Y-65204D01*
X86063Y-65306D01*
X86102Y-65400D01*
X86174Y-65471D01*
X86267Y-65510D01*
X86369Y-65510D01*
X86463Y-65472D01*
X86534Y-65400D01*
X86573Y-65306D01*
X86573Y-65205D01*
X86573Y-65430D01*
X86568Y-65433D01*
X86496Y-65504D01*
X86457Y-65598D01*
X86457Y-65700D01*
X86482Y-65759D01*
X85734Y-65759D01*
X85696Y-65721D01*
X85696Y-65721D01*
X85676Y-65701D01*
X85676Y-65701D01*
X85274Y-65299D01*
X85254Y-65286D01*
X85282Y-65275D01*
X85353Y-65203D01*
X85392Y-65110D01*
X85392Y-65008D01*
X85354Y-64914D01*
X85282Y-64843D01*
X85188Y-64804D01*
X85087Y-64804D01*
X84993Y-64842D01*
X84921Y-64914D01*
X84882Y-65008D01*
X84882Y-65109D01*
X84921Y-65203D01*
X84957Y-65239D01*
X84924Y-65239D01*
X84914Y-65215D01*
X84800Y-65101D01*
X84651Y-65039D01*
X84495Y-65039D01*
X84506Y-65011D01*
X84507Y-64910D01*
X84468Y-64816D01*
X84396Y-64744D01*
X84302Y-64705D01*
X84201Y-64705D01*
X84107Y-64744D01*
X84035Y-64815D01*
X84014Y-64866D01*
X84014Y-64614D01*
X83976Y-64521D01*
X83904Y-64449D01*
X83810Y-64410D01*
X83709Y-64410D01*
X83615Y-64449D01*
X83543Y-64520D01*
X83504Y-64614D01*
X83504Y-64715D01*
X83543Y-64809D01*
X83615Y-64881D01*
X83708Y-64920D01*
X83810Y-64920D01*
X83904Y-64881D01*
X83975Y-64809D01*
X84014Y-64716D01*
X84014Y-64614D01*
X84014Y-64866D01*
X83997Y-64909D01*
X83996Y-65011D01*
X84035Y-65104D01*
X84107Y-65176D01*
X84201Y-65215D01*
X84227Y-65215D01*
X84165Y-65363D01*
X84165Y-65525D01*
X84227Y-65673D01*
X84293Y-65739D01*
X83424Y-65739D01*
X83424Y-64418D01*
X83385Y-64324D01*
X83313Y-64252D01*
X83220Y-64213D01*
X83118Y-64213D01*
X83025Y-64252D01*
X82953Y-64323D01*
X82914Y-64417D01*
X82914Y-64519D01*
X82952Y-64612D01*
X83024Y-64684D01*
X83118Y-64723D01*
X83219Y-64723D01*
X83313Y-64684D01*
X83385Y-64613D01*
X83424Y-64519D01*
X83424Y-64418D01*
X83424Y-65739D01*
X83155Y-65739D01*
X82965Y-65549D01*
X82975Y-65525D01*
X82975Y-65364D01*
X82914Y-65215D01*
X82800Y-65101D01*
X82735Y-65074D01*
X82735Y-64418D01*
X82696Y-64324D01*
X82624Y-64252D01*
X82531Y-64213D01*
X82429Y-64213D01*
X82336Y-64252D01*
X82264Y-64323D01*
X82225Y-64417D01*
X82225Y-64519D01*
X82264Y-64612D01*
X82335Y-64684D01*
X82429Y-64723D01*
X82530Y-64723D01*
X82624Y-64684D01*
X82696Y-64613D01*
X82735Y-64519D01*
X82735Y-64418D01*
X82735Y-65074D01*
X82651Y-65039D01*
X82490Y-65039D01*
X82341Y-65101D01*
X82227Y-65215D01*
X82217Y-65239D01*
X82046Y-65239D01*
X82046Y-64418D01*
X82007Y-64324D01*
X81935Y-64252D01*
X81842Y-64213D01*
X81740Y-64213D01*
X81647Y-64252D01*
X81575Y-64323D01*
X81536Y-64417D01*
X81536Y-64519D01*
X81575Y-64612D01*
X81646Y-64684D01*
X81740Y-64723D01*
X81841Y-64723D01*
X81935Y-64684D01*
X82007Y-64613D01*
X82046Y-64519D01*
X82046Y-64418D01*
X82046Y-65239D01*
X81924Y-65239D01*
X81914Y-65215D01*
X81800Y-65101D01*
X81651Y-65039D01*
X81490Y-65039D01*
X81341Y-65101D01*
X81227Y-65215D01*
X81165Y-65363D01*
X81165Y-65525D01*
X81227Y-65673D01*
X81341Y-65788D01*
X81489Y-65849D01*
X81651Y-65849D01*
X81799Y-65788D01*
X81914Y-65674D01*
X81924Y-65649D01*
X82217Y-65649D01*
X82227Y-65673D01*
X82341Y-65788D01*
X82489Y-65849D01*
X82651Y-65849D01*
X82675Y-65839D01*
X82925Y-66089D01*
X82925Y-66089D01*
X82965Y-66116D01*
X82992Y-66134D01*
X82992Y-66134D01*
X83070Y-66149D01*
X83070Y-66149D01*
X83070Y-66149D01*
X83293Y-66149D01*
X83227Y-66215D01*
X83165Y-66363D01*
X83165Y-66525D01*
X83227Y-66673D01*
X83260Y-66707D01*
X82881Y-66707D01*
X82914Y-66674D01*
X82975Y-66525D01*
X82975Y-66364D01*
X82914Y-66215D01*
X82800Y-66101D01*
X82651Y-66039D01*
X82490Y-66039D01*
X82341Y-66101D01*
X82227Y-66215D01*
X82165Y-66363D01*
X82165Y-66525D01*
X82227Y-66673D01*
X82260Y-66707D01*
X81975Y-66707D01*
X81975Y-66124D01*
X81959Y-66085D01*
X81930Y-66055D01*
X81891Y-66039D01*
X81850Y-66039D01*
X81250Y-66039D01*
X81211Y-66055D01*
X81181Y-66085D01*
X81165Y-66123D01*
X81165Y-66165D01*
X81165Y-66707D01*
X80570Y-66707D01*
X80570Y-66288D01*
X80531Y-66194D01*
X80459Y-66122D01*
X80365Y-66083D01*
X80264Y-66083D01*
X80170Y-66122D01*
X80098Y-66193D01*
X80077Y-66244D01*
X80077Y-65303D01*
X80039Y-65210D01*
X79967Y-65138D01*
X79873Y-65099D01*
X79772Y-65099D01*
X79678Y-65138D01*
X79606Y-65209D01*
X79567Y-65303D01*
X79567Y-65404D01*
X79606Y-65498D01*
X79678Y-65570D01*
X79771Y-65609D01*
X79873Y-65609D01*
X79967Y-65570D01*
X80038Y-65498D01*
X80077Y-65405D01*
X80077Y-65303D01*
X80077Y-66244D01*
X80060Y-66287D01*
X80059Y-66389D01*
X80098Y-66482D01*
X80170Y-66554D01*
X80264Y-66593D01*
X80365Y-66593D01*
X80459Y-66554D01*
X80531Y-66483D01*
X80569Y-66389D01*
X80570Y-66288D01*
X80570Y-66707D01*
X79388Y-66707D01*
X79388Y-66288D01*
X79350Y-66194D01*
X79278Y-66122D01*
X79184Y-66083D01*
X79083Y-66083D01*
X78989Y-66122D01*
X78917Y-66193D01*
X78878Y-66287D01*
X78878Y-66389D01*
X78917Y-66482D01*
X78989Y-66554D01*
X79082Y-66593D01*
X79184Y-66593D01*
X79278Y-66554D01*
X79349Y-66483D01*
X79388Y-66389D01*
X79388Y-66288D01*
X79388Y-66707D01*
X78207Y-66707D01*
X78207Y-66288D01*
X78169Y-66194D01*
X78097Y-66122D01*
X78003Y-66083D01*
X77902Y-66083D01*
X77808Y-66122D01*
X77736Y-66193D01*
X77697Y-66287D01*
X77697Y-66389D01*
X77736Y-66482D01*
X77808Y-66554D01*
X77901Y-66593D01*
X78003Y-66593D01*
X78097Y-66554D01*
X78168Y-66483D01*
X78207Y-66389D01*
X78207Y-66288D01*
X78207Y-66707D01*
X77026Y-66707D01*
X77026Y-66288D01*
X76987Y-66194D01*
X76916Y-66122D01*
X76822Y-66083D01*
X76721Y-66083D01*
X76627Y-66122D01*
X76555Y-66193D01*
X76516Y-66287D01*
X76516Y-66389D01*
X76555Y-66482D01*
X76627Y-66554D01*
X76720Y-66593D01*
X76822Y-66593D01*
X76915Y-66554D01*
X76987Y-66483D01*
X77026Y-66389D01*
X77026Y-66288D01*
X77026Y-66707D01*
X75845Y-66707D01*
X75845Y-66288D01*
X75806Y-66194D01*
X75735Y-66122D01*
X75641Y-66083D01*
X75540Y-66083D01*
X75446Y-66122D01*
X75374Y-66193D01*
X75335Y-66287D01*
X75335Y-66389D01*
X75374Y-66482D01*
X75445Y-66554D01*
X75539Y-66593D01*
X75641Y-66593D01*
X75734Y-66554D01*
X75806Y-66483D01*
X75845Y-66389D01*
X75845Y-66288D01*
X75845Y-66707D01*
X74664Y-66707D01*
X74664Y-66288D01*
X74625Y-66194D01*
X74554Y-66122D01*
X74460Y-66083D01*
X74358Y-66083D01*
X74265Y-66122D01*
X74193Y-66193D01*
X74154Y-66287D01*
X74154Y-66389D01*
X74193Y-66482D01*
X74264Y-66554D01*
X74358Y-66593D01*
X74459Y-66593D01*
X74553Y-66554D01*
X74625Y-66483D01*
X74664Y-66389D01*
X74664Y-66288D01*
X74664Y-66707D01*
X73483Y-66707D01*
X73483Y-66288D01*
X73444Y-66194D01*
X73372Y-66122D01*
X73279Y-66083D01*
X73177Y-66083D01*
X73084Y-66122D01*
X73012Y-66193D01*
X72973Y-66287D01*
X72973Y-66389D01*
X73012Y-66482D01*
X73083Y-66554D01*
X73177Y-66593D01*
X73278Y-66593D01*
X73372Y-66554D01*
X73444Y-66483D01*
X73483Y-66389D01*
X73483Y-66288D01*
X73483Y-66707D01*
X72302Y-66707D01*
X72302Y-66288D01*
X72263Y-66194D01*
X72191Y-66122D01*
X72098Y-66083D01*
X71996Y-66083D01*
X71902Y-66122D01*
X71831Y-66193D01*
X71792Y-66287D01*
X71792Y-66389D01*
X71830Y-66482D01*
X71902Y-66554D01*
X71996Y-66593D01*
X72097Y-66593D01*
X72191Y-66554D01*
X72263Y-66483D01*
X72302Y-66389D01*
X72302Y-66288D01*
X72302Y-66707D01*
X71711Y-66707D01*
X71711Y-65697D01*
X71672Y-65603D01*
X71601Y-65531D01*
X71507Y-65493D01*
X71406Y-65492D01*
X71312Y-65531D01*
X71240Y-65603D01*
X71201Y-65697D01*
X71201Y-65798D01*
X71240Y-65892D01*
X71312Y-65964D01*
X71405Y-66002D01*
X71507Y-66003D01*
X71600Y-65964D01*
X71672Y-65892D01*
X71711Y-65798D01*
X71711Y-65697D01*
X71711Y-66707D01*
X71121Y-66707D01*
X71121Y-66288D01*
X71082Y-66194D01*
X71010Y-66122D01*
X70917Y-66083D01*
X70815Y-66083D01*
X70727Y-66119D01*
X70727Y-65697D01*
X70688Y-65603D01*
X70617Y-65531D01*
X70523Y-65493D01*
X70421Y-65492D01*
X70328Y-65531D01*
X70256Y-65603D01*
X70217Y-65697D01*
X70217Y-65798D01*
X70256Y-65892D01*
X70327Y-65964D01*
X70421Y-66002D01*
X70522Y-66003D01*
X70616Y-65964D01*
X70688Y-65892D01*
X70727Y-65798D01*
X70727Y-65697D01*
X70727Y-66119D01*
X70721Y-66122D01*
X70650Y-66193D01*
X70611Y-66287D01*
X70611Y-66389D01*
X70649Y-66482D01*
X70721Y-66554D01*
X70815Y-66593D01*
X70916Y-66593D01*
X71010Y-66554D01*
X71082Y-66483D01*
X71121Y-66389D01*
X71121Y-66288D01*
X71121Y-66707D01*
X69940Y-66707D01*
X69940Y-66288D01*
X69901Y-66194D01*
X69829Y-66122D01*
X69735Y-66083D01*
X69634Y-66083D01*
X69540Y-66122D01*
X69468Y-66193D01*
X69430Y-66287D01*
X69429Y-66389D01*
X69468Y-66482D01*
X69540Y-66554D01*
X69634Y-66593D01*
X69735Y-66593D01*
X69829Y-66554D01*
X69901Y-66483D01*
X69939Y-66389D01*
X69940Y-66288D01*
X69940Y-66707D01*
X69316Y-66707D01*
X69316Y-65936D01*
X69343Y-65964D01*
X69437Y-66002D01*
X69538Y-66003D01*
X69632Y-65964D01*
X69704Y-65892D01*
X69743Y-65798D01*
X69743Y-65697D01*
X69704Y-65603D01*
X69632Y-65531D01*
X69539Y-65493D01*
X69437Y-65492D01*
X69343Y-65531D01*
X69316Y-65559D01*
X69316Y-64040D01*
X71884Y-64040D01*
X71884Y-64395D01*
X71956Y-64395D01*
X71929Y-64422D01*
X71890Y-64515D01*
X71890Y-64617D01*
X71929Y-64711D01*
X72001Y-64782D01*
X72094Y-64821D01*
X72196Y-64821D01*
X72289Y-64783D01*
X72361Y-64711D01*
X72400Y-64617D01*
X72400Y-64516D01*
X72361Y-64422D01*
X72334Y-64395D01*
X72415Y-64395D01*
X72415Y-65523D01*
X72400Y-65529D01*
X72400Y-65303D01*
X72361Y-65210D01*
X72290Y-65138D01*
X72196Y-65099D01*
X72095Y-65099D01*
X72001Y-65138D01*
X71929Y-65209D01*
X71890Y-65303D01*
X71890Y-65404D01*
X71929Y-65498D01*
X72001Y-65570D01*
X72094Y-65609D01*
X72196Y-65609D01*
X72289Y-65570D01*
X72361Y-65498D01*
X72400Y-65405D01*
X72400Y-65303D01*
X72400Y-65529D01*
X72395Y-65531D01*
X72323Y-65603D01*
X72284Y-65697D01*
X72284Y-65798D01*
X72323Y-65892D01*
X72394Y-65964D01*
X72488Y-66002D01*
X72589Y-66003D01*
X72683Y-65964D01*
X72755Y-65892D01*
X72794Y-65798D01*
X72794Y-65697D01*
X72755Y-65603D01*
X72728Y-65576D01*
X73334Y-65576D01*
X73307Y-65603D01*
X73268Y-65697D01*
X73268Y-65798D01*
X73307Y-65892D01*
X73378Y-65964D01*
X73472Y-66002D01*
X73574Y-66003D01*
X73667Y-65964D01*
X73739Y-65892D01*
X73778Y-65798D01*
X73778Y-65697D01*
X73739Y-65603D01*
X73712Y-65576D01*
X74319Y-65576D01*
X74291Y-65603D01*
X74252Y-65697D01*
X74252Y-65798D01*
X74291Y-65892D01*
X74363Y-65964D01*
X74456Y-66002D01*
X74558Y-66003D01*
X74652Y-65964D01*
X74723Y-65892D01*
X74762Y-65798D01*
X74762Y-65697D01*
X74724Y-65603D01*
X74696Y-65576D01*
X75303Y-65576D01*
X75276Y-65603D01*
X75237Y-65697D01*
X75237Y-65798D01*
X75275Y-65892D01*
X75347Y-65964D01*
X75441Y-66002D01*
X75542Y-66003D01*
X75636Y-65964D01*
X75708Y-65892D01*
X75747Y-65798D01*
X75747Y-65697D01*
X75708Y-65603D01*
X75680Y-65576D01*
X76287Y-65576D01*
X76260Y-65603D01*
X76221Y-65697D01*
X76221Y-65798D01*
X76260Y-65892D01*
X76331Y-65964D01*
X76425Y-66002D01*
X76526Y-66003D01*
X76620Y-65964D01*
X76692Y-65892D01*
X76731Y-65798D01*
X76731Y-65697D01*
X76692Y-65603D01*
X76665Y-65576D01*
X77271Y-65576D01*
X77244Y-65603D01*
X77205Y-65697D01*
X77205Y-65798D01*
X77244Y-65892D01*
X77315Y-65964D01*
X77409Y-66002D01*
X77511Y-66003D01*
X77604Y-65964D01*
X77676Y-65892D01*
X77715Y-65798D01*
X77715Y-65697D01*
X77676Y-65603D01*
X77649Y-65576D01*
X78256Y-65576D01*
X78228Y-65603D01*
X78189Y-65697D01*
X78189Y-65798D01*
X78228Y-65892D01*
X78300Y-65964D01*
X78393Y-66002D01*
X78495Y-66003D01*
X78589Y-65964D01*
X78660Y-65892D01*
X78699Y-65798D01*
X78699Y-65697D01*
X78661Y-65603D01*
X78589Y-65531D01*
X78587Y-65531D01*
X78587Y-65415D01*
X78622Y-65498D01*
X78693Y-65570D01*
X78787Y-65609D01*
X78889Y-65609D01*
X78982Y-65570D01*
X79054Y-65498D01*
X79093Y-65405D01*
X79093Y-65303D01*
X79054Y-65210D01*
X78983Y-65138D01*
X78889Y-65099D01*
X78788Y-65099D01*
X78694Y-65138D01*
X78622Y-65209D01*
X78587Y-65292D01*
X78587Y-64493D01*
X80847Y-64493D01*
X80847Y-64519D01*
X80886Y-64612D01*
X80896Y-64623D01*
X80858Y-64607D01*
X80756Y-64607D01*
X80662Y-64645D01*
X80591Y-64717D01*
X80552Y-64811D01*
X80552Y-64912D01*
X80590Y-65006D01*
X80662Y-65078D01*
X80734Y-65108D01*
X80662Y-65138D01*
X80591Y-65209D01*
X80552Y-65303D01*
X80552Y-65404D01*
X80590Y-65498D01*
X80662Y-65570D01*
X80756Y-65609D01*
X80857Y-65609D01*
X80951Y-65570D01*
X81023Y-65498D01*
X81062Y-65405D01*
X81062Y-65303D01*
X81023Y-65210D01*
X80951Y-65138D01*
X80879Y-65108D01*
X80951Y-65078D01*
X81023Y-65006D01*
X81062Y-64913D01*
X81062Y-64811D01*
X81023Y-64717D01*
X81012Y-64707D01*
X81051Y-64723D01*
X81152Y-64723D01*
X81246Y-64684D01*
X81318Y-64613D01*
X81357Y-64519D01*
X81357Y-64418D01*
X81318Y-64324D01*
X81246Y-64252D01*
X81153Y-64213D01*
X81051Y-64213D01*
X80958Y-64252D01*
X80910Y-64299D01*
X80910Y-63942D01*
X83316Y-63942D01*
X83454Y-64080D01*
X84476Y-64080D01*
X84429Y-64127D01*
X84390Y-64220D01*
X84390Y-64322D01*
X84429Y-64415D01*
X84501Y-64487D01*
X84594Y-64526D01*
X84696Y-64526D01*
X84789Y-64487D01*
X84861Y-64416D01*
X84900Y-64322D01*
X84900Y-64221D01*
X84861Y-64127D01*
X84790Y-64055D01*
X84696Y-64016D01*
X84680Y-64016D01*
X84852Y-63843D01*
X86048Y-63843D01*
X86048Y-63065D01*
X85707Y-63065D01*
X85707Y-62114D01*
X85669Y-62021D01*
X85597Y-61949D01*
X85503Y-61910D01*
X85402Y-61910D01*
X85353Y-61930D01*
X85353Y-61858D01*
X85314Y-61765D01*
X85243Y-61693D01*
X85149Y-61654D01*
X85047Y-61654D01*
X84954Y-61693D01*
X84940Y-61707D01*
X84940Y-61425D01*
X84901Y-61332D01*
X84829Y-61260D01*
X84735Y-61221D01*
X84703Y-61221D01*
X84703Y-60874D01*
X84703Y-60185D01*
X84703Y-59595D01*
X84665Y-59501D01*
X84593Y-59429D01*
X84499Y-59390D01*
X84398Y-59390D01*
X84304Y-59429D01*
X84232Y-59501D01*
X84193Y-59594D01*
X84193Y-59696D01*
X84232Y-59789D01*
X84304Y-59861D01*
X84397Y-59900D01*
X84499Y-59900D01*
X84593Y-59861D01*
X84664Y-59790D01*
X84703Y-59696D01*
X84703Y-59595D01*
X84703Y-60185D01*
X84665Y-60091D01*
X84593Y-60020D01*
X84499Y-59981D01*
X84398Y-59981D01*
X84304Y-60019D01*
X84232Y-60091D01*
X84193Y-60185D01*
X84193Y-60286D01*
X84232Y-60380D01*
X84304Y-60452D01*
X84397Y-60491D01*
X84499Y-60491D01*
X84593Y-60452D01*
X84664Y-60380D01*
X84703Y-60287D01*
X84703Y-60185D01*
X84703Y-60874D01*
X84665Y-60780D01*
X84593Y-60709D01*
X84499Y-60670D01*
X84398Y-60670D01*
X84304Y-60708D01*
X84232Y-60780D01*
X84193Y-60874D01*
X84193Y-60975D01*
X84232Y-61069D01*
X84304Y-61141D01*
X84397Y-61180D01*
X84499Y-61180D01*
X84593Y-61141D01*
X84664Y-61069D01*
X84703Y-60976D01*
X84703Y-60874D01*
X84703Y-61221D01*
X84634Y-61221D01*
X84540Y-61260D01*
X84468Y-61331D01*
X84430Y-61425D01*
X84429Y-61526D01*
X84468Y-61620D01*
X84540Y-61692D01*
X84634Y-61731D01*
X84735Y-61731D01*
X84829Y-61692D01*
X84901Y-61621D01*
X84939Y-61527D01*
X84940Y-61425D01*
X84940Y-61707D01*
X84882Y-61764D01*
X84843Y-61858D01*
X84843Y-61959D01*
X84882Y-62053D01*
X84953Y-62125D01*
X85047Y-62164D01*
X85148Y-62164D01*
X85197Y-62144D01*
X85197Y-62215D01*
X85236Y-62309D01*
X85308Y-62381D01*
X85401Y-62420D01*
X85503Y-62420D01*
X85597Y-62381D01*
X85668Y-62309D01*
X85707Y-62216D01*
X85707Y-62114D01*
X85707Y-63065D01*
X85640Y-63065D01*
X84754Y-62179D01*
X84546Y-62179D01*
X84546Y-61799D01*
X84507Y-61706D01*
X84435Y-61634D01*
X84342Y-61595D01*
X84240Y-61595D01*
X84172Y-61623D01*
X84172Y-61288D01*
X84133Y-61194D01*
X84061Y-61122D01*
X83968Y-61083D01*
X83866Y-61083D01*
X83773Y-61122D01*
X83701Y-61193D01*
X83662Y-61287D01*
X83662Y-61389D01*
X83701Y-61482D01*
X83772Y-61554D01*
X83866Y-61593D01*
X83967Y-61593D01*
X84061Y-61554D01*
X84133Y-61483D01*
X84172Y-61389D01*
X84172Y-61288D01*
X84172Y-61623D01*
X84147Y-61634D01*
X84075Y-61705D01*
X84036Y-61799D01*
X84036Y-61900D01*
X84075Y-61994D01*
X84146Y-62066D01*
X84240Y-62105D01*
X84341Y-62105D01*
X84435Y-62066D01*
X84507Y-61995D01*
X84546Y-61901D01*
X84546Y-61799D01*
X84546Y-62179D01*
X83621Y-62179D01*
X83621Y-61130D01*
X83582Y-61036D01*
X83510Y-60965D01*
X83417Y-60926D01*
X83315Y-60926D01*
X83221Y-60964D01*
X83150Y-61036D01*
X83111Y-61130D01*
X83111Y-61231D01*
X83149Y-61325D01*
X83221Y-61397D01*
X83315Y-61436D01*
X83416Y-61436D01*
X83510Y-61397D01*
X83582Y-61325D01*
X83621Y-61232D01*
X83621Y-61130D01*
X83621Y-62179D01*
X83407Y-62179D01*
X83490Y-62145D01*
X83562Y-62073D01*
X83601Y-61980D01*
X83601Y-61878D01*
X83562Y-61784D01*
X83491Y-61713D01*
X83397Y-61674D01*
X83295Y-61674D01*
X83202Y-61712D01*
X83130Y-61784D01*
X83091Y-61878D01*
X83091Y-61979D01*
X83130Y-62073D01*
X83201Y-62145D01*
X83284Y-62179D01*
X83070Y-62179D01*
X83070Y-60382D01*
X83031Y-60288D01*
X82959Y-60217D01*
X82865Y-60178D01*
X82764Y-60178D01*
X82670Y-60216D01*
X82598Y-60288D01*
X82560Y-60382D01*
X82559Y-60483D01*
X82598Y-60577D01*
X82670Y-60649D01*
X82764Y-60688D01*
X82865Y-60688D01*
X82959Y-60649D01*
X83031Y-60577D01*
X83069Y-60484D01*
X83070Y-60382D01*
X83070Y-62179D01*
X82853Y-62179D01*
X82853Y-61130D01*
X82814Y-61036D01*
X82743Y-60965D01*
X82649Y-60926D01*
X82547Y-60926D01*
X82454Y-60964D01*
X82382Y-61036D01*
X82343Y-61130D01*
X82343Y-61231D01*
X82382Y-61325D01*
X82453Y-61397D01*
X82547Y-61436D01*
X82648Y-61436D01*
X82742Y-61397D01*
X82814Y-61325D01*
X82853Y-61232D01*
X82853Y-61130D01*
X82853Y-62179D01*
X82785Y-62179D01*
X82372Y-61766D01*
X81928Y-61766D01*
X81928Y-61130D01*
X81889Y-61036D01*
X81817Y-60965D01*
X81724Y-60926D01*
X81622Y-60926D01*
X81528Y-60964D01*
X81457Y-61036D01*
X81418Y-61130D01*
X81418Y-61231D01*
X81456Y-61325D01*
X81528Y-61397D01*
X81622Y-61436D01*
X81723Y-61436D01*
X81817Y-61397D01*
X81889Y-61325D01*
X81928Y-61232D01*
X81928Y-61130D01*
X81928Y-61766D01*
X81820Y-61766D01*
X81751Y-61835D01*
X81751Y-61760D01*
X81712Y-61666D01*
X81640Y-61594D01*
X81547Y-61556D01*
X81445Y-61555D01*
X81351Y-61594D01*
X81280Y-61666D01*
X81241Y-61760D01*
X81241Y-61861D01*
X81279Y-61955D01*
X81307Y-61982D01*
X80897Y-61982D01*
X80924Y-61955D01*
X80963Y-61861D01*
X80963Y-61760D01*
X80924Y-61666D01*
X80853Y-61594D01*
X80759Y-61556D01*
X80658Y-61555D01*
X80564Y-61594D01*
X80492Y-61666D01*
X80453Y-61760D01*
X80453Y-61861D01*
X80492Y-61955D01*
X80519Y-61982D01*
X80353Y-61982D01*
X80353Y-60106D01*
X80314Y-60013D01*
X80243Y-59941D01*
X80149Y-59902D01*
X80047Y-59902D01*
X79954Y-59941D01*
X79882Y-60012D01*
X79843Y-60106D01*
X79843Y-60207D01*
X79882Y-60301D01*
X79953Y-60373D01*
X80047Y-60412D01*
X80148Y-60412D01*
X80242Y-60373D01*
X80314Y-60302D01*
X80353Y-60208D01*
X80353Y-60106D01*
X80353Y-61982D01*
X79913Y-61982D01*
X79940Y-61955D01*
X79979Y-61861D01*
X79979Y-61760D01*
X79940Y-61666D01*
X79869Y-61594D01*
X79775Y-61556D01*
X79673Y-61555D01*
X79580Y-61594D01*
X79508Y-61666D01*
X79469Y-61760D01*
X79469Y-61861D01*
X79508Y-61955D01*
X79535Y-61982D01*
X78928Y-61982D01*
X78956Y-61955D01*
X78995Y-61861D01*
X78995Y-61760D01*
X78956Y-61666D01*
X78884Y-61594D01*
X78791Y-61556D01*
X78689Y-61555D01*
X78595Y-61594D01*
X78524Y-61666D01*
X78522Y-61669D01*
X78522Y-60992D01*
X78484Y-60899D01*
X78412Y-60827D01*
X78318Y-60788D01*
X78217Y-60788D01*
X78123Y-60827D01*
X78051Y-60898D01*
X78012Y-60992D01*
X78012Y-61093D01*
X78051Y-61187D01*
X78123Y-61259D01*
X78216Y-61298D01*
X78318Y-61298D01*
X78411Y-61259D01*
X78483Y-61187D01*
X78522Y-61094D01*
X78522Y-60992D01*
X78522Y-61669D01*
X78485Y-61760D01*
X78485Y-61861D01*
X78523Y-61955D01*
X78551Y-61982D01*
X77944Y-61982D01*
X77971Y-61955D01*
X78010Y-61861D01*
X78010Y-61760D01*
X77972Y-61666D01*
X77900Y-61594D01*
X77806Y-61556D01*
X77705Y-61555D01*
X77611Y-61594D01*
X77539Y-61666D01*
X77500Y-61760D01*
X77500Y-61861D01*
X77539Y-61955D01*
X77567Y-61982D01*
X76960Y-61982D01*
X76987Y-61955D01*
X77026Y-61861D01*
X77026Y-61760D01*
X76987Y-61666D01*
X76928Y-61606D01*
X76928Y-60225D01*
X76889Y-60131D01*
X76817Y-60059D01*
X76724Y-60020D01*
X76622Y-60020D01*
X76528Y-60059D01*
X76457Y-60130D01*
X76418Y-60224D01*
X76418Y-60326D01*
X76456Y-60419D01*
X76528Y-60491D01*
X76622Y-60530D01*
X76723Y-60530D01*
X76817Y-60491D01*
X76889Y-60420D01*
X76928Y-60326D01*
X76928Y-60225D01*
X76928Y-61606D01*
X76916Y-61594D01*
X76822Y-61556D01*
X76721Y-61555D01*
X76627Y-61594D01*
X76555Y-61666D01*
X76516Y-61760D01*
X76516Y-61861D01*
X76555Y-61955D01*
X76582Y-61982D01*
X75976Y-61982D01*
X76003Y-61955D01*
X76042Y-61861D01*
X76042Y-61760D01*
X76003Y-61666D01*
X75932Y-61594D01*
X75838Y-61556D01*
X75736Y-61555D01*
X75643Y-61594D01*
X75571Y-61666D01*
X75532Y-61760D01*
X75532Y-61861D01*
X75571Y-61955D01*
X75598Y-61982D01*
X75136Y-61982D01*
X75136Y-60953D01*
X75098Y-60859D01*
X75026Y-60787D01*
X74932Y-60748D01*
X74831Y-60748D01*
X74737Y-60787D01*
X74665Y-60859D01*
X74626Y-60952D01*
X74626Y-61054D01*
X74665Y-61148D01*
X74737Y-61219D01*
X74830Y-61258D01*
X74932Y-61258D01*
X75026Y-61220D01*
X75097Y-61148D01*
X75136Y-61054D01*
X75136Y-60953D01*
X75136Y-61982D01*
X74991Y-61982D01*
X75019Y-61955D01*
X75058Y-61861D01*
X75058Y-61760D01*
X75019Y-61666D01*
X74947Y-61594D01*
X74854Y-61556D01*
X74752Y-61555D01*
X74658Y-61594D01*
X74587Y-61666D01*
X74548Y-61760D01*
X74548Y-61861D01*
X74586Y-61955D01*
X74614Y-61982D01*
X74007Y-61982D01*
X74034Y-61955D01*
X74073Y-61861D01*
X74073Y-61760D01*
X74035Y-61666D01*
X73963Y-61594D01*
X73896Y-61567D01*
X73896Y-60225D01*
X73858Y-60131D01*
X73786Y-60059D01*
X73692Y-60020D01*
X73591Y-60020D01*
X73497Y-60059D01*
X73425Y-60130D01*
X73386Y-60224D01*
X73386Y-60326D01*
X73425Y-60419D01*
X73497Y-60491D01*
X73590Y-60530D01*
X73692Y-60530D01*
X73785Y-60491D01*
X73857Y-60420D01*
X73896Y-60326D01*
X73896Y-60225D01*
X73896Y-61567D01*
X73869Y-61556D01*
X73768Y-61555D01*
X73674Y-61594D01*
X73602Y-61666D01*
X73563Y-61760D01*
X73563Y-61861D01*
X73602Y-61955D01*
X73630Y-61982D01*
X73023Y-61982D01*
X73050Y-61955D01*
X73089Y-61861D01*
X73089Y-61760D01*
X73050Y-61666D01*
X72979Y-61594D01*
X72885Y-61556D01*
X72784Y-61555D01*
X72690Y-61594D01*
X72618Y-61666D01*
X72579Y-61760D01*
X72579Y-61861D01*
X72580Y-61863D01*
X72400Y-61781D01*
X72400Y-61169D01*
X72400Y-60185D01*
X72361Y-60091D01*
X72290Y-60020D01*
X72196Y-59981D01*
X72095Y-59981D01*
X72001Y-60019D01*
X71929Y-60091D01*
X71890Y-60185D01*
X71890Y-60286D01*
X71929Y-60380D01*
X72001Y-60452D01*
X72094Y-60491D01*
X72196Y-60491D01*
X72289Y-60452D01*
X72361Y-60380D01*
X72400Y-60287D01*
X72400Y-60185D01*
X72400Y-61169D01*
X72361Y-61076D01*
X72290Y-61004D01*
X72196Y-60965D01*
X72095Y-60965D01*
X72001Y-61004D01*
X71929Y-61075D01*
X71890Y-61169D01*
X71890Y-61270D01*
X71929Y-61364D01*
X72001Y-61436D01*
X72094Y-61475D01*
X72196Y-61475D01*
X72289Y-61436D01*
X72361Y-61365D01*
X72400Y-61271D01*
X72400Y-61169D01*
X72400Y-61781D01*
X71895Y-61549D01*
X71711Y-61549D01*
X71711Y-59792D01*
X71711Y-59201D01*
X71672Y-59107D01*
X71601Y-59035D01*
X71507Y-58997D01*
X71406Y-58996D01*
X71312Y-59035D01*
X71240Y-59107D01*
X71201Y-59201D01*
X71201Y-59302D01*
X71240Y-59396D01*
X71312Y-59468D01*
X71405Y-59506D01*
X71507Y-59507D01*
X71600Y-59468D01*
X71672Y-59396D01*
X71711Y-59302D01*
X71711Y-59201D01*
X71711Y-59792D01*
X71672Y-59698D01*
X71601Y-59626D01*
X71507Y-59587D01*
X71406Y-59587D01*
X71312Y-59626D01*
X71240Y-59697D01*
X71201Y-59791D01*
X71201Y-59893D01*
X71240Y-59986D01*
X71312Y-60058D01*
X71405Y-60097D01*
X71507Y-60097D01*
X71600Y-60058D01*
X71672Y-59987D01*
X71711Y-59893D01*
X71711Y-59792D01*
X71711Y-61549D01*
X70727Y-61549D01*
X70727Y-59792D01*
X70727Y-59201D01*
X70688Y-59107D01*
X70617Y-59035D01*
X70523Y-58997D01*
X70421Y-58996D01*
X70328Y-59035D01*
X70256Y-59107D01*
X70217Y-59201D01*
X70217Y-59302D01*
X70256Y-59396D01*
X70327Y-59468D01*
X70421Y-59506D01*
X70522Y-59507D01*
X70616Y-59468D01*
X70688Y-59396D01*
X70727Y-59302D01*
X70727Y-59201D01*
X70727Y-59792D01*
X70688Y-59698D01*
X70617Y-59626D01*
X70523Y-59587D01*
X70421Y-59587D01*
X70328Y-59626D01*
X70256Y-59697D01*
X70217Y-59791D01*
X70217Y-59893D01*
X70256Y-59986D01*
X70327Y-60058D01*
X70421Y-60097D01*
X70522Y-60097D01*
X70616Y-60058D01*
X70688Y-59987D01*
X70727Y-59893D01*
X70727Y-59792D01*
X70727Y-61549D01*
X69316Y-61549D01*
X69316Y-60031D01*
X69343Y-60058D01*
X69437Y-60097D01*
X69538Y-60097D01*
X69632Y-60058D01*
X69704Y-59987D01*
X69743Y-59893D01*
X69743Y-59792D01*
X69704Y-59698D01*
X69632Y-59626D01*
X69539Y-59587D01*
X69437Y-59587D01*
X69343Y-59626D01*
X69316Y-59653D01*
X69316Y-59440D01*
X69343Y-59468D01*
X69437Y-59506D01*
X69538Y-59507D01*
X69632Y-59468D01*
X69704Y-59396D01*
X69743Y-59302D01*
X69743Y-59201D01*
X69704Y-59107D01*
X69632Y-59035D01*
X69539Y-58997D01*
X69437Y-58996D01*
X69343Y-59035D01*
X69316Y-59063D01*
X69316Y-57800D01*
X71956Y-57800D01*
X71929Y-57827D01*
X71890Y-57921D01*
X71890Y-58022D01*
X71929Y-58116D01*
X72001Y-58188D01*
X72094Y-58227D01*
X72196Y-58227D01*
X72289Y-58188D01*
X72361Y-58117D01*
X72400Y-58023D01*
X72400Y-57921D01*
X72361Y-57828D01*
X72334Y-57800D01*
X72514Y-57800D01*
X72514Y-59203D01*
X72491Y-59193D01*
X72400Y-59193D01*
X72400Y-58709D01*
X72361Y-58615D01*
X72290Y-58543D01*
X72196Y-58504D01*
X72095Y-58504D01*
X72001Y-58543D01*
X71929Y-58615D01*
X71890Y-58708D01*
X71890Y-58810D01*
X71929Y-58904D01*
X72001Y-58975D01*
X72094Y-59014D01*
X72196Y-59014D01*
X72289Y-58976D01*
X72361Y-58904D01*
X72400Y-58810D01*
X72400Y-58709D01*
X72400Y-59193D01*
X72390Y-59193D01*
X72296Y-59232D01*
X72224Y-59304D01*
X72185Y-59397D01*
X72185Y-59499D01*
X72224Y-59593D01*
X72296Y-59664D01*
X72389Y-59703D01*
X72491Y-59703D01*
X72585Y-59665D01*
X72656Y-59593D01*
X72695Y-59499D01*
X72695Y-59398D01*
X72657Y-59304D01*
X72629Y-59276D01*
X73236Y-59276D01*
X73209Y-59304D01*
X73170Y-59397D01*
X73170Y-59499D01*
X73208Y-59593D01*
X73280Y-59664D01*
X73374Y-59703D01*
X73475Y-59703D01*
X73569Y-59665D01*
X73641Y-59593D01*
X73680Y-59499D01*
X73680Y-59398D01*
X73641Y-59304D01*
X73613Y-59276D01*
X74220Y-59276D01*
X74193Y-59304D01*
X74154Y-59397D01*
X74154Y-59499D01*
X74193Y-59593D01*
X74264Y-59664D01*
X74358Y-59703D01*
X74459Y-59703D01*
X74553Y-59665D01*
X74625Y-59593D01*
X74664Y-59499D01*
X74664Y-59398D01*
X74625Y-59304D01*
X74598Y-59276D01*
X75204Y-59276D01*
X75177Y-59304D01*
X75138Y-59397D01*
X75138Y-59499D01*
X75177Y-59593D01*
X75249Y-59664D01*
X75342Y-59703D01*
X75444Y-59703D01*
X75537Y-59665D01*
X75609Y-59593D01*
X75648Y-59499D01*
X75648Y-59398D01*
X75610Y-59304D01*
X75582Y-59276D01*
X76189Y-59276D01*
X76161Y-59304D01*
X76122Y-59397D01*
X76122Y-59499D01*
X76161Y-59593D01*
X76233Y-59664D01*
X76327Y-59703D01*
X76428Y-59703D01*
X76522Y-59665D01*
X76594Y-59593D01*
X76632Y-59499D01*
X76632Y-59398D01*
X76594Y-59304D01*
X76566Y-59276D01*
X77173Y-59276D01*
X77146Y-59304D01*
X77107Y-59397D01*
X77107Y-59499D01*
X77145Y-59593D01*
X77217Y-59664D01*
X77311Y-59703D01*
X77412Y-59703D01*
X77506Y-59665D01*
X77578Y-59593D01*
X77617Y-59499D01*
X77617Y-59398D01*
X77578Y-59304D01*
X77550Y-59276D01*
X78157Y-59276D01*
X78130Y-59304D01*
X78091Y-59397D01*
X78091Y-59499D01*
X78130Y-59593D01*
X78201Y-59664D01*
X78295Y-59703D01*
X78396Y-59703D01*
X78490Y-59665D01*
X78562Y-59593D01*
X78601Y-59499D01*
X78601Y-59398D01*
X78562Y-59304D01*
X78535Y-59276D01*
X79141Y-59276D01*
X79114Y-59304D01*
X79075Y-59397D01*
X79075Y-59499D01*
X79114Y-59593D01*
X79186Y-59664D01*
X79279Y-59703D01*
X79381Y-59703D01*
X79474Y-59665D01*
X79546Y-59593D01*
X79585Y-59499D01*
X79585Y-59398D01*
X79547Y-59304D01*
X79519Y-59276D01*
X80126Y-59276D01*
X80098Y-59304D01*
X80060Y-59397D01*
X80059Y-59499D01*
X80098Y-59593D01*
X80170Y-59664D01*
X80264Y-59703D01*
X80365Y-59703D01*
X80459Y-59665D01*
X80531Y-59593D01*
X80569Y-59499D01*
X80570Y-59398D01*
X80531Y-59304D01*
X80503Y-59276D01*
X81110Y-59276D01*
X81083Y-59304D01*
X81044Y-59397D01*
X81044Y-59499D01*
X81082Y-59593D01*
X81154Y-59664D01*
X81248Y-59703D01*
X81349Y-59703D01*
X81443Y-59665D01*
X81515Y-59593D01*
X81554Y-59499D01*
X81554Y-59398D01*
X81515Y-59304D01*
X81487Y-59276D01*
X82094Y-59276D01*
X82067Y-59304D01*
X82028Y-59397D01*
X82028Y-59499D01*
X82067Y-59593D01*
X82138Y-59664D01*
X82232Y-59703D01*
X82333Y-59703D01*
X82427Y-59665D01*
X82499Y-59593D01*
X82538Y-59499D01*
X82538Y-59398D01*
X82499Y-59304D01*
X82472Y-59276D01*
X83078Y-59276D01*
X83051Y-59304D01*
X83012Y-59397D01*
X83012Y-59499D01*
X83051Y-59593D01*
X83123Y-59664D01*
X83216Y-59703D01*
X83318Y-59703D01*
X83411Y-59665D01*
X83483Y-59593D01*
X83522Y-59499D01*
X83522Y-59398D01*
X83484Y-59304D01*
X83456Y-59276D01*
X83868Y-59276D01*
X83996Y-59148D01*
X83996Y-59204D01*
X84035Y-59297D01*
X84107Y-59369D01*
X84201Y-59408D01*
X84302Y-59408D01*
X84396Y-59369D01*
X84468Y-59298D01*
X84506Y-59204D01*
X84507Y-59103D01*
X84503Y-59093D01*
X84558Y-59093D01*
X84652Y-59054D01*
X84723Y-58983D01*
X84762Y-58889D01*
X84762Y-58788D01*
X84724Y-58694D01*
X84652Y-58622D01*
X84561Y-58584D01*
X84619Y-58525D01*
X84645Y-58589D01*
X84717Y-58660D01*
X84811Y-58699D01*
X84912Y-58699D01*
X85006Y-58661D01*
X85078Y-58589D01*
X85117Y-58495D01*
X85117Y-58394D01*
X85078Y-58300D01*
X85006Y-58228D01*
X84913Y-58189D01*
X84811Y-58189D01*
X84717Y-58228D01*
X84670Y-58275D01*
X84670Y-57846D01*
X84737Y-57912D01*
X84830Y-57951D01*
X84932Y-57951D01*
X85026Y-57913D01*
X85097Y-57841D01*
X85118Y-57792D01*
X85138Y-57841D01*
X85209Y-57912D01*
X85303Y-57951D01*
X85404Y-57951D01*
X85498Y-57913D01*
X85570Y-57841D01*
X85609Y-57747D01*
X85609Y-57646D01*
X85570Y-57552D01*
X85498Y-57480D01*
X85405Y-57441D01*
X85303Y-57441D01*
X85210Y-57480D01*
X85138Y-57552D01*
X85118Y-57600D01*
X85098Y-57552D01*
X85026Y-57480D01*
X84932Y-57441D01*
X84831Y-57441D01*
X84737Y-57480D01*
X84670Y-57547D01*
X84670Y-56959D01*
X84685Y-56994D01*
X84756Y-57066D01*
X84850Y-57105D01*
X84952Y-57105D01*
X85045Y-57066D01*
X85117Y-56995D01*
X85156Y-56901D01*
X85156Y-56799D01*
X85117Y-56706D01*
X85046Y-56634D01*
X84952Y-56595D01*
X84851Y-56595D01*
X84757Y-56634D01*
X84685Y-56705D01*
X84670Y-56741D01*
X84670Y-55895D01*
X84640Y-55865D01*
X84696Y-55865D01*
X84789Y-55826D01*
X84861Y-55754D01*
X84900Y-55661D01*
X84900Y-55559D01*
X84861Y-55465D01*
X84790Y-55394D01*
X84717Y-55364D01*
X84789Y-55334D01*
X84861Y-55262D01*
X84900Y-55169D01*
X84900Y-55067D01*
X84861Y-54973D01*
X84790Y-54902D01*
X84765Y-54891D01*
X84789Y-54881D01*
X84861Y-54809D01*
X84900Y-54716D01*
X84900Y-54614D01*
X84861Y-54521D01*
X84861Y-54520D01*
X84861Y-53394D01*
X84822Y-53300D01*
X84750Y-53228D01*
X84657Y-53189D01*
X84585Y-53189D01*
X84585Y-52390D01*
X84585Y-51091D01*
X84547Y-50997D01*
X84475Y-50925D01*
X84381Y-50886D01*
X84280Y-50886D01*
X84186Y-50925D01*
X84114Y-50997D01*
X84075Y-51090D01*
X84075Y-51192D01*
X84114Y-51285D01*
X84186Y-51357D01*
X84279Y-51396D01*
X84381Y-51396D01*
X84474Y-51358D01*
X84546Y-51286D01*
X84585Y-51192D01*
X84585Y-51091D01*
X84585Y-52390D01*
X84547Y-52296D01*
X84475Y-52224D01*
X84381Y-52185D01*
X84280Y-52185D01*
X84186Y-52224D01*
X84114Y-52296D01*
X84075Y-52389D01*
X84075Y-52491D01*
X84114Y-52585D01*
X84186Y-52656D01*
X84279Y-52695D01*
X84381Y-52695D01*
X84474Y-52657D01*
X84546Y-52585D01*
X84585Y-52491D01*
X84585Y-52390D01*
X84585Y-53189D01*
X84555Y-53189D01*
X84462Y-53228D01*
X84390Y-53300D01*
X84351Y-53393D01*
X84351Y-53495D01*
X84389Y-53589D01*
X84461Y-53660D01*
X84555Y-53699D01*
X84656Y-53699D01*
X84750Y-53661D01*
X84822Y-53589D01*
X84861Y-53495D01*
X84861Y-53394D01*
X84861Y-54520D01*
X84790Y-54449D01*
X84696Y-54410D01*
X84595Y-54410D01*
X84501Y-54449D01*
X84429Y-54520D01*
X84390Y-54614D01*
X84390Y-54715D01*
X84429Y-54809D01*
X84501Y-54881D01*
X84525Y-54891D01*
X84501Y-54901D01*
X84429Y-54973D01*
X84390Y-55067D01*
X84390Y-55168D01*
X84429Y-55262D01*
X84501Y-55334D01*
X84573Y-55364D01*
X84501Y-55393D01*
X84429Y-55465D01*
X84390Y-55559D01*
X84390Y-55615D01*
X84065Y-55289D01*
X83877Y-55289D01*
X83877Y-53827D01*
X83838Y-53733D01*
X83766Y-53661D01*
X83672Y-53622D01*
X83621Y-53622D01*
X83621Y-52114D01*
X83621Y-51091D01*
X83582Y-50997D01*
X83510Y-50925D01*
X83417Y-50886D01*
X83315Y-50886D01*
X83221Y-50925D01*
X83150Y-50997D01*
X83111Y-51090D01*
X83111Y-51192D01*
X83149Y-51285D01*
X83221Y-51357D01*
X83315Y-51396D01*
X83416Y-51396D01*
X83510Y-51358D01*
X83582Y-51286D01*
X83621Y-51192D01*
X83621Y-51091D01*
X83621Y-52114D01*
X83582Y-52021D01*
X83510Y-51949D01*
X83417Y-51910D01*
X83315Y-51910D01*
X83221Y-51949D01*
X83150Y-52020D01*
X83111Y-52114D01*
X83111Y-52215D01*
X83149Y-52309D01*
X83221Y-52381D01*
X83315Y-52420D01*
X83416Y-52420D01*
X83510Y-52381D01*
X83582Y-52309D01*
X83621Y-52216D01*
X83621Y-52114D01*
X83621Y-53622D01*
X83571Y-53622D01*
X83477Y-53661D01*
X83405Y-53733D01*
X83367Y-53827D01*
X83367Y-53928D01*
X83405Y-54022D01*
X83477Y-54094D01*
X83571Y-54132D01*
X83672Y-54132D01*
X83766Y-54094D01*
X83838Y-54022D01*
X83877Y-53928D01*
X83877Y-53827D01*
X83877Y-55289D01*
X83161Y-55289D01*
X83188Y-55262D01*
X83227Y-55169D01*
X83227Y-55067D01*
X83188Y-54973D01*
X83117Y-54902D01*
X83030Y-54866D01*
X83030Y-51091D01*
X82991Y-50997D01*
X82920Y-50925D01*
X82826Y-50886D01*
X82725Y-50886D01*
X82631Y-50925D01*
X82559Y-50997D01*
X82520Y-51090D01*
X82520Y-51192D01*
X82559Y-51285D01*
X82630Y-51357D01*
X82724Y-51396D01*
X82826Y-51396D01*
X82919Y-51358D01*
X82991Y-51286D01*
X83030Y-51192D01*
X83030Y-51091D01*
X83030Y-54866D01*
X83023Y-54863D01*
X82921Y-54863D01*
X82828Y-54901D01*
X82756Y-54973D01*
X82735Y-55024D01*
X82735Y-52902D01*
X82696Y-52808D01*
X82624Y-52736D01*
X82552Y-52706D01*
X82624Y-52676D01*
X82696Y-52605D01*
X82735Y-52511D01*
X82735Y-52410D01*
X82696Y-52316D01*
X82624Y-52244D01*
X82531Y-52205D01*
X82429Y-52205D01*
X82336Y-52244D01*
X82264Y-52315D01*
X82225Y-52409D01*
X82225Y-52511D01*
X82264Y-52604D01*
X82335Y-52676D01*
X82408Y-52706D01*
X82336Y-52736D01*
X82264Y-52808D01*
X82225Y-52901D01*
X82225Y-53003D01*
X82264Y-53097D01*
X82335Y-53168D01*
X82429Y-53207D01*
X82530Y-53207D01*
X82624Y-53169D01*
X82696Y-53097D01*
X82735Y-53003D01*
X82735Y-52902D01*
X82735Y-55024D01*
X82717Y-55067D01*
X82717Y-55168D01*
X82756Y-55262D01*
X82783Y-55289D01*
X82373Y-55289D01*
X82401Y-55262D01*
X82439Y-55169D01*
X82440Y-55067D01*
X82401Y-54973D01*
X82329Y-54902D01*
X82235Y-54863D01*
X82134Y-54863D01*
X82046Y-54899D01*
X82046Y-52902D01*
X82007Y-52808D01*
X81935Y-52736D01*
X81842Y-52697D01*
X81740Y-52697D01*
X81647Y-52736D01*
X81575Y-52808D01*
X81536Y-52901D01*
X81536Y-53003D01*
X81575Y-53097D01*
X81646Y-53168D01*
X81740Y-53207D01*
X81841Y-53207D01*
X81935Y-53169D01*
X82007Y-53097D01*
X82046Y-53003D01*
X82046Y-52902D01*
X82046Y-54899D01*
X82040Y-54901D01*
X81997Y-54944D01*
X81997Y-54133D01*
X81974Y-54017D01*
X81908Y-53918D01*
X81809Y-53852D01*
X81692Y-53828D01*
X81576Y-53852D01*
X81554Y-53866D01*
X81554Y-53492D01*
X81515Y-53399D01*
X81455Y-53339D01*
X81455Y-51032D01*
X81417Y-50938D01*
X81345Y-50866D01*
X81251Y-50827D01*
X81150Y-50827D01*
X81056Y-50866D01*
X80984Y-50938D01*
X80945Y-51031D01*
X80945Y-51133D01*
X80984Y-51226D01*
X81056Y-51298D01*
X81149Y-51337D01*
X81251Y-51337D01*
X81345Y-51298D01*
X81416Y-51227D01*
X81455Y-51133D01*
X81455Y-51032D01*
X81455Y-53339D01*
X81443Y-53327D01*
X81350Y-53288D01*
X81248Y-53288D01*
X81154Y-53327D01*
X81083Y-53398D01*
X81044Y-53492D01*
X81044Y-53593D01*
X81082Y-53687D01*
X81154Y-53759D01*
X81248Y-53798D01*
X81349Y-53798D01*
X81443Y-53759D01*
X81515Y-53687D01*
X81554Y-53594D01*
X81554Y-53492D01*
X81554Y-53866D01*
X81477Y-53918D01*
X81411Y-54017D01*
X81387Y-54133D01*
X81387Y-54944D01*
X81345Y-54902D01*
X81251Y-54863D01*
X81150Y-54863D01*
X81056Y-54901D01*
X80984Y-54973D01*
X80954Y-55045D01*
X80924Y-54973D01*
X80865Y-54914D01*
X80865Y-54181D01*
X80865Y-50441D01*
X80826Y-50347D01*
X80754Y-50276D01*
X80661Y-50237D01*
X80559Y-50237D01*
X80465Y-50275D01*
X80394Y-50347D01*
X80355Y-50441D01*
X80355Y-50542D01*
X80393Y-50636D01*
X80465Y-50708D01*
X80559Y-50747D01*
X80660Y-50747D01*
X80754Y-50708D01*
X80826Y-50636D01*
X80865Y-50543D01*
X80865Y-50441D01*
X80865Y-54181D01*
X80826Y-54088D01*
X80754Y-54016D01*
X80661Y-53977D01*
X80559Y-53977D01*
X80465Y-54015D01*
X80394Y-54087D01*
X80355Y-54181D01*
X80355Y-54282D01*
X80393Y-54376D01*
X80465Y-54448D01*
X80559Y-54487D01*
X80660Y-54487D01*
X80754Y-54448D01*
X80826Y-54376D01*
X80865Y-54283D01*
X80865Y-54181D01*
X80865Y-54914D01*
X80853Y-54902D01*
X80759Y-54863D01*
X80658Y-54863D01*
X80564Y-54901D01*
X80492Y-54973D01*
X80453Y-55067D01*
X80453Y-55168D01*
X80492Y-55262D01*
X80519Y-55289D01*
X79913Y-55289D01*
X79940Y-55262D01*
X79979Y-55169D01*
X79979Y-55067D01*
X79940Y-54973D01*
X79869Y-54902D01*
X79775Y-54863D01*
X79673Y-54863D01*
X79580Y-54901D01*
X79508Y-54973D01*
X79469Y-55067D01*
X79469Y-55168D01*
X79508Y-55262D01*
X79535Y-55289D01*
X78928Y-55289D01*
X78956Y-55262D01*
X78995Y-55169D01*
X78995Y-55067D01*
X78956Y-54973D01*
X78884Y-54902D01*
X78791Y-54863D01*
X78689Y-54863D01*
X78595Y-54901D01*
X78524Y-54973D01*
X78485Y-55067D01*
X78485Y-55168D01*
X78523Y-55262D01*
X78551Y-55289D01*
X77944Y-55289D01*
X77971Y-55262D01*
X78010Y-55169D01*
X78010Y-55067D01*
X77972Y-54973D01*
X77900Y-54902D01*
X77806Y-54863D01*
X77705Y-54863D01*
X77611Y-54901D01*
X77539Y-54973D01*
X77500Y-55067D01*
X77500Y-55168D01*
X77539Y-55262D01*
X77567Y-55289D01*
X76960Y-55289D01*
X76987Y-55262D01*
X77026Y-55169D01*
X77026Y-55067D01*
X76987Y-54973D01*
X76916Y-54902D01*
X76822Y-54863D01*
X76721Y-54863D01*
X76627Y-54901D01*
X76555Y-54973D01*
X76516Y-55067D01*
X76516Y-55168D01*
X76555Y-55262D01*
X76582Y-55289D01*
X75976Y-55289D01*
X76003Y-55262D01*
X76042Y-55169D01*
X76042Y-55067D01*
X76003Y-54973D01*
X75932Y-54902D01*
X75838Y-54863D01*
X75736Y-54863D01*
X75643Y-54901D01*
X75571Y-54973D01*
X75532Y-55067D01*
X75532Y-55168D01*
X75571Y-55262D01*
X75598Y-55289D01*
X74991Y-55289D01*
X75019Y-55262D01*
X75058Y-55169D01*
X75058Y-55067D01*
X75019Y-54973D01*
X74947Y-54902D01*
X74854Y-54863D01*
X74752Y-54863D01*
X74658Y-54901D01*
X74587Y-54973D01*
X74548Y-55067D01*
X74548Y-55168D01*
X74586Y-55262D01*
X74614Y-55289D01*
X74007Y-55289D01*
X74034Y-55262D01*
X74073Y-55169D01*
X74073Y-55067D01*
X74035Y-54973D01*
X73963Y-54902D01*
X73869Y-54863D01*
X73768Y-54863D01*
X73674Y-54901D01*
X73602Y-54973D01*
X73563Y-55067D01*
X73563Y-55168D01*
X73602Y-55262D01*
X73630Y-55289D01*
X73023Y-55289D01*
X73050Y-55262D01*
X73089Y-55169D01*
X73089Y-55067D01*
X73089Y-54083D01*
X73089Y-52902D01*
X73089Y-51721D01*
X73089Y-50540D01*
X73050Y-50446D01*
X72979Y-50374D01*
X72885Y-50335D01*
X72784Y-50335D01*
X72690Y-50374D01*
X72618Y-50445D01*
X72579Y-50539D01*
X72579Y-50641D01*
X72618Y-50734D01*
X72690Y-50806D01*
X72783Y-50845D01*
X72885Y-50845D01*
X72978Y-50806D01*
X73050Y-50735D01*
X73089Y-50641D01*
X73089Y-50540D01*
X73089Y-51721D01*
X73050Y-51627D01*
X72979Y-51555D01*
X72885Y-51516D01*
X72784Y-51516D01*
X72690Y-51555D01*
X72618Y-51627D01*
X72579Y-51720D01*
X72579Y-51822D01*
X72618Y-51915D01*
X72690Y-51987D01*
X72783Y-52026D01*
X72885Y-52026D01*
X72978Y-51987D01*
X73050Y-51916D01*
X73089Y-51822D01*
X73089Y-51721D01*
X73089Y-52902D01*
X73050Y-52808D01*
X72979Y-52736D01*
X72885Y-52697D01*
X72784Y-52697D01*
X72690Y-52736D01*
X72618Y-52808D01*
X72579Y-52901D01*
X72579Y-53003D01*
X72618Y-53097D01*
X72690Y-53168D01*
X72783Y-53207D01*
X72885Y-53207D01*
X72978Y-53169D01*
X73050Y-53097D01*
X73089Y-53003D01*
X73089Y-52902D01*
X73089Y-54083D01*
X73050Y-53989D01*
X72979Y-53917D01*
X72885Y-53878D01*
X72784Y-53878D01*
X72690Y-53917D01*
X72618Y-53989D01*
X72579Y-54082D01*
X72579Y-54184D01*
X72618Y-54278D01*
X72690Y-54349D01*
X72783Y-54388D01*
X72885Y-54388D01*
X72978Y-54350D01*
X73050Y-54278D01*
X73089Y-54184D01*
X73089Y-54083D01*
X73089Y-55067D01*
X73050Y-54973D01*
X72979Y-54902D01*
X72885Y-54863D01*
X72784Y-54863D01*
X72690Y-54901D01*
X72618Y-54973D01*
X72579Y-55067D01*
X72579Y-55168D01*
X72604Y-55229D01*
X72400Y-55176D01*
X72400Y-54673D01*
X72400Y-53689D01*
X72361Y-53595D01*
X72302Y-53536D01*
X72302Y-50146D01*
X72263Y-50052D01*
X72191Y-49980D01*
X72098Y-49941D01*
X71996Y-49941D01*
X71902Y-49980D01*
X71831Y-50052D01*
X71792Y-50145D01*
X71792Y-50247D01*
X71830Y-50341D01*
X71902Y-50412D01*
X71996Y-50451D01*
X72097Y-50451D01*
X72191Y-50413D01*
X72263Y-50341D01*
X72302Y-50247D01*
X72302Y-50146D01*
X72302Y-53536D01*
X72290Y-53524D01*
X72196Y-53485D01*
X72095Y-53485D01*
X72001Y-53523D01*
X71929Y-53595D01*
X71890Y-53689D01*
X71890Y-53790D01*
X71929Y-53884D01*
X72001Y-53956D01*
X72094Y-53995D01*
X72196Y-53995D01*
X72289Y-53956D01*
X72361Y-53884D01*
X72400Y-53791D01*
X72400Y-53689D01*
X72400Y-54673D01*
X72361Y-54580D01*
X72290Y-54508D01*
X72196Y-54469D01*
X72095Y-54469D01*
X72001Y-54508D01*
X71929Y-54579D01*
X71890Y-54673D01*
X71890Y-54774D01*
X71929Y-54868D01*
X72001Y-54940D01*
X72094Y-54979D01*
X72196Y-54979D01*
X72289Y-54940D01*
X72361Y-54869D01*
X72400Y-54775D01*
X72400Y-54673D01*
X72400Y-55176D01*
X71853Y-55034D01*
X71711Y-55035D01*
X71711Y-53295D01*
X71672Y-53202D01*
X71601Y-53130D01*
X71514Y-53094D01*
X71514Y-51721D01*
X71476Y-51627D01*
X71404Y-51555D01*
X71310Y-51516D01*
X71209Y-51516D01*
X71121Y-51553D01*
X71121Y-50146D01*
X71082Y-50052D01*
X71010Y-49980D01*
X70917Y-49941D01*
X70815Y-49941D01*
X70721Y-49980D01*
X70650Y-50052D01*
X70611Y-50145D01*
X70611Y-50247D01*
X70649Y-50341D01*
X70721Y-50412D01*
X70815Y-50451D01*
X70916Y-50451D01*
X71010Y-50413D01*
X71082Y-50341D01*
X71121Y-50247D01*
X71121Y-50146D01*
X71121Y-51553D01*
X71115Y-51555D01*
X71043Y-51627D01*
X71004Y-51720D01*
X71004Y-51822D01*
X71043Y-51915D01*
X71115Y-51987D01*
X71208Y-52026D01*
X71310Y-52026D01*
X71404Y-51987D01*
X71475Y-51916D01*
X71514Y-51822D01*
X71514Y-51721D01*
X71514Y-53094D01*
X71507Y-53091D01*
X71406Y-53091D01*
X71312Y-53130D01*
X71240Y-53201D01*
X71201Y-53295D01*
X71201Y-53396D01*
X71240Y-53490D01*
X71312Y-53562D01*
X71405Y-53601D01*
X71507Y-53601D01*
X71600Y-53562D01*
X71672Y-53491D01*
X71711Y-53397D01*
X71711Y-53295D01*
X71711Y-55035D01*
X70727Y-55042D01*
X70727Y-53295D01*
X70688Y-53202D01*
X70617Y-53130D01*
X70523Y-53091D01*
X70421Y-53091D01*
X70328Y-53130D01*
X70256Y-53201D01*
X70217Y-53295D01*
X70217Y-53396D01*
X70256Y-53490D01*
X70327Y-53562D01*
X70421Y-53601D01*
X70522Y-53601D01*
X70616Y-53562D01*
X70688Y-53491D01*
X70727Y-53397D01*
X70727Y-53295D01*
X70727Y-55042D01*
X69940Y-55048D01*
X69940Y-52508D01*
X69940Y-51327D01*
X69940Y-50146D01*
X69901Y-50052D01*
X69829Y-49980D01*
X69735Y-49941D01*
X69634Y-49941D01*
X69540Y-49980D01*
X69468Y-50052D01*
X69430Y-50145D01*
X69429Y-50247D01*
X69468Y-50341D01*
X69540Y-50412D01*
X69634Y-50451D01*
X69735Y-50451D01*
X69829Y-50413D01*
X69901Y-50341D01*
X69939Y-50247D01*
X69940Y-50146D01*
X69940Y-51327D01*
X69901Y-51233D01*
X69829Y-51161D01*
X69735Y-51122D01*
X69634Y-51122D01*
X69540Y-51161D01*
X69468Y-51233D01*
X69430Y-51327D01*
X69429Y-51428D01*
X69468Y-51522D01*
X69540Y-51594D01*
X69634Y-51632D01*
X69735Y-51632D01*
X69829Y-51594D01*
X69901Y-51522D01*
X69939Y-51428D01*
X69940Y-51327D01*
X69940Y-52508D01*
X69901Y-52414D01*
X69829Y-52343D01*
X69735Y-52304D01*
X69634Y-52304D01*
X69540Y-52342D01*
X69468Y-52414D01*
X69430Y-52508D01*
X69429Y-52609D01*
X69468Y-52703D01*
X69540Y-52775D01*
X69634Y-52814D01*
X69735Y-52814D01*
X69829Y-52775D01*
X69901Y-52703D01*
X69939Y-52610D01*
X69940Y-52508D01*
X69940Y-55048D01*
X69316Y-55053D01*
X69316Y-53535D01*
X69343Y-53562D01*
X69437Y-53601D01*
X69538Y-53601D01*
X69632Y-53562D01*
X69704Y-53491D01*
X69743Y-53397D01*
X69743Y-53295D01*
X69704Y-53202D01*
X69632Y-53130D01*
X69539Y-53091D01*
X69437Y-53091D01*
X69343Y-53130D01*
X69316Y-53157D01*
X69316Y-49828D01*
X79929Y-49828D01*
X79902Y-49855D01*
X79863Y-49949D01*
X79863Y-50050D01*
X79901Y-50144D01*
X79973Y-50216D01*
X80067Y-50254D01*
X80168Y-50255D01*
X80262Y-50216D01*
X80334Y-50144D01*
X80373Y-50050D01*
X80373Y-49949D01*
X80334Y-49855D01*
X80306Y-49828D01*
X81307Y-49828D01*
X81280Y-49855D01*
X81241Y-49949D01*
X81241Y-50050D01*
X81279Y-50144D01*
X81351Y-50216D01*
X81445Y-50254D01*
X81546Y-50255D01*
X81640Y-50216D01*
X81712Y-50144D01*
X81751Y-50050D01*
X81751Y-49949D01*
X81712Y-49855D01*
X81684Y-49828D01*
X85604Y-49828D01*
X85604Y-50926D01*
X85579Y-50926D01*
X85485Y-50964D01*
X85413Y-51036D01*
X85374Y-51130D01*
X85374Y-51231D01*
X85413Y-51325D01*
X85485Y-51397D01*
X85578Y-51436D01*
X85604Y-51436D01*
X85604Y-52727D01*
X85584Y-52736D01*
X85570Y-52750D01*
X85570Y-52075D01*
X85531Y-51981D01*
X85459Y-51909D01*
X85365Y-51871D01*
X85264Y-51870D01*
X85170Y-51909D01*
X85098Y-51981D01*
X85060Y-52075D01*
X85059Y-52176D01*
X85098Y-52270D01*
X85170Y-52342D01*
X85264Y-52380D01*
X85365Y-52381D01*
X85459Y-52342D01*
X85531Y-52270D01*
X85569Y-52176D01*
X85570Y-52075D01*
X85570Y-52750D01*
X85512Y-52808D01*
X85473Y-52901D01*
X85473Y-53003D01*
X85512Y-53097D01*
X85583Y-53168D01*
X85604Y-53177D01*
X85604Y-56225D01*
X87081Y-56225D01*
X87081Y-61097D01*
X87021Y-61122D01*
X86949Y-61193D01*
X86910Y-61287D01*
X86910Y-61389D01*
X86949Y-61482D01*
X87020Y-61554D01*
X87081Y-61579D01*
X87081Y-61624D01*
X88262Y-62805D01*
X88262Y-62941D01*
X88215Y-62894D01*
X88121Y-62855D01*
X88020Y-62855D01*
X87926Y-62893D01*
X87892Y-62927D01*
X87892Y-62626D01*
X87854Y-62532D01*
X87782Y-62461D01*
X87688Y-62422D01*
X87587Y-62422D01*
X87493Y-62460D01*
X87421Y-62532D01*
X87382Y-62626D01*
X87382Y-62727D01*
X87421Y-62821D01*
X87493Y-62893D01*
X87586Y-62932D01*
X87688Y-62932D01*
X87782Y-62893D01*
X87853Y-62821D01*
X87892Y-62728D01*
X87892Y-62626D01*
X87892Y-62927D01*
X87854Y-62965D01*
X87815Y-63059D01*
X87815Y-63160D01*
X87844Y-63229D01*
X87803Y-63229D01*
X87710Y-63267D01*
X87638Y-63339D01*
X87599Y-63433D01*
X87599Y-63534D01*
X87638Y-63628D01*
X87709Y-63700D01*
X87803Y-63739D01*
X87904Y-63739D01*
X87998Y-63700D01*
X88070Y-63628D01*
X88109Y-63535D01*
X88109Y-63433D01*
X88081Y-63365D01*
X88121Y-63365D01*
X88215Y-63326D01*
X88262Y-63279D01*
X88262Y-63699D01*
X88228Y-63733D01*
X88189Y-63827D01*
X88189Y-63928D01*
X88228Y-64022D01*
X88262Y-64056D01*
X88262Y-65237D01*
X88177Y-65237D01*
X88084Y-65275D01*
X88012Y-65347D01*
X87973Y-65441D01*
X87973Y-65542D01*
X88012Y-65636D01*
X88083Y-65708D01*
X88177Y-65747D01*
X88262Y-65747D01*
X88262Y-65759D01*
M02*
