G04 (created by PCBNEW (2013-03-31 BZR 4008)-stable) date 16/06/2013 11:35:49 PM*
%MOIN*%
G04 Gerber Fmt 3.4, Leading zero omitted, Abs format*
%FSLAX34Y34*%
G01*
G70*
G90*
G04 APERTURE LIST*
%ADD10C,0.005*%
%ADD11R,0.06X0.06*%
%ADD12C,0.06*%
%ADD13R,0.11811X0.11811*%
%ADD14C,0.0374016*%
%ADD15C,0.0787402*%
%ADD16C,0.0984252*%
%ADD17R,0.3X0.15*%
G04 APERTURE END LIST*
G54D10*
G54D11*
X87295Y-51877D03*
G54D12*
X87295Y-50877D03*
X88295Y-51877D03*
X88295Y-50877D03*
G54D11*
X81570Y-66444D03*
G54D12*
X81570Y-65444D03*
X82570Y-66444D03*
X82570Y-65444D03*
X83570Y-66444D03*
X83570Y-65444D03*
X84570Y-66444D03*
X84570Y-65444D03*
G54D11*
X89838Y-51877D03*
G54D12*
X89838Y-50877D03*
X90838Y-51877D03*
X90838Y-50877D03*
X91838Y-51877D03*
X91838Y-50877D03*
X92838Y-51877D03*
X92838Y-50877D03*
G54D11*
X90051Y-63082D03*
G54D12*
X91051Y-63082D03*
X90051Y-64082D03*
X91051Y-64082D03*
G54D13*
X88582Y-57283D03*
G54D14*
X95531Y-63582D03*
X95531Y-62952D03*
X95531Y-62322D03*
X95531Y-61692D03*
X95531Y-61062D03*
X95531Y-60433D03*
X95531Y-59803D03*
X95531Y-59173D03*
X95531Y-58543D03*
X95531Y-57913D03*
X95531Y-57283D03*
X95531Y-56653D03*
X95531Y-56023D03*
X95531Y-55393D03*
X95531Y-54763D03*
X95531Y-54133D03*
X95531Y-53503D03*
X95078Y-53188D03*
X95078Y-53818D03*
X95078Y-54448D03*
X95078Y-55078D03*
X95078Y-55708D03*
X95078Y-56338D03*
X95078Y-56968D03*
X95078Y-57598D03*
X95078Y-58228D03*
X95078Y-58858D03*
X95078Y-59488D03*
X95078Y-60118D03*
X95078Y-60748D03*
X95078Y-61377D03*
X95078Y-62007D03*
X95078Y-62637D03*
X95078Y-63267D03*
X96003Y-63110D03*
X96003Y-62480D03*
X96003Y-61850D03*
X96003Y-61220D03*
X96003Y-60590D03*
X96003Y-59960D03*
X96003Y-59330D03*
X96003Y-58700D03*
X96003Y-58070D03*
X96003Y-57440D03*
X96003Y-56811D03*
X96003Y-56181D03*
X96003Y-55551D03*
X96003Y-54921D03*
X96003Y-54291D03*
X96003Y-53661D03*
X96003Y-53031D03*
X96456Y-53346D03*
X96456Y-53976D03*
X96456Y-54606D03*
X96456Y-55236D03*
X96456Y-55866D03*
X96456Y-56496D03*
X96456Y-57125D03*
X96456Y-57755D03*
X96456Y-58385D03*
X96456Y-59015D03*
X96456Y-59645D03*
X96456Y-60275D03*
X96456Y-60905D03*
X96456Y-61535D03*
X96456Y-62165D03*
X96456Y-62795D03*
X96456Y-63425D03*
G54D15*
X96003Y-64675D03*
X96003Y-51938D03*
G54D16*
X97047Y-66604D03*
X97047Y-50009D03*
G54D17*
X70397Y-58274D03*
X70397Y-54324D03*
X70397Y-64770D03*
X70397Y-60820D03*
M02*
