G04 (created by PCBNEW (2013-03-31 BZR 4008)-stable) date 16/06/2013 11:35:49 PM*
%MOIN*%
G04 Gerber Fmt 3.4, Leading zero omitted, Abs format*
%FSLAX34Y34*%
G01*
G70*
G90*
G04 APERTURE LIST*
%ADD10C,0.005*%
%ADD11C,0.014*%
%ADD12C,0.011811*%
%ADD13C,0.006*%
%ADD14R,0.06X0.06*%
%ADD15C,0.06*%
%ADD16R,0.11811X0.11811*%
%ADD17C,0.0374016*%
%ADD18C,0.0787402*%
%ADD19C,0.0984252*%
%ADD20R,0.3X0.15*%
G04 APERTURE END LIST*
G54D10*
G54D11*
X93996Y-65649D02*
X92027Y-65649D01*
X92027Y-66633D02*
X93996Y-66633D01*
X92027Y-64665D02*
X93996Y-64665D01*
X92027Y-64665D02*
X92027Y-66633D01*
X93996Y-64665D02*
X93996Y-66633D01*
G54D12*
X93377Y-64904D02*
X93264Y-64904D01*
X93208Y-64932D01*
X93152Y-64988D01*
X93124Y-65101D01*
X93124Y-65298D01*
X93152Y-65410D01*
X93208Y-65466D01*
X93264Y-65494D01*
X93377Y-65494D01*
X93433Y-65466D01*
X93489Y-65410D01*
X93517Y-65298D01*
X93517Y-65101D01*
X93489Y-64988D01*
X93433Y-64932D01*
X93377Y-64904D01*
X92871Y-65494D02*
X92871Y-64904D01*
X92533Y-65494D01*
X92533Y-64904D01*
X93574Y-65888D02*
X93461Y-65888D01*
X93405Y-65916D01*
X93349Y-65973D01*
X93321Y-66085D01*
X93321Y-66282D01*
X93349Y-66394D01*
X93405Y-66451D01*
X93461Y-66479D01*
X93574Y-66479D01*
X93630Y-66451D01*
X93686Y-66394D01*
X93714Y-66282D01*
X93714Y-66085D01*
X93686Y-65973D01*
X93630Y-65916D01*
X93574Y-65888D01*
X92871Y-66169D02*
X93068Y-66169D01*
X93068Y-66479D02*
X93068Y-65888D01*
X92786Y-65888D01*
X92365Y-66169D02*
X92561Y-66169D01*
X92561Y-66479D02*
X92561Y-65888D01*
X92280Y-65888D01*
X91690Y-65494D02*
X91690Y-64904D01*
X91549Y-64904D01*
X91465Y-64932D01*
X91408Y-64988D01*
X91380Y-65044D01*
X91352Y-65157D01*
X91352Y-65241D01*
X91380Y-65354D01*
X91408Y-65410D01*
X91465Y-65466D01*
X91549Y-65494D01*
X91690Y-65494D01*
X91099Y-65494D02*
X91099Y-64904D01*
X90902Y-64904D02*
X90565Y-64904D01*
X90733Y-65494D02*
X90733Y-64904D01*
X90368Y-65494D02*
X90368Y-64904D01*
X90368Y-65185D02*
X90030Y-65185D01*
X90030Y-65494D02*
X90030Y-64904D01*
X89749Y-65185D02*
X89552Y-65185D01*
X89468Y-65494D02*
X89749Y-65494D01*
X89749Y-64904D01*
X89468Y-64904D01*
X88877Y-65494D02*
X89074Y-65213D01*
X89215Y-65494D02*
X89215Y-64904D01*
X88990Y-64904D01*
X88934Y-64932D01*
X88906Y-64960D01*
X88877Y-65016D01*
X88877Y-65101D01*
X88906Y-65157D01*
X88934Y-65185D01*
X88990Y-65213D01*
X89215Y-65213D01*
X80399Y-53683D02*
X80399Y-53093D01*
X80202Y-53515D01*
X80005Y-53093D01*
X80005Y-53683D01*
X79611Y-53093D02*
X79499Y-53093D01*
X79443Y-53121D01*
X79386Y-53177D01*
X79358Y-53290D01*
X79358Y-53487D01*
X79386Y-53599D01*
X79443Y-53655D01*
X79499Y-53683D01*
X79611Y-53683D01*
X79668Y-53655D01*
X79724Y-53599D01*
X79752Y-53487D01*
X79752Y-53290D01*
X79724Y-53177D01*
X79668Y-53121D01*
X79611Y-53093D01*
X79105Y-53683D02*
X79105Y-53093D01*
X78965Y-53093D01*
X78880Y-53121D01*
X78824Y-53177D01*
X78796Y-53233D01*
X78768Y-53346D01*
X78768Y-53430D01*
X78796Y-53543D01*
X78824Y-53599D01*
X78880Y-53655D01*
X78965Y-53683D01*
X79105Y-53683D01*
X78515Y-53374D02*
X78318Y-53374D01*
X78233Y-53683D02*
X78515Y-53683D01*
X78515Y-53093D01*
X78233Y-53093D01*
G54D11*
X73622Y-53937D02*
X73622Y-61712D01*
X80511Y-53937D02*
X73622Y-53937D01*
X80511Y-61712D02*
X80511Y-53937D01*
X73622Y-61712D02*
X80511Y-61712D01*
G54D12*
X78332Y-60123D02*
X78360Y-60151D01*
X78444Y-60179D01*
X78501Y-60179D01*
X78585Y-60151D01*
X78641Y-60095D01*
X78669Y-60039D01*
X78697Y-59926D01*
X78697Y-59842D01*
X78669Y-59730D01*
X78641Y-59673D01*
X78585Y-59617D01*
X78501Y-59589D01*
X78444Y-59589D01*
X78360Y-59617D01*
X78332Y-59645D01*
X77798Y-60179D02*
X78079Y-60179D01*
X78079Y-59589D01*
X77601Y-60179D02*
X77601Y-59589D01*
X77263Y-60179D02*
X77516Y-59842D01*
X77263Y-59589D02*
X77601Y-59926D01*
X76560Y-60179D02*
X76560Y-59589D01*
X76420Y-59589D01*
X76335Y-59617D01*
X76279Y-59673D01*
X76251Y-59730D01*
X76223Y-59842D01*
X76223Y-59926D01*
X76251Y-60039D01*
X76279Y-60095D01*
X76335Y-60151D01*
X76420Y-60179D01*
X76560Y-60179D01*
X75970Y-59589D02*
X75970Y-60067D01*
X75942Y-60123D01*
X75913Y-60151D01*
X75857Y-60179D01*
X75745Y-60179D01*
X75688Y-60151D01*
X75660Y-60123D01*
X75632Y-60067D01*
X75632Y-59589D01*
X75435Y-59589D02*
X75098Y-59589D01*
X75267Y-60179D02*
X75267Y-59589D01*
X74789Y-59898D02*
X74789Y-60179D01*
X74985Y-59589D02*
X74789Y-59898D01*
X74592Y-59589D01*
X78979Y-61096D02*
X78894Y-61124D01*
X78754Y-61124D01*
X78697Y-61096D01*
X78669Y-61068D01*
X78641Y-61012D01*
X78641Y-60956D01*
X78669Y-60899D01*
X78697Y-60871D01*
X78754Y-60843D01*
X78866Y-60815D01*
X78922Y-60787D01*
X78951Y-60759D01*
X78979Y-60703D01*
X78979Y-60646D01*
X78951Y-60590D01*
X78922Y-60562D01*
X78866Y-60534D01*
X78726Y-60534D01*
X78641Y-60562D01*
X78473Y-60534D02*
X78135Y-60534D01*
X78304Y-61124D02*
X78304Y-60534D01*
X77966Y-60956D02*
X77685Y-60956D01*
X78023Y-61124D02*
X77826Y-60534D01*
X77629Y-61124D01*
X77235Y-60815D02*
X77151Y-60843D01*
X77123Y-60871D01*
X77095Y-60928D01*
X77095Y-61012D01*
X77123Y-61068D01*
X77151Y-61096D01*
X77207Y-61124D01*
X77432Y-61124D01*
X77432Y-60534D01*
X77235Y-60534D01*
X77179Y-60562D01*
X77151Y-60590D01*
X77123Y-60646D01*
X77123Y-60703D01*
X77151Y-60759D01*
X77179Y-60787D01*
X77235Y-60815D01*
X77432Y-60815D01*
X76841Y-61124D02*
X76841Y-60534D01*
X76279Y-61124D02*
X76560Y-61124D01*
X76560Y-60534D01*
X76082Y-61124D02*
X76082Y-60534D01*
X75857Y-60534D02*
X75464Y-60534D01*
X75857Y-61124D01*
X75464Y-61124D01*
X75239Y-60815D02*
X75042Y-60815D01*
X74957Y-61124D02*
X75239Y-61124D01*
X75239Y-60534D01*
X74957Y-60534D01*
X74367Y-61124D02*
X74564Y-60843D01*
X74704Y-61124D02*
X74704Y-60534D01*
X74479Y-60534D01*
X74423Y-60562D01*
X74395Y-60590D01*
X74367Y-60646D01*
X74367Y-60731D01*
X74395Y-60787D01*
X74423Y-60815D01*
X74479Y-60843D01*
X74704Y-60843D01*
X79330Y-58605D02*
X79218Y-58605D01*
X79161Y-58633D01*
X79105Y-58689D01*
X79077Y-58802D01*
X79077Y-58998D01*
X79105Y-59111D01*
X79161Y-59167D01*
X79218Y-59195D01*
X79330Y-59195D01*
X79386Y-59167D01*
X79443Y-59111D01*
X79471Y-58998D01*
X79471Y-58802D01*
X79443Y-58689D01*
X79386Y-58633D01*
X79330Y-58605D01*
X78627Y-58886D02*
X78824Y-58886D01*
X78824Y-59195D02*
X78824Y-58605D01*
X78543Y-58605D01*
X78121Y-58886D02*
X78318Y-58886D01*
X78318Y-59195D02*
X78318Y-58605D01*
X78037Y-58605D01*
X77671Y-59392D02*
X77671Y-58548D01*
X77137Y-58605D02*
X77024Y-58605D01*
X76968Y-58633D01*
X76912Y-58689D01*
X76884Y-58802D01*
X76884Y-58998D01*
X76912Y-59111D01*
X76968Y-59167D01*
X77024Y-59195D01*
X77137Y-59195D01*
X77193Y-59167D01*
X77249Y-59111D01*
X77277Y-58998D01*
X77277Y-58802D01*
X77249Y-58689D01*
X77193Y-58633D01*
X77137Y-58605D01*
X76631Y-59195D02*
X76631Y-58605D01*
X76293Y-59195D01*
X76293Y-58605D01*
X75871Y-59392D02*
X75871Y-58548D01*
X75337Y-58605D02*
X75224Y-58605D01*
X75168Y-58633D01*
X75112Y-58689D01*
X75084Y-58802D01*
X75084Y-58998D01*
X75112Y-59111D01*
X75168Y-59167D01*
X75224Y-59195D01*
X75337Y-59195D01*
X75393Y-59167D01*
X75449Y-59111D01*
X75478Y-58998D01*
X75478Y-58802D01*
X75449Y-58689D01*
X75393Y-58633D01*
X75337Y-58605D01*
X74634Y-58886D02*
X74831Y-58886D01*
X74831Y-59195D02*
X74831Y-58605D01*
X74550Y-58605D01*
X74128Y-58886D02*
X74325Y-58886D01*
X74325Y-59195D02*
X74325Y-58605D01*
X74043Y-58605D01*
X79794Y-55947D02*
X79850Y-55919D01*
X79879Y-55891D01*
X79907Y-55835D01*
X79907Y-55666D01*
X79879Y-55610D01*
X79850Y-55582D01*
X79794Y-55553D01*
X79710Y-55553D01*
X79654Y-55582D01*
X79625Y-55610D01*
X79597Y-55666D01*
X79597Y-55835D01*
X79625Y-55891D01*
X79654Y-55919D01*
X79710Y-55947D01*
X79794Y-55947D01*
X79429Y-55553D02*
X79204Y-55553D01*
X79344Y-55947D02*
X79344Y-55441D01*
X79316Y-55385D01*
X79260Y-55357D01*
X79204Y-55357D01*
X79091Y-55553D02*
X78866Y-55553D01*
X79007Y-55947D02*
X79007Y-55441D01*
X78979Y-55385D01*
X78922Y-55357D01*
X78866Y-55357D01*
X78697Y-55919D02*
X78641Y-55947D01*
X78529Y-55947D01*
X78473Y-55919D01*
X78444Y-55863D01*
X78444Y-55835D01*
X78473Y-55778D01*
X78529Y-55750D01*
X78613Y-55750D01*
X78669Y-55722D01*
X78697Y-55666D01*
X78697Y-55638D01*
X78669Y-55582D01*
X78613Y-55553D01*
X78529Y-55553D01*
X78473Y-55582D01*
X77966Y-55919D02*
X78023Y-55947D01*
X78135Y-55947D01*
X78191Y-55919D01*
X78219Y-55863D01*
X78219Y-55638D01*
X78191Y-55582D01*
X78135Y-55553D01*
X78023Y-55553D01*
X77966Y-55582D01*
X77938Y-55638D01*
X77938Y-55694D01*
X78219Y-55750D01*
X77769Y-55553D02*
X77544Y-55553D01*
X77685Y-55357D02*
X77685Y-55863D01*
X77657Y-55919D01*
X77601Y-55947D01*
X77544Y-55947D01*
X76757Y-56144D02*
X76757Y-55300D01*
X75913Y-55413D02*
X75885Y-55385D01*
X75829Y-55357D01*
X75688Y-55357D01*
X75632Y-55385D01*
X75604Y-55413D01*
X75576Y-55469D01*
X75576Y-55525D01*
X75604Y-55610D01*
X75942Y-55947D01*
X75576Y-55947D01*
X75295Y-55357D02*
X75351Y-55469D01*
X75070Y-55919D02*
X75014Y-55947D01*
X74901Y-55947D01*
X74845Y-55919D01*
X74817Y-55863D01*
X74817Y-55835D01*
X74845Y-55778D01*
X74901Y-55750D01*
X74985Y-55750D01*
X75042Y-55722D01*
X75070Y-55666D01*
X75070Y-55638D01*
X75042Y-55582D01*
X74985Y-55553D01*
X74901Y-55553D01*
X74845Y-55582D01*
X78107Y-54752D02*
X78304Y-54752D01*
X78304Y-55061D02*
X78304Y-54471D01*
X78023Y-54471D01*
X77685Y-54471D02*
X77573Y-54471D01*
X77516Y-54499D01*
X77460Y-54555D01*
X77432Y-54668D01*
X77432Y-54865D01*
X77460Y-54977D01*
X77516Y-55033D01*
X77573Y-55061D01*
X77685Y-55061D01*
X77741Y-55033D01*
X77798Y-54977D01*
X77826Y-54865D01*
X77826Y-54668D01*
X77798Y-54555D01*
X77741Y-54499D01*
X77685Y-54471D01*
X76841Y-55061D02*
X77038Y-54780D01*
X77179Y-55061D02*
X77179Y-54471D01*
X76954Y-54471D01*
X76898Y-54499D01*
X76870Y-54527D01*
X76841Y-54583D01*
X76841Y-54668D01*
X76870Y-54724D01*
X76898Y-54752D01*
X76954Y-54780D01*
X77179Y-54780D01*
X76588Y-55061D02*
X76588Y-54471D01*
X76392Y-54893D01*
X76195Y-54471D01*
X76195Y-55061D01*
X75942Y-54893D02*
X75660Y-54893D01*
X75998Y-55061D02*
X75801Y-54471D01*
X75604Y-55061D01*
X75492Y-54471D02*
X75154Y-54471D01*
X75323Y-55061D02*
X75323Y-54471D01*
X94150Y-59392D02*
X94150Y-58802D01*
X94010Y-58802D01*
X93925Y-58830D01*
X93869Y-58886D01*
X93841Y-58942D01*
X93813Y-59055D01*
X93813Y-59139D01*
X93841Y-59251D01*
X93869Y-59308D01*
X93925Y-59364D01*
X94010Y-59392D01*
X94150Y-59392D01*
X93560Y-59392D02*
X93560Y-58998D01*
X93560Y-58802D02*
X93588Y-58830D01*
X93560Y-58858D01*
X93532Y-58830D01*
X93560Y-58802D01*
X93560Y-58858D01*
X93278Y-59392D02*
X93278Y-58998D01*
X93278Y-59111D02*
X93250Y-59055D01*
X93222Y-59026D01*
X93166Y-58998D01*
X93110Y-58998D01*
X92688Y-59364D02*
X92744Y-59392D01*
X92857Y-59392D01*
X92913Y-59364D01*
X92941Y-59308D01*
X92941Y-59083D01*
X92913Y-59026D01*
X92857Y-58998D01*
X92744Y-58998D01*
X92688Y-59026D01*
X92660Y-59083D01*
X92660Y-59139D01*
X92941Y-59195D01*
X92154Y-59364D02*
X92210Y-59392D01*
X92322Y-59392D01*
X92379Y-59364D01*
X92407Y-59336D01*
X92435Y-59280D01*
X92435Y-59111D01*
X92407Y-59055D01*
X92379Y-59026D01*
X92322Y-58998D01*
X92210Y-58998D01*
X92154Y-59026D01*
X91985Y-58998D02*
X91760Y-58998D01*
X91901Y-58802D02*
X91901Y-59308D01*
X91872Y-59364D01*
X91816Y-59392D01*
X91760Y-59392D01*
X91141Y-59364D02*
X91057Y-59392D01*
X90916Y-59392D01*
X90860Y-59364D01*
X90832Y-59336D01*
X90804Y-59280D01*
X90804Y-59223D01*
X90832Y-59167D01*
X90860Y-59139D01*
X90916Y-59111D01*
X91029Y-59083D01*
X91085Y-59055D01*
X91113Y-59026D01*
X91141Y-58970D01*
X91141Y-58914D01*
X91113Y-58858D01*
X91085Y-58830D01*
X91029Y-58802D01*
X90888Y-58802D01*
X90804Y-58830D01*
X90298Y-59392D02*
X90298Y-59083D01*
X90326Y-59026D01*
X90382Y-58998D01*
X90494Y-58998D01*
X90551Y-59026D01*
X90298Y-59364D02*
X90354Y-59392D01*
X90494Y-59392D01*
X90551Y-59364D01*
X90579Y-59308D01*
X90579Y-59251D01*
X90551Y-59195D01*
X90494Y-59167D01*
X90354Y-59167D01*
X90298Y-59139D01*
X90016Y-59392D02*
X90016Y-58998D01*
X90016Y-59055D02*
X89988Y-59026D01*
X89932Y-58998D01*
X89848Y-58998D01*
X89791Y-59026D01*
X89763Y-59083D01*
X89763Y-59392D01*
X89763Y-59083D02*
X89735Y-59026D01*
X89679Y-58998D01*
X89595Y-58998D01*
X89538Y-59026D01*
X89510Y-59083D01*
X89510Y-59392D01*
X89229Y-58998D02*
X89229Y-59589D01*
X89229Y-59026D02*
X89173Y-58998D01*
X89060Y-58998D01*
X89004Y-59026D01*
X88976Y-59055D01*
X88948Y-59111D01*
X88948Y-59280D01*
X88976Y-59336D01*
X89004Y-59364D01*
X89060Y-59392D01*
X89173Y-59392D01*
X89229Y-59364D01*
X88610Y-59392D02*
X88667Y-59364D01*
X88695Y-59308D01*
X88695Y-58802D01*
X88160Y-59364D02*
X88217Y-59392D01*
X88329Y-59392D01*
X88385Y-59364D01*
X88413Y-59308D01*
X88413Y-59083D01*
X88385Y-59026D01*
X88329Y-58998D01*
X88217Y-58998D01*
X88160Y-59026D01*
X88132Y-59083D01*
X88132Y-59139D01*
X88413Y-59195D01*
X87429Y-59392D02*
X87429Y-58802D01*
X87148Y-58998D02*
X87148Y-59392D01*
X87148Y-59055D02*
X87120Y-59026D01*
X87064Y-58998D01*
X86979Y-58998D01*
X86923Y-59026D01*
X86895Y-59083D01*
X86895Y-59392D01*
X86698Y-58998D02*
X86473Y-58998D01*
X86614Y-58802D02*
X86614Y-59308D01*
X86586Y-59364D01*
X86529Y-59392D01*
X86473Y-59392D01*
X86051Y-59364D02*
X86107Y-59392D01*
X86220Y-59392D01*
X86276Y-59364D01*
X86304Y-59308D01*
X86304Y-59083D01*
X86276Y-59026D01*
X86220Y-58998D01*
X86107Y-58998D01*
X86051Y-59026D01*
X86023Y-59083D01*
X86023Y-59139D01*
X86304Y-59195D01*
X85770Y-59392D02*
X85770Y-58998D01*
X85770Y-59111D02*
X85742Y-59055D01*
X85714Y-59026D01*
X85658Y-58998D01*
X85601Y-58998D01*
X85489Y-58998D02*
X85264Y-58998D01*
X85404Y-59392D02*
X85404Y-58886D01*
X85376Y-58830D01*
X85320Y-58802D01*
X85264Y-58802D01*
X84814Y-59392D02*
X84814Y-59083D01*
X84842Y-59026D01*
X84898Y-58998D01*
X85011Y-58998D01*
X85067Y-59026D01*
X84814Y-59364D02*
X84870Y-59392D01*
X85011Y-59392D01*
X85067Y-59364D01*
X85095Y-59308D01*
X85095Y-59251D01*
X85067Y-59195D01*
X85011Y-59167D01*
X84870Y-59167D01*
X84814Y-59139D01*
X84280Y-59364D02*
X84336Y-59392D01*
X84448Y-59392D01*
X84505Y-59364D01*
X84533Y-59336D01*
X84561Y-59280D01*
X84561Y-59111D01*
X84533Y-59055D01*
X84505Y-59026D01*
X84448Y-58998D01*
X84336Y-58998D01*
X84280Y-59026D01*
X83802Y-59364D02*
X83858Y-59392D01*
X83970Y-59392D01*
X84026Y-59364D01*
X84055Y-59308D01*
X84055Y-59083D01*
X84026Y-59026D01*
X83970Y-58998D01*
X83858Y-58998D01*
X83802Y-59026D01*
X83773Y-59083D01*
X83773Y-59139D01*
X84055Y-59195D01*
X93096Y-59746D02*
X93096Y-60168D01*
X93124Y-60253D01*
X93180Y-60309D01*
X93264Y-60337D01*
X93321Y-60337D01*
X92561Y-59943D02*
X92561Y-60337D01*
X92814Y-59943D02*
X92814Y-60253D01*
X92786Y-60309D01*
X92730Y-60337D01*
X92646Y-60337D01*
X92589Y-60309D01*
X92561Y-60281D01*
X92280Y-59943D02*
X92280Y-60337D01*
X92280Y-60000D02*
X92252Y-59971D01*
X92196Y-59943D01*
X92111Y-59943D01*
X92055Y-59971D01*
X92027Y-60028D01*
X92027Y-60337D01*
X91521Y-60309D02*
X91577Y-60337D01*
X91690Y-60337D01*
X91746Y-60309D01*
X91774Y-60253D01*
X91774Y-60028D01*
X91746Y-59971D01*
X91690Y-59943D01*
X91577Y-59943D01*
X91521Y-59971D01*
X91493Y-60028D01*
X91493Y-60084D01*
X91774Y-60140D01*
X90818Y-59803D02*
X90790Y-59775D01*
X90733Y-59746D01*
X90593Y-59746D01*
X90537Y-59775D01*
X90508Y-59803D01*
X90480Y-59859D01*
X90480Y-59915D01*
X90508Y-60000D01*
X90846Y-60337D01*
X90480Y-60337D01*
X90115Y-59746D02*
X90059Y-59746D01*
X90002Y-59775D01*
X89974Y-59803D01*
X89946Y-59859D01*
X89918Y-59971D01*
X89918Y-60112D01*
X89946Y-60224D01*
X89974Y-60281D01*
X90002Y-60309D01*
X90059Y-60337D01*
X90115Y-60337D01*
X90171Y-60309D01*
X90199Y-60281D01*
X90227Y-60224D01*
X90255Y-60112D01*
X90255Y-59971D01*
X90227Y-59859D01*
X90199Y-59803D01*
X90171Y-59775D01*
X90115Y-59746D01*
X89356Y-60337D02*
X89693Y-60337D01*
X89524Y-60337D02*
X89524Y-59746D01*
X89580Y-59831D01*
X89637Y-59887D01*
X89693Y-59915D01*
X89159Y-59746D02*
X88793Y-59746D01*
X88990Y-59971D01*
X88906Y-59971D01*
X88849Y-60000D01*
X88821Y-60028D01*
X88793Y-60084D01*
X88793Y-60224D01*
X88821Y-60281D01*
X88849Y-60309D01*
X88906Y-60337D01*
X89074Y-60337D01*
X89131Y-60309D01*
X89159Y-60281D01*
X88090Y-60112D02*
X87640Y-60112D01*
X86571Y-60337D02*
X86768Y-60056D01*
X86909Y-60337D02*
X86909Y-59746D01*
X86684Y-59746D01*
X86628Y-59775D01*
X86600Y-59803D01*
X86571Y-59859D01*
X86571Y-59943D01*
X86600Y-60000D01*
X86628Y-60028D01*
X86684Y-60056D01*
X86909Y-60056D01*
X86093Y-60309D02*
X86150Y-60337D01*
X86262Y-60337D01*
X86318Y-60309D01*
X86347Y-60253D01*
X86347Y-60028D01*
X86318Y-59971D01*
X86262Y-59943D01*
X86150Y-59943D01*
X86093Y-59971D01*
X86065Y-60028D01*
X86065Y-60084D01*
X86347Y-60140D01*
X85868Y-59943D02*
X85728Y-60337D01*
X85587Y-59943D01*
X84940Y-60168D02*
X84659Y-60168D01*
X84997Y-60337D02*
X84800Y-59746D01*
X84603Y-60337D01*
X90846Y-61282D02*
X91127Y-61282D01*
X91127Y-60691D01*
X90424Y-61254D02*
X90480Y-61282D01*
X90593Y-61282D01*
X90649Y-61254D01*
X90677Y-61197D01*
X90677Y-60973D01*
X90649Y-60916D01*
X90593Y-60888D01*
X90480Y-60888D01*
X90424Y-60916D01*
X90396Y-60973D01*
X90396Y-61029D01*
X90677Y-61085D01*
X89918Y-61254D02*
X89974Y-61282D01*
X90087Y-61282D01*
X90143Y-61254D01*
X90171Y-61197D01*
X90171Y-60973D01*
X90143Y-60916D01*
X90087Y-60888D01*
X89974Y-60888D01*
X89918Y-60916D01*
X89890Y-60973D01*
X89890Y-61029D01*
X90171Y-61085D01*
X89215Y-61254D02*
X89131Y-61282D01*
X88990Y-61282D01*
X88934Y-61254D01*
X88906Y-61226D01*
X88877Y-61169D01*
X88877Y-61113D01*
X88906Y-61057D01*
X88934Y-61029D01*
X88990Y-61001D01*
X89102Y-60973D01*
X89159Y-60944D01*
X89187Y-60916D01*
X89215Y-60860D01*
X89215Y-60804D01*
X89187Y-60748D01*
X89159Y-60719D01*
X89102Y-60691D01*
X88962Y-60691D01*
X88877Y-60719D01*
X88681Y-60888D02*
X88371Y-60888D01*
X88681Y-61282D01*
X88371Y-61282D01*
X87893Y-60888D02*
X87893Y-61282D01*
X88146Y-60888D02*
X88146Y-61197D01*
X88118Y-61254D01*
X88062Y-61282D01*
X87978Y-61282D01*
X87921Y-61254D01*
X87893Y-61226D01*
X87612Y-61282D02*
X87612Y-60691D01*
X87612Y-60916D02*
X87556Y-60888D01*
X87443Y-60888D01*
X87387Y-60916D01*
X87359Y-60944D01*
X87331Y-61001D01*
X87331Y-61169D01*
X87359Y-61226D01*
X87387Y-61254D01*
X87443Y-61282D01*
X87556Y-61282D01*
X87612Y-61254D01*
X86825Y-61282D02*
X86825Y-60973D01*
X86853Y-60916D01*
X86909Y-60888D01*
X87021Y-60888D01*
X87078Y-60916D01*
X86825Y-61254D02*
X86881Y-61282D01*
X87021Y-61282D01*
X87078Y-61254D01*
X87106Y-61197D01*
X87106Y-61141D01*
X87078Y-61085D01*
X87021Y-61057D01*
X86881Y-61057D01*
X86825Y-61029D01*
X83633Y-60883D02*
X83633Y-61164D01*
X83802Y-60826D02*
X83211Y-61023D01*
X83802Y-61220D01*
X83802Y-61417D02*
X83211Y-61417D01*
X83211Y-61557D01*
X83239Y-61642D01*
X83295Y-61698D01*
X83352Y-61726D01*
X83464Y-61754D01*
X83548Y-61754D01*
X83661Y-61726D01*
X83717Y-61698D01*
X83773Y-61642D01*
X83802Y-61557D01*
X83802Y-61417D01*
X83745Y-62345D02*
X83773Y-62317D01*
X83802Y-62232D01*
X83802Y-62176D01*
X83773Y-62092D01*
X83717Y-62035D01*
X83661Y-62007D01*
X83548Y-61979D01*
X83464Y-61979D01*
X83352Y-62007D01*
X83295Y-62035D01*
X83239Y-62092D01*
X83211Y-62176D01*
X83211Y-62232D01*
X83239Y-62317D01*
X83267Y-62345D01*
X84786Y-61220D02*
X84195Y-61220D01*
X84195Y-61361D01*
X84223Y-61445D01*
X84280Y-61501D01*
X84336Y-61529D01*
X84448Y-61557D01*
X84533Y-61557D01*
X84645Y-61529D01*
X84701Y-61501D01*
X84758Y-61445D01*
X84786Y-61361D01*
X84786Y-61220D01*
X84786Y-61811D02*
X84195Y-61811D01*
X84223Y-62401D02*
X84195Y-62345D01*
X84195Y-62260D01*
X84223Y-62176D01*
X84280Y-62120D01*
X84336Y-62092D01*
X84448Y-62064D01*
X84533Y-62064D01*
X84645Y-62092D01*
X84701Y-62120D01*
X84758Y-62176D01*
X84786Y-62260D01*
X84786Y-62317D01*
X84758Y-62401D01*
X84730Y-62429D01*
X84533Y-62429D01*
X84533Y-62317D01*
X84786Y-61220D02*
X84195Y-61220D01*
X84195Y-61361D01*
X84223Y-61445D01*
X84280Y-61501D01*
X84336Y-61529D01*
X84448Y-61557D01*
X84533Y-61557D01*
X84645Y-61529D01*
X84701Y-61501D01*
X84758Y-61445D01*
X84786Y-61361D01*
X84786Y-61220D01*
X84786Y-61811D02*
X84195Y-61811D01*
X84223Y-62401D02*
X84195Y-62345D01*
X84195Y-62260D01*
X84223Y-62176D01*
X84280Y-62120D01*
X84336Y-62092D01*
X84448Y-62064D01*
X84533Y-62064D01*
X84645Y-62092D01*
X84701Y-62120D01*
X84758Y-62176D01*
X84786Y-62260D01*
X84786Y-62317D01*
X84758Y-62401D01*
X84730Y-62429D01*
X84533Y-62429D01*
X84533Y-62317D01*
X83633Y-60883D02*
X83633Y-61164D01*
X83802Y-60826D02*
X83211Y-61023D01*
X83802Y-61220D01*
X83802Y-61417D02*
X83211Y-61417D01*
X83211Y-61557D01*
X83239Y-61642D01*
X83295Y-61698D01*
X83352Y-61726D01*
X83464Y-61754D01*
X83548Y-61754D01*
X83661Y-61726D01*
X83717Y-61698D01*
X83773Y-61642D01*
X83802Y-61557D01*
X83802Y-61417D01*
X83745Y-62345D02*
X83773Y-62317D01*
X83802Y-62232D01*
X83802Y-62176D01*
X83773Y-62092D01*
X83717Y-62035D01*
X83661Y-62007D01*
X83548Y-61979D01*
X83464Y-61979D01*
X83352Y-62007D01*
X83295Y-62035D01*
X83239Y-62092D01*
X83211Y-62176D01*
X83211Y-62232D01*
X83239Y-62317D01*
X83267Y-62345D01*
X83633Y-60883D02*
X83633Y-61164D01*
X83802Y-60826D02*
X83211Y-61023D01*
X83802Y-61220D01*
X83802Y-61417D02*
X83211Y-61417D01*
X83211Y-61557D01*
X83239Y-61642D01*
X83295Y-61698D01*
X83352Y-61726D01*
X83464Y-61754D01*
X83548Y-61754D01*
X83661Y-61726D01*
X83717Y-61698D01*
X83773Y-61642D01*
X83802Y-61557D01*
X83802Y-61417D01*
X83745Y-62345D02*
X83773Y-62317D01*
X83802Y-62232D01*
X83802Y-62176D01*
X83773Y-62092D01*
X83717Y-62035D01*
X83661Y-62007D01*
X83548Y-61979D01*
X83464Y-61979D01*
X83352Y-62007D01*
X83295Y-62035D01*
X83239Y-62092D01*
X83211Y-62176D01*
X83211Y-62232D01*
X83239Y-62317D01*
X83267Y-62345D01*
X84786Y-61220D02*
X84195Y-61220D01*
X84195Y-61361D01*
X84223Y-61445D01*
X84280Y-61501D01*
X84336Y-61529D01*
X84448Y-61557D01*
X84533Y-61557D01*
X84645Y-61529D01*
X84701Y-61501D01*
X84758Y-61445D01*
X84786Y-61361D01*
X84786Y-61220D01*
X84786Y-61811D02*
X84195Y-61811D01*
X84223Y-62401D02*
X84195Y-62345D01*
X84195Y-62260D01*
X84223Y-62176D01*
X84280Y-62120D01*
X84336Y-62092D01*
X84448Y-62064D01*
X84533Y-62064D01*
X84645Y-62092D01*
X84701Y-62120D01*
X84758Y-62176D01*
X84786Y-62260D01*
X84786Y-62317D01*
X84758Y-62401D01*
X84730Y-62429D01*
X84533Y-62429D01*
X84533Y-62317D01*
X84209Y-51223D02*
X84209Y-50632D01*
X84069Y-50632D01*
X83984Y-50660D01*
X83928Y-50717D01*
X83900Y-50773D01*
X83872Y-50885D01*
X83872Y-50970D01*
X83900Y-51082D01*
X83928Y-51138D01*
X83984Y-51195D01*
X84069Y-51223D01*
X84209Y-51223D01*
X83619Y-51223D02*
X83619Y-50632D01*
X83028Y-50660D02*
X83084Y-50632D01*
X83169Y-50632D01*
X83253Y-50660D01*
X83309Y-50717D01*
X83338Y-50773D01*
X83366Y-50885D01*
X83366Y-50970D01*
X83338Y-51082D01*
X83309Y-51138D01*
X83253Y-51195D01*
X83169Y-51223D01*
X83113Y-51223D01*
X83028Y-51195D01*
X83000Y-51167D01*
X83000Y-50970D01*
X83113Y-50970D01*
X82747Y-51223D02*
X82747Y-50632D01*
X82550Y-50632D02*
X82213Y-50632D01*
X82381Y-51223D02*
X82381Y-50632D01*
X82044Y-51054D02*
X81763Y-51054D01*
X82100Y-51223D02*
X81903Y-50632D01*
X81706Y-51223D01*
X81228Y-51223D02*
X81510Y-51223D01*
X81510Y-50632D01*
X83872Y-52168D02*
X84069Y-51886D01*
X84209Y-52168D02*
X84209Y-51577D01*
X83984Y-51577D01*
X83928Y-51605D01*
X83900Y-51633D01*
X83872Y-51690D01*
X83872Y-51774D01*
X83900Y-51830D01*
X83928Y-51858D01*
X83984Y-51886D01*
X84209Y-51886D01*
X83647Y-51999D02*
X83366Y-51999D01*
X83703Y-52168D02*
X83506Y-51577D01*
X83309Y-52168D01*
X83113Y-52168D02*
X83113Y-51577D01*
X82775Y-52168D01*
X82775Y-51577D01*
X82494Y-52168D02*
X82494Y-51577D01*
X82353Y-51577D01*
X82269Y-51605D01*
X82213Y-51661D01*
X82185Y-51718D01*
X82156Y-51830D01*
X82156Y-51915D01*
X82185Y-52027D01*
X82213Y-52083D01*
X82269Y-52140D01*
X82353Y-52168D01*
X82494Y-52168D01*
X81791Y-51577D02*
X81678Y-51577D01*
X81622Y-51605D01*
X81566Y-51661D01*
X81538Y-51774D01*
X81538Y-51971D01*
X81566Y-52083D01*
X81622Y-52140D01*
X81678Y-52168D01*
X81791Y-52168D01*
X81847Y-52140D01*
X81903Y-52083D01*
X81931Y-51971D01*
X81931Y-51774D01*
X81903Y-51661D01*
X81847Y-51605D01*
X81791Y-51577D01*
X81285Y-52168D02*
X81285Y-51577D01*
X81088Y-51999D01*
X80891Y-51577D01*
X80891Y-52168D01*
X80610Y-52168D02*
X80610Y-51577D01*
X80385Y-51577D02*
X79991Y-51577D01*
X80385Y-52168D01*
X79991Y-52168D01*
X79766Y-51858D02*
X79569Y-51858D01*
X79485Y-52168D02*
X79766Y-52168D01*
X79766Y-51577D01*
X79485Y-51577D01*
X78894Y-52168D02*
X79091Y-51886D01*
X79232Y-52168D02*
X79232Y-51577D01*
X79007Y-51577D01*
X78951Y-51605D01*
X78922Y-51633D01*
X78894Y-51690D01*
X78894Y-51774D01*
X78922Y-51830D01*
X78951Y-51858D01*
X79007Y-51886D01*
X79232Y-51886D01*
X80568Y-63526D02*
X80568Y-62935D01*
X80343Y-62935D01*
X80286Y-62964D01*
X80258Y-62992D01*
X80230Y-63048D01*
X80230Y-63132D01*
X80258Y-63188D01*
X80286Y-63217D01*
X80343Y-63245D01*
X80568Y-63245D01*
X79865Y-62935D02*
X79752Y-62935D01*
X79696Y-62964D01*
X79640Y-63020D01*
X79611Y-63132D01*
X79611Y-63329D01*
X79640Y-63442D01*
X79696Y-63498D01*
X79752Y-63526D01*
X79865Y-63526D01*
X79921Y-63498D01*
X79977Y-63442D01*
X80005Y-63329D01*
X80005Y-63132D01*
X79977Y-63020D01*
X79921Y-62964D01*
X79865Y-62935D01*
X79415Y-62935D02*
X79274Y-63526D01*
X79161Y-63104D01*
X79049Y-63526D01*
X78908Y-62935D01*
X78683Y-63217D02*
X78487Y-63217D01*
X78402Y-63526D02*
X78683Y-63526D01*
X78683Y-62935D01*
X78402Y-62935D01*
X77812Y-63526D02*
X78008Y-63245D01*
X78149Y-63526D02*
X78149Y-62935D01*
X77924Y-62935D01*
X77868Y-62964D01*
X77840Y-62992D01*
X77812Y-63048D01*
X77812Y-63132D01*
X77840Y-63188D01*
X77868Y-63217D01*
X77924Y-63245D01*
X78149Y-63245D01*
X80652Y-63880D02*
X80314Y-63880D01*
X80483Y-64471D02*
X80483Y-63880D01*
X80118Y-64161D02*
X79921Y-64161D01*
X79836Y-64471D02*
X80118Y-64471D01*
X80118Y-63880D01*
X79836Y-63880D01*
X79611Y-64443D02*
X79527Y-64471D01*
X79386Y-64471D01*
X79330Y-64443D01*
X79302Y-64415D01*
X79274Y-64358D01*
X79274Y-64302D01*
X79302Y-64246D01*
X79330Y-64218D01*
X79386Y-64190D01*
X79499Y-64161D01*
X79555Y-64133D01*
X79583Y-64105D01*
X79611Y-64049D01*
X79611Y-63993D01*
X79583Y-63937D01*
X79555Y-63908D01*
X79499Y-63880D01*
X79358Y-63880D01*
X79274Y-63908D01*
X79105Y-63880D02*
X78768Y-63880D01*
X78937Y-64471D02*
X78937Y-63880D01*
X78121Y-64471D02*
X78121Y-63880D01*
X77896Y-63880D01*
X77840Y-63908D01*
X77812Y-63937D01*
X77784Y-63993D01*
X77784Y-64077D01*
X77812Y-64133D01*
X77840Y-64161D01*
X77896Y-64190D01*
X78121Y-64190D01*
X77418Y-63880D02*
X77305Y-63880D01*
X77249Y-63908D01*
X77193Y-63965D01*
X77165Y-64077D01*
X77165Y-64274D01*
X77193Y-64386D01*
X77249Y-64443D01*
X77305Y-64471D01*
X77418Y-64471D01*
X77474Y-64443D01*
X77530Y-64386D01*
X77559Y-64274D01*
X77559Y-64077D01*
X77530Y-63965D01*
X77474Y-63908D01*
X77418Y-63880D01*
X76912Y-64471D02*
X76912Y-63880D01*
X76631Y-64471D02*
X76631Y-63880D01*
X76293Y-64471D01*
X76293Y-63880D01*
X76096Y-63880D02*
X75759Y-63880D01*
X75928Y-64471D02*
X75928Y-63880D01*
X75590Y-64443D02*
X75506Y-64471D01*
X75365Y-64471D01*
X75309Y-64443D01*
X75281Y-64415D01*
X75253Y-64358D01*
X75253Y-64302D01*
X75281Y-64246D01*
X75309Y-64218D01*
X75365Y-64190D01*
X75478Y-64161D01*
X75534Y-64133D01*
X75562Y-64105D01*
X75590Y-64049D01*
X75590Y-63993D01*
X75562Y-63937D01*
X75534Y-63908D01*
X75478Y-63880D01*
X75337Y-63880D01*
X75253Y-63908D01*
X85770Y-50815D02*
X85770Y-50928D01*
X85798Y-50984D01*
X85854Y-51040D01*
X85967Y-51068D01*
X86164Y-51068D01*
X86276Y-51040D01*
X86332Y-50984D01*
X86361Y-50928D01*
X86361Y-50815D01*
X86332Y-50759D01*
X86276Y-50703D01*
X86164Y-50674D01*
X85967Y-50674D01*
X85854Y-50703D01*
X85798Y-50759D01*
X85770Y-50815D01*
X86051Y-51518D02*
X86051Y-51321D01*
X86361Y-51321D02*
X85770Y-51321D01*
X85770Y-51602D01*
X86051Y-52024D02*
X86051Y-51827D01*
X86361Y-51827D02*
X85770Y-51827D01*
X85770Y-52109D01*
X84687Y-51012D02*
X84687Y-51124D01*
X84715Y-51181D01*
X84772Y-51237D01*
X84884Y-51265D01*
X85081Y-51265D01*
X85194Y-51237D01*
X85250Y-51181D01*
X85278Y-51124D01*
X85278Y-51012D01*
X85250Y-50956D01*
X85194Y-50899D01*
X85081Y-50871D01*
X84884Y-50871D01*
X84772Y-50899D01*
X84715Y-50956D01*
X84687Y-51012D01*
X85278Y-51518D02*
X84687Y-51518D01*
X85278Y-51856D01*
X84687Y-51856D01*
G54D11*
X77755Y-58366D02*
X77755Y-56397D01*
X76771Y-58366D02*
X76771Y-56397D01*
X75787Y-58366D02*
X75787Y-56397D01*
X85531Y-52362D02*
X85531Y-50393D01*
X78740Y-58366D02*
X74803Y-58366D01*
X78740Y-56397D02*
X78740Y-58366D01*
X74803Y-56397D02*
X78740Y-56397D01*
X74803Y-58366D02*
X74803Y-56397D01*
X86515Y-50393D02*
X86515Y-52362D01*
X84547Y-50393D02*
X84547Y-52362D01*
X84547Y-50393D02*
X86515Y-50393D01*
X84547Y-52362D02*
X86515Y-52362D01*
G54D12*
X84786Y-61220D02*
X84195Y-61220D01*
X84195Y-61361D01*
X84223Y-61445D01*
X84280Y-61501D01*
X84336Y-61529D01*
X84448Y-61557D01*
X84533Y-61557D01*
X84645Y-61529D01*
X84701Y-61501D01*
X84758Y-61445D01*
X84786Y-61361D01*
X84786Y-61220D01*
X84786Y-61811D02*
X84195Y-61811D01*
X84223Y-62401D02*
X84195Y-62345D01*
X84195Y-62260D01*
X84223Y-62176D01*
X84280Y-62120D01*
X84336Y-62092D01*
X84448Y-62064D01*
X84533Y-62064D01*
X84645Y-62092D01*
X84701Y-62120D01*
X84758Y-62176D01*
X84786Y-62260D01*
X84786Y-62317D01*
X84758Y-62401D01*
X84730Y-62429D01*
X84533Y-62429D01*
X84533Y-62317D01*
X83633Y-60883D02*
X83633Y-61164D01*
X83802Y-60826D02*
X83211Y-61023D01*
X83802Y-61220D01*
X83802Y-61417D02*
X83211Y-61417D01*
X83211Y-61557D01*
X83239Y-61642D01*
X83295Y-61698D01*
X83352Y-61726D01*
X83464Y-61754D01*
X83548Y-61754D01*
X83661Y-61726D01*
X83717Y-61698D01*
X83773Y-61642D01*
X83802Y-61557D01*
X83802Y-61417D01*
X83745Y-62345D02*
X83773Y-62317D01*
X83802Y-62232D01*
X83802Y-62176D01*
X83773Y-62092D01*
X83717Y-62035D01*
X83661Y-62007D01*
X83548Y-61979D01*
X83464Y-61979D01*
X83352Y-62007D01*
X83295Y-62035D01*
X83239Y-62092D01*
X83211Y-62176D01*
X83211Y-62232D01*
X83239Y-62317D01*
X83267Y-62345D01*
G54D13*
X84918Y-63010D02*
X84732Y-63010D01*
X84832Y-63124D01*
X84790Y-63124D01*
X84761Y-63138D01*
X84747Y-63153D01*
X84732Y-63181D01*
X84732Y-63253D01*
X84747Y-63281D01*
X84761Y-63296D01*
X84790Y-63310D01*
X84875Y-63310D01*
X84904Y-63296D01*
X84918Y-63281D01*
X84647Y-63010D02*
X84547Y-63310D01*
X84447Y-63010D01*
X84375Y-63010D02*
X84190Y-63010D01*
X84290Y-63124D01*
X84247Y-63124D01*
X84218Y-63138D01*
X84204Y-63153D01*
X84190Y-63181D01*
X84190Y-63253D01*
X84204Y-63281D01*
X84218Y-63296D01*
X84247Y-63310D01*
X84332Y-63310D01*
X84361Y-63296D01*
X84375Y-63281D01*
X83934Y-63010D02*
X83748Y-63010D01*
X83848Y-63124D01*
X83805Y-63124D01*
X83777Y-63138D01*
X83762Y-63153D01*
X83748Y-63181D01*
X83748Y-63253D01*
X83762Y-63281D01*
X83777Y-63296D01*
X83805Y-63310D01*
X83891Y-63310D01*
X83920Y-63296D01*
X83934Y-63281D01*
X83662Y-63010D02*
X83562Y-63310D01*
X83462Y-63010D01*
X83391Y-63010D02*
X83205Y-63010D01*
X83305Y-63124D01*
X83262Y-63124D01*
X83234Y-63138D01*
X83220Y-63153D01*
X83205Y-63181D01*
X83205Y-63253D01*
X83220Y-63281D01*
X83234Y-63296D01*
X83262Y-63310D01*
X83348Y-63310D01*
X83377Y-63296D01*
X83391Y-63281D01*
G54D12*
X82199Y-62935D02*
X82480Y-62935D01*
X82508Y-63217D01*
X82480Y-63188D01*
X82424Y-63160D01*
X82283Y-63160D01*
X82227Y-63188D01*
X82199Y-63217D01*
X82170Y-63273D01*
X82170Y-63413D01*
X82199Y-63470D01*
X82227Y-63498D01*
X82283Y-63526D01*
X82424Y-63526D01*
X82480Y-63498D01*
X82508Y-63470D01*
X82002Y-62935D02*
X81805Y-63526D01*
X81608Y-62935D01*
X83520Y-63948D02*
X83577Y-63920D01*
X83661Y-63920D01*
X83745Y-63948D01*
X83802Y-64004D01*
X83830Y-64060D01*
X83858Y-64173D01*
X83858Y-64257D01*
X83830Y-64370D01*
X83802Y-64426D01*
X83745Y-64482D01*
X83661Y-64510D01*
X83605Y-64510D01*
X83520Y-64482D01*
X83492Y-64454D01*
X83492Y-64257D01*
X83605Y-64257D01*
X83239Y-64510D02*
X83239Y-63920D01*
X82902Y-64510D01*
X82902Y-63920D01*
X82620Y-64510D02*
X82620Y-63920D01*
X82480Y-63920D01*
X82395Y-63948D01*
X82339Y-64004D01*
X82311Y-64060D01*
X82283Y-64173D01*
X82283Y-64257D01*
X82311Y-64370D01*
X82339Y-64426D01*
X82395Y-64482D01*
X82480Y-64510D01*
X82620Y-64510D01*
G54D11*
X84055Y-63681D02*
X84055Y-62696D01*
X83070Y-63681D02*
X83070Y-62696D01*
X81102Y-63681D02*
X85039Y-63681D01*
X85039Y-64665D02*
X85039Y-62696D01*
X81102Y-64665D02*
X85039Y-64665D01*
X81102Y-62696D02*
X81102Y-64665D01*
X81102Y-62696D02*
X85039Y-62696D01*
%LPC*%
G54D14*
X87295Y-51877D03*
G54D15*
X87295Y-50877D03*
X88295Y-51877D03*
X88295Y-50877D03*
G54D14*
X81570Y-66444D03*
G54D15*
X81570Y-65444D03*
X82570Y-66444D03*
X82570Y-65444D03*
X83570Y-66444D03*
X83570Y-65444D03*
X84570Y-66444D03*
X84570Y-65444D03*
G54D14*
X89838Y-51877D03*
G54D15*
X89838Y-50877D03*
X90838Y-51877D03*
X90838Y-50877D03*
X91838Y-51877D03*
X91838Y-50877D03*
X92838Y-51877D03*
X92838Y-50877D03*
G54D14*
X90051Y-63082D03*
G54D15*
X91051Y-63082D03*
X90051Y-64082D03*
X91051Y-64082D03*
G54D16*
X88582Y-57283D03*
G54D17*
X95531Y-63582D03*
X95531Y-62952D03*
X95531Y-62322D03*
X95531Y-61692D03*
X95531Y-61062D03*
X95531Y-60433D03*
X95531Y-59803D03*
X95531Y-59173D03*
X95531Y-58543D03*
X95531Y-57913D03*
X95531Y-57283D03*
X95531Y-56653D03*
X95531Y-56023D03*
X95531Y-55393D03*
X95531Y-54763D03*
X95531Y-54133D03*
X95531Y-53503D03*
X95078Y-53188D03*
X95078Y-53818D03*
X95078Y-54448D03*
X95078Y-55078D03*
X95078Y-55708D03*
X95078Y-56338D03*
X95078Y-56968D03*
X95078Y-57598D03*
X95078Y-58228D03*
X95078Y-58858D03*
X95078Y-59488D03*
X95078Y-60118D03*
X95078Y-60748D03*
X95078Y-61377D03*
X95078Y-62007D03*
X95078Y-62637D03*
X95078Y-63267D03*
X96003Y-63110D03*
X96003Y-62480D03*
X96003Y-61850D03*
X96003Y-61220D03*
X96003Y-60590D03*
X96003Y-59960D03*
X96003Y-59330D03*
X96003Y-58700D03*
X96003Y-58070D03*
X96003Y-57440D03*
X96003Y-56811D03*
X96003Y-56181D03*
X96003Y-55551D03*
X96003Y-54921D03*
X96003Y-54291D03*
X96003Y-53661D03*
X96003Y-53031D03*
X96456Y-53346D03*
X96456Y-53976D03*
X96456Y-54606D03*
X96456Y-55236D03*
X96456Y-55866D03*
X96456Y-56496D03*
X96456Y-57125D03*
X96456Y-57755D03*
X96456Y-58385D03*
X96456Y-59015D03*
X96456Y-59645D03*
X96456Y-60275D03*
X96456Y-60905D03*
X96456Y-61535D03*
X96456Y-62165D03*
X96456Y-62795D03*
X96456Y-63425D03*
G54D18*
X96003Y-64675D03*
X96003Y-51938D03*
G54D19*
X97047Y-66604D03*
X97047Y-50009D03*
G54D20*
X70397Y-58274D03*
X70397Y-54324D03*
X70397Y-64770D03*
X70397Y-60820D03*
M02*
