G04 (created by PCBNEW (2013-03-31 BZR 4008)-stable) date 16/06/2013 11:35:49 PM*
%MOIN*%
G04 Gerber Fmt 3.4, Leading zero omitted, Abs format*
%FSLAX34Y34*%
G01*
G70*
G90*
G04 APERTURE LIST*
%ADD10C,0.005*%
%ADD11R,0.06X0.08*%
%ADD12R,0.035X0.055*%
%ADD13R,0.045X0.025*%
%ADD14R,0.025X0.045*%
%ADD15R,0.06X0.06*%
%ADD16C,0.06*%
%ADD17R,0.2X0.06*%
%ADD18R,0.216535X0.216535*%
%ADD19R,0.133858X0.00984252*%
%ADD20R,0.00984252X0.133858*%
%ADD21R,0.11811X0.11811*%
%ADD22C,0.0374016*%
%ADD23C,0.0787402*%
%ADD24C,0.0984252*%
%ADD25R,0.0315X0.0394*%
%ADD26R,0.08X0.144*%
%ADD27R,0.08X0.04*%
%ADD28R,0.0236X0.0157*%
%ADD29R,0.3X0.15*%
%ADD30R,0.3X0.09*%
G04 APERTURE END LIST*
G54D10*
G54D11*
X94350Y-66141D03*
X93050Y-66141D03*
X94350Y-65157D03*
X93050Y-65157D03*
G54D12*
X84823Y-50196D03*
X84073Y-50196D03*
G54D13*
X86220Y-50192D03*
X86220Y-50792D03*
G54D14*
X72436Y-58267D03*
X73036Y-58267D03*
X72436Y-56299D03*
X73036Y-56299D03*
G54D13*
X87696Y-52849D03*
X87696Y-53449D03*
X92027Y-55024D03*
X92027Y-54424D03*
X92421Y-59444D03*
X92421Y-60044D03*
X90688Y-54551D03*
X90688Y-53951D03*
X90688Y-60014D03*
X90688Y-60614D03*
X85629Y-50192D03*
X85629Y-50792D03*
X81692Y-54522D03*
X81692Y-55122D03*
G54D14*
X86697Y-52952D03*
X86097Y-52952D03*
X91924Y-62421D03*
X92524Y-62421D03*
X91924Y-63149D03*
X92524Y-63149D03*
X91638Y-50098D03*
X91038Y-50098D03*
X90457Y-50098D03*
X89857Y-50098D03*
X92819Y-50098D03*
X92219Y-50098D03*
G54D13*
X82874Y-51570D03*
X82874Y-52170D03*
X83366Y-50192D03*
X83366Y-50792D03*
G54D14*
X84571Y-58070D03*
X83971Y-58070D03*
X85133Y-54724D03*
X85733Y-54724D03*
X85133Y-55413D03*
X85733Y-55413D03*
X85831Y-59940D03*
X85231Y-59940D03*
X85831Y-59251D03*
X85231Y-59251D03*
X86570Y-60826D03*
X87170Y-60826D03*
G54D13*
X82775Y-50192D03*
X82775Y-50792D03*
X82736Y-56176D03*
X82736Y-56776D03*
X82736Y-57751D03*
X82736Y-58351D03*
G54D14*
X84571Y-56456D03*
X83971Y-56456D03*
G54D13*
X83464Y-54522D03*
X83464Y-55122D03*
G54D14*
X82878Y-54527D03*
X82278Y-54527D03*
G54D13*
X81555Y-56176D03*
X81555Y-56776D03*
X81555Y-57751D03*
X81555Y-58351D03*
X83759Y-56963D03*
X83759Y-57563D03*
G54D14*
X81845Y-57263D03*
X82445Y-57263D03*
G54D13*
X84153Y-54522D03*
X84153Y-55122D03*
G54D15*
X87295Y-51877D03*
G54D16*
X87295Y-50877D03*
X88295Y-51877D03*
X88295Y-50877D03*
G54D17*
X79568Y-57283D03*
X79568Y-56283D03*
X79568Y-58283D03*
X74368Y-56283D03*
X74368Y-57283D03*
X74368Y-58283D03*
X79568Y-63779D03*
X79568Y-62779D03*
X79568Y-64779D03*
X74368Y-62779D03*
X74368Y-63779D03*
X74368Y-64779D03*
G54D12*
X87678Y-64271D03*
X86928Y-64271D03*
G54D14*
X81097Y-62795D03*
X81697Y-62795D03*
X86904Y-63484D03*
X87504Y-63484D03*
G54D13*
X83897Y-62239D03*
X83897Y-62839D03*
X85826Y-64660D03*
X85826Y-65260D03*
X85137Y-63479D03*
X85137Y-64079D03*
X85728Y-63479D03*
X85728Y-64079D03*
X84527Y-62239D03*
X84527Y-62839D03*
X82106Y-63479D03*
X82106Y-64079D03*
X82106Y-61530D03*
X82106Y-62130D03*
G54D14*
X72436Y-64763D03*
X73036Y-64763D03*
X72436Y-62795D03*
X73036Y-62795D03*
G54D13*
X81200Y-63479D03*
X81200Y-64079D03*
G54D15*
X81570Y-66444D03*
G54D16*
X81570Y-65444D03*
X82570Y-66444D03*
X82570Y-65444D03*
X83570Y-66444D03*
X83570Y-65444D03*
X84570Y-66444D03*
X84570Y-65444D03*
G54D15*
X89838Y-51877D03*
G54D16*
X89838Y-50877D03*
X90838Y-51877D03*
X90838Y-50877D03*
X91838Y-51877D03*
X91838Y-50877D03*
X92838Y-51877D03*
X92838Y-50877D03*
G54D15*
X90051Y-63082D03*
G54D16*
X91051Y-63082D03*
X90051Y-64082D03*
X91051Y-64082D03*
G54D18*
X88582Y-57283D03*
G54D19*
X90846Y-57185D03*
X90846Y-56988D03*
X90846Y-56791D03*
X90846Y-56594D03*
X90846Y-56397D03*
X90846Y-56200D03*
X90846Y-56003D03*
X90846Y-55807D03*
X90846Y-57381D03*
X90846Y-57578D03*
X90846Y-57775D03*
X90846Y-57972D03*
X90846Y-58169D03*
X90846Y-58366D03*
X90846Y-58562D03*
X90846Y-58759D03*
G54D20*
X88681Y-59547D03*
X88484Y-59547D03*
X88287Y-59547D03*
X88090Y-59547D03*
X87893Y-59547D03*
X87696Y-59547D03*
X87500Y-59547D03*
X87303Y-59547D03*
X87106Y-59547D03*
X88877Y-59547D03*
X89074Y-59547D03*
X89271Y-59547D03*
X89468Y-59547D03*
X89665Y-59547D03*
X89862Y-59547D03*
X90059Y-59547D03*
X88681Y-55019D03*
X88877Y-55019D03*
X89074Y-55019D03*
X89271Y-55019D03*
X89468Y-55019D03*
X89665Y-55019D03*
X89862Y-55019D03*
X90059Y-55019D03*
X88484Y-55019D03*
X88287Y-55019D03*
X88090Y-55019D03*
X87893Y-55019D03*
X87696Y-55019D03*
X87500Y-55019D03*
X87303Y-55019D03*
X87106Y-55019D03*
G54D19*
X86318Y-57185D03*
X86318Y-56988D03*
X86318Y-56791D03*
X86318Y-56594D03*
X86318Y-56397D03*
X86318Y-56200D03*
X86318Y-56003D03*
X86318Y-55807D03*
X86318Y-57381D03*
X86318Y-57578D03*
X86318Y-57775D03*
X86318Y-57972D03*
X86318Y-58169D03*
X86318Y-58366D03*
X86318Y-58562D03*
X86318Y-58759D03*
G54D21*
X88582Y-57283D03*
G54D22*
X95531Y-63582D03*
X95531Y-62952D03*
X95531Y-62322D03*
X95531Y-61692D03*
X95531Y-61062D03*
X95531Y-60433D03*
X95531Y-59803D03*
X95531Y-59173D03*
X95531Y-58543D03*
X95531Y-57913D03*
X95531Y-57283D03*
X95531Y-56653D03*
X95531Y-56023D03*
X95531Y-55393D03*
X95531Y-54763D03*
X95531Y-54133D03*
X95531Y-53503D03*
X95078Y-53188D03*
X95078Y-53818D03*
X95078Y-54448D03*
X95078Y-55078D03*
X95078Y-55708D03*
X95078Y-56338D03*
X95078Y-56968D03*
X95078Y-57598D03*
X95078Y-58228D03*
X95078Y-58858D03*
X95078Y-59488D03*
X95078Y-60118D03*
X95078Y-60748D03*
X95078Y-61377D03*
X95078Y-62007D03*
X95078Y-62637D03*
X95078Y-63267D03*
X96003Y-63110D03*
X96003Y-62480D03*
X96003Y-61850D03*
X96003Y-61220D03*
X96003Y-60590D03*
X96003Y-59960D03*
X96003Y-59330D03*
X96003Y-58700D03*
X96003Y-58070D03*
X96003Y-57440D03*
X96003Y-56811D03*
X96003Y-56181D03*
X96003Y-55551D03*
X96003Y-54921D03*
X96003Y-54291D03*
X96003Y-53661D03*
X96003Y-53031D03*
X96456Y-53346D03*
X96456Y-53976D03*
X96456Y-54606D03*
X96456Y-55236D03*
X96456Y-55866D03*
X96456Y-56496D03*
X96456Y-57125D03*
X96456Y-57755D03*
X96456Y-58385D03*
X96456Y-59015D03*
X96456Y-59645D03*
X96456Y-60275D03*
X96456Y-60905D03*
X96456Y-61535D03*
X96456Y-62165D03*
X96456Y-62795D03*
X96456Y-63425D03*
G54D23*
X96003Y-64675D03*
X96003Y-51938D03*
G54D24*
X97047Y-66604D03*
X97047Y-50009D03*
G54D25*
X82933Y-62145D03*
X83308Y-63011D03*
X82558Y-63011D03*
X84153Y-64310D03*
X83778Y-63444D03*
X84528Y-63444D03*
G54D26*
X79211Y-51574D03*
G54D27*
X81811Y-51574D03*
X81811Y-50674D03*
X81811Y-52474D03*
G54D28*
X85314Y-58346D03*
X85314Y-57992D03*
G54D29*
X70397Y-54324D03*
G54D30*
X70397Y-56299D03*
G54D29*
X70397Y-58274D03*
X70397Y-60820D03*
G54D30*
X70397Y-62795D03*
G54D29*
X70397Y-64770D03*
M02*
